<svg width="256" height="256" viewBox="0 0 256 256" fill="none" xmlns="http://www.w3.org/2000/svg">
<circle cx="40" cy="80" r="4" fill="white"/>
<circle cx="40" cy="88" r="4" fill="white"/>
<circle cx="40" cy="96" r="4" fill="white"/>
<circle cx="40" cy="104" r="4" fill="white"/>
<circle cx="40" cy="112" r="4" fill="white"/>
<circle cx="48" cy="64" r="4" fill="white"/>
<circle cx="48" cy="72" r="4" fill="white"/>
<circle cx="48" cy="120" r="4" fill="white"/>
<circle cx="48" cy="128" r="4" fill="white"/>
<circle cx="48" cy="136" r="4" fill="white"/>
<circle cx="56" cy="56" r="4" fill="white"/>
<circle cx="56" cy="136" r="4" fill="white"/>
<circle cx="64" cy="48" r="4" fill="white"/>
<circle cx="64" cy="144" r="4" fill="white"/>
<circle cx="72" cy="48" r="4" fill="white"/>
<circle cx="72" cy="152" r="4" fill="white"/>
<circle cx="80" cy="48" r="4" fill="white"/>
<circle cx="80" cy="160" r="4" fill="white"/>
<circle cx="80" cy="168" r="4" fill="white"/>
<circle cx="88" cy="48" r="4" fill="white"/>
<circle cx="88" cy="168" r="4" fill="white"/>
<circle cx="88" cy="176" r="4" fill="white"/>
<circle cx="96" cy="48" r="4" fill="white"/>
<circle cx="96" cy="176" r="4" fill="white"/>
<circle cx="96" cy="184" r="4" fill="white"/>
<circle cx="104" cy="48" r="4" fill="white"/>
<circle cx="104" cy="192" r="4" fill="white"/>
<circle cx="112" cy="48" r="4" fill="white"/>
<circle cx="112" cy="56" r="4" fill="white"/>
<circle cx="112" cy="192" r="4" fill="white"/>
<circle cx="112" cy="200" r="4" fill="white"/>
<circle cx="120" cy="56" r="4" fill="white"/>
<circle cx="120" cy="64" r="4" fill="white"/>
<circle cx="120" cy="208" r="4" fill="white"/>
<circle cx="128" cy="64" r="4" fill="white"/>
<circle cx="128" cy="72" r="4" fill="white"/>
<circle cx="128" cy="80" r="4" fill="white"/>
<circle cx="128" cy="88" r="4" fill="white"/>
<circle cx="128" cy="96" r="4" fill="white"/>
<circle cx="128" cy="216" r="4" fill="white"/>
<circle cx="136" cy="80" r="4" fill="white"/>
<circle cx="136" cy="88" r="4" fill="white"/>
<circle cx="136" cy="216" r="4" fill="white"/>
<circle cx="136" cy="224" r="4" fill="white"/>
<circle cx="144" cy="72" r="4" fill="white"/>
<circle cx="144" cy="224" r="4" fill="white"/>
<circle cx="152" cy="56" r="4" fill="white"/>
<circle cx="152" cy="64" r="4" fill="white"/>
<circle cx="152" cy="224" r="4" fill="white"/>
<circle cx="160" cy="48" r="4" fill="white"/>
<circle cx="160" cy="56" r="4" fill="white"/>
<circle cx="160" cy="208" r="4" fill="white"/>
<circle cx="160" cy="216" r="4" fill="white"/>
<circle cx="168" cy="40" r="4" fill="white"/>
<circle cx="168" cy="48" r="4" fill="white"/>
<circle cx="168" cy="192" r="4" fill="white"/>
<circle cx="168" cy="200" r="4" fill="white"/>
<circle cx="176" cy="40" r="4" fill="white"/>
<circle cx="176" cy="184" r="4" fill="white"/>
<circle cx="176" cy="192" r="4" fill="white"/>
<circle cx="184" cy="40" r="4" fill="white"/>
<circle cx="184" cy="176" r="4" fill="white"/>
<circle cx="184" cy="184" r="4" fill="white"/>
<circle cx="192" cy="40" r="4" fill="white"/>
<circle cx="192" cy="160" r="4" fill="white"/>
<circle cx="192" cy="168" r="4" fill="white"/>
<circle cx="200" cy="40" r="4" fill="white"/>
<circle cx="200" cy="152" r="4" fill="white"/>
<circle cx="200" cy="160" r="4" fill="white"/>
<circle cx="208" cy="40" r="4" fill="white"/>
<circle cx="208" cy="136" r="4" fill="white"/>
<circle cx="208" cy="144" r="4" fill="white"/>
<circle cx="216" cy="48" r="4" fill="white"/>
<circle cx="216" cy="128" r="4" fill="white"/>
<circle cx="224" cy="56" r="4" fill="white"/>
<circle cx="224" cy="64" r="4" fill="white"/>
<circle cx="224" cy="112" r="4" fill="white"/>
<circle cx="224" cy="120" r="4" fill="white"/>
<circle cx="232" cy="72" r="4" fill="white"/>
<circle cx="232" cy="80" r="4" fill="white"/>
<circle cx="232" cy="88" r="4" fill="white"/>
<circle cx="232" cy="96" r="4" fill="white"/>
<circle cx="232" cy="104" r="4" fill="white"/>
</svg>