<svg width="256" height="256" viewBox="0 0 256 256" fill="none" xmlns="http://www.w3.org/2000/svg">
<circle cx="16" cy="96" r="4" fill="white"/>
<circle cx="16" cy="104" r="4" fill="white"/>
<circle cx="16" cy="160" r="4" fill="white"/>
<circle cx="24" cy="88" r="4" fill="white"/>
<circle cx="24" cy="96" r="4" fill="white"/>
<circle cx="24" cy="104" r="4" fill="white"/>
<circle cx="24" cy="112" r="4" fill="white"/>
<circle cx="24" cy="144" r="4" fill="white"/>
<circle cx="24" cy="152" r="4" fill="white"/>
<circle cx="24" cy="160" r="4" fill="white"/>
<circle cx="24" cy="168" r="4" fill="white"/>
<circle cx="24" cy="176" r="4" fill="white"/>
<circle cx="32" cy="80" r="4" fill="white"/>
<circle cx="32" cy="88" r="4" fill="white"/>
<circle cx="32" cy="96" r="4" fill="white"/>
<circle cx="32" cy="104" r="4" fill="white"/>
<circle cx="32" cy="112" r="4" fill="white"/>
<circle cx="32" cy="120" r="4" fill="white"/>
<circle cx="32" cy="144" r="4" fill="white"/>
<circle cx="32" cy="152" r="4" fill="white"/>
<circle cx="32" cy="160" r="4" fill="white"/>
<circle cx="32" cy="168" r="4" fill="white"/>
<circle cx="32" cy="176" r="4" fill="white"/>
<circle cx="40" cy="80" r="4" fill="white"/>
<circle cx="40" cy="88" r="4" fill="white"/>
<circle cx="40" cy="96" r="4" fill="white"/>
<circle cx="40" cy="104" r="4" fill="white"/>
<circle cx="40" cy="112" r="4" fill="white"/>
<circle cx="40" cy="120" r="4" fill="white"/>
<circle cx="40" cy="144" r="4" fill="white"/>
<circle cx="40" cy="152" r="4" fill="white"/>
<circle cx="40" cy="160" r="4" fill="white"/>
<circle cx="40" cy="168" r="4" fill="white"/>
<circle cx="40" cy="176" r="4" fill="white"/>
<circle cx="40" cy="184" r="4" fill="white"/>
<circle cx="48" cy="80" r="4" fill="white"/>
<circle cx="48" cy="88" r="4" fill="white"/>
<circle cx="48" cy="96" r="4" fill="white"/>
<circle cx="48" cy="104" r="4" fill="white"/>
<circle cx="48" cy="112" r="4" fill="white"/>
<circle cx="48" cy="120" r="4" fill="white"/>
<circle cx="48" cy="144" r="4" fill="white"/>
<circle cx="48" cy="152" r="4" fill="white"/>
<circle cx="48" cy="160" r="4" fill="white"/>
<circle cx="48" cy="168" r="4" fill="white"/>
<circle cx="48" cy="176" r="4" fill="white"/>
<circle cx="56" cy="80" r="4" fill="white"/>
<circle cx="56" cy="88" r="4" fill="white"/>
<circle cx="56" cy="96" r="4" fill="white"/>
<circle cx="56" cy="104" r="4" fill="white"/>
<circle cx="56" cy="112" r="4" fill="white"/>
<circle cx="56" cy="120" r="4" fill="white"/>
<circle cx="56" cy="144" r="4" fill="white"/>
<circle cx="56" cy="152" r="4" fill="white"/>
<circle cx="56" cy="160" r="4" fill="white"/>
<circle cx="56" cy="168" r="4" fill="white"/>
<circle cx="56" cy="176" r="4" fill="white"/>
<circle cx="64" cy="80" r="4" fill="white"/>
<circle cx="64" cy="88" r="4" fill="white"/>
<circle cx="64" cy="96" r="4" fill="white"/>
<circle cx="64" cy="104" r="4" fill="white"/>
<circle cx="64" cy="112" r="4" fill="white"/>
<circle cx="64" cy="120" r="4" fill="white"/>
<circle cx="72" cy="80" r="4" fill="white"/>
<circle cx="72" cy="88" r="4" fill="white"/>
<circle cx="72" cy="96" r="4" fill="white"/>
<circle cx="72" cy="104" r="4" fill="white"/>
<circle cx="72" cy="112" r="4" fill="white"/>
<circle cx="72" cy="120" r="4" fill="white"/>
<circle cx="80" cy="32" r="4" fill="white"/>
<circle cx="80" cy="40" r="4" fill="white"/>
<circle cx="80" cy="48" r="4" fill="white"/>
<circle cx="80" cy="80" r="4" fill="white"/>
<circle cx="80" cy="88" r="4" fill="white"/>
<circle cx="80" cy="96" r="4" fill="white"/>
<circle cx="80" cy="104" r="4" fill="white"/>
<circle cx="80" cy="112" r="4" fill="white"/>
<circle cx="80" cy="120" r="4" fill="white"/>
<circle cx="80" cy="152" r="4" fill="white"/>
<circle cx="80" cy="160" r="4" fill="white"/>
<circle cx="80" cy="168" r="4" fill="white"/>
<circle cx="80" cy="176" r="4" fill="white"/>
<circle cx="80" cy="184" r="4" fill="white"/>
<circle cx="80" cy="192" r="4" fill="white"/>
<circle cx="80" cy="200" r="4" fill="white"/>
<circle cx="80" cy="208" r="4" fill="white"/>
<circle cx="80" cy="216" r="4" fill="white"/>
<circle cx="80" cy="224" r="4" fill="white"/>
<circle cx="80" cy="232" r="4" fill="white"/>
<circle cx="88" cy="24" r="4" fill="white"/>
<circle cx="88" cy="32" r="4" fill="white"/>
<circle cx="88" cy="40" r="4" fill="white"/>
<circle cx="88" cy="48" r="4" fill="white"/>
<circle cx="88" cy="56" r="4" fill="white"/>
<circle cx="88" cy="80" r="4" fill="white"/>
<circle cx="88" cy="88" r="4" fill="white"/>
<circle cx="88" cy="96" r="4" fill="white"/>
<circle cx="88" cy="104" r="4" fill="white"/>
<circle cx="88" cy="112" r="4" fill="white"/>
<circle cx="88" cy="120" r="4" fill="white"/>
<circle cx="88" cy="144" r="4" fill="white"/>
<circle cx="88" cy="152" r="4" fill="white"/>
<circle cx="88" cy="160" r="4" fill="white"/>
<circle cx="88" cy="168" r="4" fill="white"/>
<circle cx="88" cy="176" r="4" fill="white"/>
<circle cx="88" cy="184" r="4" fill="white"/>
<circle cx="88" cy="192" r="4" fill="white"/>
<circle cx="88" cy="200" r="4" fill="white"/>
<circle cx="88" cy="208" r="4" fill="white"/>
<circle cx="88" cy="216" r="4" fill="white"/>
<circle cx="88" cy="224" r="4" fill="white"/>
<circle cx="88" cy="232" r="4" fill="white"/>
<circle cx="88" cy="240" r="4" fill="white"/>
<circle cx="96" cy="16" r="4" fill="white"/>
<circle cx="96" cy="24" r="4" fill="white"/>
<circle cx="96" cy="32" r="4" fill="white"/>
<circle cx="96" cy="40" r="4" fill="white"/>
<circle cx="96" cy="48" r="4" fill="white"/>
<circle cx="96" cy="56" r="4" fill="white"/>
<circle cx="96" cy="80" r="4" fill="white"/>
<circle cx="96" cy="88" r="4" fill="white"/>
<circle cx="96" cy="96" r="4" fill="white"/>
<circle cx="96" cy="104" r="4" fill="white"/>
<circle cx="96" cy="112" r="4" fill="white"/>
<circle cx="96" cy="120" r="4" fill="white"/>
<circle cx="96" cy="144" r="4" fill="white"/>
<circle cx="96" cy="152" r="4" fill="white"/>
<circle cx="96" cy="160" r="4" fill="white"/>
<circle cx="96" cy="168" r="4" fill="white"/>
<circle cx="96" cy="176" r="4" fill="white"/>
<circle cx="96" cy="184" r="4" fill="white"/>
<circle cx="96" cy="192" r="4" fill="white"/>
<circle cx="96" cy="200" r="4" fill="white"/>
<circle cx="96" cy="208" r="4" fill="white"/>
<circle cx="96" cy="216" r="4" fill="white"/>
<circle cx="96" cy="224" r="4" fill="white"/>
<circle cx="96" cy="232" r="4" fill="white"/>
<circle cx="96" cy="240" r="4" fill="white"/>
<circle cx="104" cy="16" r="4" fill="white"/>
<circle cx="104" cy="24" r="4" fill="white"/>
<circle cx="104" cy="32" r="4" fill="white"/>
<circle cx="104" cy="40" r="4" fill="white"/>
<circle cx="104" cy="48" r="4" fill="white"/>
<circle cx="104" cy="56" r="4" fill="white"/>
<circle cx="104" cy="80" r="4" fill="white"/>
<circle cx="104" cy="88" r="4" fill="white"/>
<circle cx="104" cy="96" r="4" fill="white"/>
<circle cx="104" cy="104" r="4" fill="white"/>
<circle cx="104" cy="112" r="4" fill="white"/>
<circle cx="104" cy="120" r="4" fill="white"/>
<circle cx="104" cy="144" r="4" fill="white"/>
<circle cx="104" cy="152" r="4" fill="white"/>
<circle cx="104" cy="160" r="4" fill="white"/>
<circle cx="104" cy="168" r="4" fill="white"/>
<circle cx="104" cy="176" r="4" fill="white"/>
<circle cx="104" cy="184" r="4" fill="white"/>
<circle cx="104" cy="192" r="4" fill="white"/>
<circle cx="104" cy="200" r="4" fill="white"/>
<circle cx="104" cy="208" r="4" fill="white"/>
<circle cx="104" cy="216" r="4" fill="white"/>
<circle cx="104" cy="224" r="4" fill="white"/>
<circle cx="104" cy="232" r="4" fill="white"/>
<circle cx="104" cy="240" r="4" fill="white"/>
<circle cx="112" cy="24" r="4" fill="white"/>
<circle cx="112" cy="32" r="4" fill="white"/>
<circle cx="112" cy="40" r="4" fill="white"/>
<circle cx="112" cy="48" r="4" fill="white"/>
<circle cx="112" cy="56" r="4" fill="white"/>
<circle cx="112" cy="80" r="4" fill="white"/>
<circle cx="112" cy="88" r="4" fill="white"/>
<circle cx="112" cy="96" r="4" fill="white"/>
<circle cx="112" cy="104" r="4" fill="white"/>
<circle cx="112" cy="112" r="4" fill="white"/>
<circle cx="112" cy="120" r="4" fill="white"/>
<circle cx="112" cy="144" r="4" fill="white"/>
<circle cx="112" cy="152" r="4" fill="white"/>
<circle cx="112" cy="160" r="4" fill="white"/>
<circle cx="112" cy="168" r="4" fill="white"/>
<circle cx="112" cy="176" r="4" fill="white"/>
<circle cx="112" cy="184" r="4" fill="white"/>
<circle cx="112" cy="192" r="4" fill="white"/>
<circle cx="112" cy="200" r="4" fill="white"/>
<circle cx="112" cy="208" r="4" fill="white"/>
<circle cx="112" cy="216" r="4" fill="white"/>
<circle cx="112" cy="224" r="4" fill="white"/>
<circle cx="112" cy="232" r="4" fill="white"/>
<circle cx="112" cy="240" r="4" fill="white"/>
<circle cx="120" cy="32" r="4" fill="white"/>
<circle cx="120" cy="40" r="4" fill="white"/>
<circle cx="120" cy="48" r="4" fill="white"/>
<circle cx="120" cy="56" r="4" fill="white"/>
<circle cx="120" cy="88" r="4" fill="white"/>
<circle cx="120" cy="96" r="4" fill="white"/>
<circle cx="120" cy="104" r="4" fill="white"/>
<circle cx="120" cy="112" r="4" fill="white"/>
<circle cx="120" cy="152" r="4" fill="white"/>
<circle cx="120" cy="160" r="4" fill="white"/>
<circle cx="120" cy="168" r="4" fill="white"/>
<circle cx="120" cy="176" r="4" fill="white"/>
<circle cx="120" cy="184" r="4" fill="white"/>
<circle cx="120" cy="192" r="4" fill="white"/>
<circle cx="120" cy="200" r="4" fill="white"/>
<circle cx="120" cy="208" r="4" fill="white"/>
<circle cx="120" cy="216" r="4" fill="white"/>
<circle cx="120" cy="224" r="4" fill="white"/>
<circle cx="120" cy="232" r="4" fill="white"/>
<circle cx="144" cy="24" r="4" fill="white"/>
<circle cx="144" cy="32" r="4" fill="white"/>
<circle cx="144" cy="40" r="4" fill="white"/>
<circle cx="144" cy="48" r="4" fill="white"/>
<circle cx="144" cy="56" r="4" fill="white"/>
<circle cx="144" cy="64" r="4" fill="white"/>
<circle cx="144" cy="72" r="4" fill="white"/>
<circle cx="144" cy="80" r="4" fill="white"/>
<circle cx="144" cy="88" r="4" fill="white"/>
<circle cx="144" cy="96" r="4" fill="white"/>
<circle cx="144" cy="104" r="4" fill="white"/>
<circle cx="144" cy="112" r="4" fill="white"/>
<circle cx="144" cy="144" r="4" fill="white"/>
<circle cx="144" cy="152" r="4" fill="white"/>
<circle cx="144" cy="160" r="4" fill="white"/>
<circle cx="144" cy="168" r="4" fill="white"/>
<circle cx="144" cy="176" r="4" fill="white"/>
<circle cx="144" cy="200" r="4" fill="white"/>
<circle cx="144" cy="208" r="4" fill="white"/>
<circle cx="144" cy="216" r="4" fill="white"/>
<circle cx="144" cy="224" r="4" fill="white"/>
<circle cx="144" cy="232" r="4" fill="white"/>
<circle cx="152" cy="24" r="4" fill="white"/>
<circle cx="152" cy="32" r="4" fill="white"/>
<circle cx="152" cy="40" r="4" fill="white"/>
<circle cx="152" cy="48" r="4" fill="white"/>
<circle cx="152" cy="56" r="4" fill="white"/>
<circle cx="152" cy="64" r="4" fill="white"/>
<circle cx="152" cy="72" r="4" fill="white"/>
<circle cx="152" cy="80" r="4" fill="white"/>
<circle cx="152" cy="88" r="4" fill="white"/>
<circle cx="152" cy="96" r="4" fill="white"/>
<circle cx="152" cy="104" r="4" fill="white"/>
<circle cx="152" cy="112" r="4" fill="white"/>
<circle cx="152" cy="120" r="4" fill="white"/>
<circle cx="152" cy="144" r="4" fill="white"/>
<circle cx="152" cy="152" r="4" fill="white"/>
<circle cx="152" cy="160" r="4" fill="white"/>
<circle cx="152" cy="168" r="4" fill="white"/>
<circle cx="152" cy="176" r="4" fill="white"/>
<circle cx="152" cy="200" r="4" fill="white"/>
<circle cx="152" cy="208" r="4" fill="white"/>
<circle cx="152" cy="216" r="4" fill="white"/>
<circle cx="152" cy="224" r="4" fill="white"/>
<circle cx="152" cy="232" r="4" fill="white"/>
<circle cx="152" cy="240" r="4" fill="white"/>
<circle cx="160" cy="16" r="4" fill="white"/>
<circle cx="160" cy="24" r="4" fill="white"/>
<circle cx="160" cy="32" r="4" fill="white"/>
<circle cx="160" cy="40" r="4" fill="white"/>
<circle cx="160" cy="48" r="4" fill="white"/>
<circle cx="160" cy="56" r="4" fill="white"/>
<circle cx="160" cy="64" r="4" fill="white"/>
<circle cx="160" cy="72" r="4" fill="white"/>
<circle cx="160" cy="80" r="4" fill="white"/>
<circle cx="160" cy="88" r="4" fill="white"/>
<circle cx="160" cy="96" r="4" fill="white"/>
<circle cx="160" cy="104" r="4" fill="white"/>
<circle cx="160" cy="112" r="4" fill="white"/>
<circle cx="160" cy="120" r="4" fill="white"/>
<circle cx="160" cy="144" r="4" fill="white"/>
<circle cx="160" cy="152" r="4" fill="white"/>
<circle cx="160" cy="160" r="4" fill="white"/>
<circle cx="160" cy="168" r="4" fill="white"/>
<circle cx="160" cy="176" r="4" fill="white"/>
<circle cx="160" cy="184" r="4" fill="white"/>
<circle cx="160" cy="200" r="4" fill="white"/>
<circle cx="160" cy="208" r="4" fill="white"/>
<circle cx="160" cy="216" r="4" fill="white"/>
<circle cx="160" cy="224" r="4" fill="white"/>
<circle cx="160" cy="232" r="4" fill="white"/>
<circle cx="160" cy="240" r="4" fill="white"/>
<circle cx="168" cy="24" r="4" fill="white"/>
<circle cx="168" cy="32" r="4" fill="white"/>
<circle cx="168" cy="40" r="4" fill="white"/>
<circle cx="168" cy="48" r="4" fill="white"/>
<circle cx="168" cy="56" r="4" fill="white"/>
<circle cx="168" cy="64" r="4" fill="white"/>
<circle cx="168" cy="72" r="4" fill="white"/>
<circle cx="168" cy="80" r="4" fill="white"/>
<circle cx="168" cy="88" r="4" fill="white"/>
<circle cx="168" cy="96" r="4" fill="white"/>
<circle cx="168" cy="104" r="4" fill="white"/>
<circle cx="168" cy="112" r="4" fill="white"/>
<circle cx="168" cy="120" r="4" fill="white"/>
<circle cx="168" cy="144" r="4" fill="white"/>
<circle cx="168" cy="152" r="4" fill="white"/>
<circle cx="168" cy="160" r="4" fill="white"/>
<circle cx="168" cy="168" r="4" fill="white"/>
<circle cx="168" cy="176" r="4" fill="white"/>
<circle cx="168" cy="184" r="4" fill="white"/>
<circle cx="168" cy="200" r="4" fill="white"/>
<circle cx="168" cy="208" r="4" fill="white"/>
<circle cx="168" cy="216" r="4" fill="white"/>
<circle cx="168" cy="224" r="4" fill="white"/>
<circle cx="168" cy="232" r="4" fill="white"/>
<circle cx="168" cy="240" r="4" fill="white"/>
<circle cx="176" cy="24" r="4" fill="white"/>
<circle cx="176" cy="32" r="4" fill="white"/>
<circle cx="176" cy="40" r="4" fill="white"/>
<circle cx="176" cy="48" r="4" fill="white"/>
<circle cx="176" cy="56" r="4" fill="white"/>
<circle cx="176" cy="64" r="4" fill="white"/>
<circle cx="176" cy="72" r="4" fill="white"/>
<circle cx="176" cy="80" r="4" fill="white"/>
<circle cx="176" cy="88" r="4" fill="white"/>
<circle cx="176" cy="96" r="4" fill="white"/>
<circle cx="176" cy="104" r="4" fill="white"/>
<circle cx="176" cy="112" r="4" fill="white"/>
<circle cx="176" cy="144" r="4" fill="white"/>
<circle cx="176" cy="152" r="4" fill="white"/>
<circle cx="176" cy="160" r="4" fill="white"/>
<circle cx="176" cy="168" r="4" fill="white"/>
<circle cx="176" cy="176" r="4" fill="white"/>
<circle cx="176" cy="184" r="4" fill="white"/>
<circle cx="176" cy="208" r="4" fill="white"/>
<circle cx="176" cy="216" r="4" fill="white"/>
<circle cx="176" cy="224" r="4" fill="white"/>
<circle cx="176" cy="232" r="4" fill="white"/>
<circle cx="184" cy="40" r="4" fill="white"/>
<circle cx="184" cy="48" r="4" fill="white"/>
<circle cx="184" cy="56" r="4" fill="white"/>
<circle cx="184" cy="64" r="4" fill="white"/>
<circle cx="184" cy="72" r="4" fill="white"/>
<circle cx="184" cy="80" r="4" fill="white"/>
<circle cx="184" cy="88" r="4" fill="white"/>
<circle cx="184" cy="96" r="4" fill="white"/>
<circle cx="184" cy="104" r="4" fill="white"/>
<circle cx="184" cy="144" r="4" fill="white"/>
<circle cx="184" cy="152" r="4" fill="white"/>
<circle cx="184" cy="160" r="4" fill="white"/>
<circle cx="184" cy="168" r="4" fill="white"/>
<circle cx="184" cy="176" r="4" fill="white"/>
<circle cx="184" cy="184" r="4" fill="white"/>
<circle cx="184" cy="216" r="4" fill="white"/>
<circle cx="184" cy="224" r="4" fill="white"/>
<circle cx="192" cy="144" r="4" fill="white"/>
<circle cx="192" cy="152" r="4" fill="white"/>
<circle cx="192" cy="160" r="4" fill="white"/>
<circle cx="192" cy="168" r="4" fill="white"/>
<circle cx="192" cy="176" r="4" fill="white"/>
<circle cx="192" cy="184" r="4" fill="white"/>
<circle cx="200" cy="88" r="4" fill="white"/>
<circle cx="200" cy="96" r="4" fill="white"/>
<circle cx="200" cy="104" r="4" fill="white"/>
<circle cx="200" cy="112" r="4" fill="white"/>
<circle cx="200" cy="120" r="4" fill="white"/>
<circle cx="200" cy="144" r="4" fill="white"/>
<circle cx="200" cy="152" r="4" fill="white"/>
<circle cx="200" cy="160" r="4" fill="white"/>
<circle cx="200" cy="168" r="4" fill="white"/>
<circle cx="200" cy="176" r="4" fill="white"/>
<circle cx="200" cy="184" r="4" fill="white"/>
<circle cx="208" cy="80" r="4" fill="white"/>
<circle cx="208" cy="88" r="4" fill="white"/>
<circle cx="208" cy="96" r="4" fill="white"/>
<circle cx="208" cy="104" r="4" fill="white"/>
<circle cx="208" cy="112" r="4" fill="white"/>
<circle cx="208" cy="120" r="4" fill="white"/>
<circle cx="208" cy="144" r="4" fill="white"/>
<circle cx="208" cy="152" r="4" fill="white"/>
<circle cx="208" cy="160" r="4" fill="white"/>
<circle cx="208" cy="168" r="4" fill="white"/>
<circle cx="208" cy="176" r="4" fill="white"/>
<circle cx="208" cy="184" r="4" fill="white"/>
<circle cx="216" cy="80" r="4" fill="white"/>
<circle cx="216" cy="88" r="4" fill="white"/>
<circle cx="216" cy="96" r="4" fill="white"/>
<circle cx="216" cy="104" r="4" fill="white"/>
<circle cx="216" cy="112" r="4" fill="white"/>
<circle cx="216" cy="120" r="4" fill="white"/>
<circle cx="216" cy="144" r="4" fill="white"/>
<circle cx="216" cy="152" r="4" fill="white"/>
<circle cx="216" cy="160" r="4" fill="white"/>
<circle cx="216" cy="168" r="4" fill="white"/>
<circle cx="216" cy="176" r="4" fill="white"/>
<circle cx="216" cy="184" r="4" fill="white"/>
<circle cx="224" cy="80" r="4" fill="white"/>
<circle cx="224" cy="88" r="4" fill="white"/>
<circle cx="224" cy="96" r="4" fill="white"/>
<circle cx="224" cy="104" r="4" fill="white"/>
<circle cx="224" cy="112" r="4" fill="white"/>
<circle cx="224" cy="120" r="4" fill="white"/>
<circle cx="224" cy="144" r="4" fill="white"/>
<circle cx="224" cy="152" r="4" fill="white"/>
<circle cx="224" cy="160" r="4" fill="white"/>
<circle cx="224" cy="168" r="4" fill="white"/>
<circle cx="224" cy="176" r="4" fill="white"/>
<circle cx="224" cy="184" r="4" fill="white"/>
<circle cx="232" cy="80" r="4" fill="white"/>
<circle cx="232" cy="88" r="4" fill="white"/>
<circle cx="232" cy="96" r="4" fill="white"/>
<circle cx="232" cy="104" r="4" fill="white"/>
<circle cx="232" cy="112" r="4" fill="white"/>
<circle cx="232" cy="120" r="4" fill="white"/>
<circle cx="232" cy="144" r="4" fill="white"/>
<circle cx="232" cy="152" r="4" fill="white"/>
<circle cx="232" cy="160" r="4" fill="white"/>
<circle cx="232" cy="168" r="4" fill="white"/>
<circle cx="232" cy="176" r="4" fill="white"/>
<circle cx="240" cy="88" r="4" fill="white"/>
<circle cx="240" cy="96" r="4" fill="white"/>
<circle cx="240" cy="104" r="4" fill="white"/>
<circle cx="240" cy="112" r="4" fill="white"/>
<circle cx="240" cy="152" r="4" fill="white"/>
<circle cx="240" cy="160" r="4" fill="white"/>
<circle cx="240" cy="168" r="4" fill="white"/>
</svg>