<svg width="256" height="256" viewBox="0 0 256 256" fill="none" xmlns="http://www.w3.org/2000/svg">
<circle cx="16" cy="96" r="4" fill="white"/>
<circle cx="16" cy="104" r="4" fill="white"/>
<circle cx="16" cy="112" r="4" fill="white"/>
<circle cx="16" cy="120" r="4" fill="white"/>
<circle cx="16" cy="128" r="4" fill="white"/>
<circle cx="16" cy="136" r="4" fill="white"/>
<circle cx="16" cy="144" r="4" fill="white"/>
<circle cx="16" cy="152" r="4" fill="white"/>
<circle cx="16" cy="160" r="4" fill="white"/>
<circle cx="16" cy="168" r="4" fill="white"/>
<circle cx="16" cy="176" r="4" fill="white"/>
<circle cx="24" cy="80" r="4" fill="white"/>
<circle cx="24" cy="88" r="4" fill="white"/>
<circle cx="24" cy="96" r="4" fill="white"/>
<circle cx="24" cy="104" r="4" fill="white"/>
<circle cx="24" cy="112" r="4" fill="white"/>
<circle cx="24" cy="120" r="4" fill="white"/>
<circle cx="24" cy="128" r="4" fill="white"/>
<circle cx="24" cy="136" r="4" fill="white"/>
<circle cx="24" cy="144" r="4" fill="white"/>
<circle cx="24" cy="152" r="4" fill="white"/>
<circle cx="24" cy="160" r="4" fill="white"/>
<circle cx="24" cy="168" r="4" fill="white"/>
<circle cx="24" cy="176" r="4" fill="white"/>
<circle cx="24" cy="184" r="4" fill="white"/>
<circle cx="24" cy="192" r="4" fill="white"/>
<circle cx="32" cy="64" r="4" fill="white"/>
<circle cx="32" cy="96" r="4" fill="white"/>
<circle cx="32" cy="104" r="4" fill="white"/>
<circle cx="32" cy="112" r="4" fill="white"/>
<circle cx="32" cy="120" r="4" fill="white"/>
<circle cx="32" cy="128" r="4" fill="white"/>
<circle cx="32" cy="136" r="4" fill="white"/>
<circle cx="32" cy="144" r="4" fill="white"/>
<circle cx="32" cy="152" r="4" fill="white"/>
<circle cx="32" cy="160" r="4" fill="white"/>
<circle cx="32" cy="168" r="4" fill="white"/>
<circle cx="32" cy="176" r="4" fill="white"/>
<circle cx="32" cy="184" r="4" fill="white"/>
<circle cx="32" cy="192" r="4" fill="white"/>
<circle cx="32" cy="200" r="4" fill="white"/>
<circle cx="32" cy="208" r="4" fill="white"/>
<circle cx="40" cy="56" r="4" fill="white"/>
<circle cx="40" cy="64" r="4" fill="white"/>
<circle cx="40" cy="72" r="4" fill="white"/>
<circle cx="40" cy="80" r="4" fill="white"/>
<circle cx="40" cy="104" r="4" fill="white"/>
<circle cx="40" cy="112" r="4" fill="white"/>
<circle cx="40" cy="120" r="4" fill="white"/>
<circle cx="40" cy="128" r="4" fill="white"/>
<circle cx="40" cy="136" r="4" fill="white"/>
<circle cx="40" cy="144" r="4" fill="white"/>
<circle cx="40" cy="152" r="4" fill="white"/>
<circle cx="40" cy="160" r="4" fill="white"/>
<circle cx="40" cy="168" r="4" fill="white"/>
<circle cx="40" cy="176" r="4" fill="white"/>
<circle cx="40" cy="184" r="4" fill="white"/>
<circle cx="40" cy="192" r="4" fill="white"/>
<circle cx="40" cy="200" r="4" fill="white"/>
<circle cx="40" cy="208" r="4" fill="white"/>
<circle cx="40" cy="216" r="4" fill="white"/>
<circle cx="48" cy="48" r="4" fill="white"/>
<circle cx="48" cy="56" r="4" fill="white"/>
<circle cx="48" cy="64" r="4" fill="white"/>
<circle cx="48" cy="72" r="4" fill="white"/>
<circle cx="48" cy="80" r="4" fill="white"/>
<circle cx="48" cy="88" r="4" fill="white"/>
<circle cx="48" cy="96" r="4" fill="white"/>
<circle cx="48" cy="112" r="4" fill="white"/>
<circle cx="48" cy="120" r="4" fill="white"/>
<circle cx="48" cy="128" r="4" fill="white"/>
<circle cx="48" cy="136" r="4" fill="white"/>
<circle cx="48" cy="144" r="4" fill="white"/>
<circle cx="48" cy="152" r="4" fill="white"/>
<circle cx="48" cy="160" r="4" fill="white"/>
<circle cx="48" cy="168" r="4" fill="white"/>
<circle cx="48" cy="176" r="4" fill="white"/>
<circle cx="48" cy="184" r="4" fill="white"/>
<circle cx="48" cy="192" r="4" fill="white"/>
<circle cx="48" cy="200" r="4" fill="white"/>
<circle cx="48" cy="208" r="4" fill="white"/>
<circle cx="48" cy="216" r="4" fill="white"/>
<circle cx="48" cy="224" r="4" fill="white"/>
<circle cx="56" cy="40" r="4" fill="white"/>
<circle cx="56" cy="48" r="4" fill="white"/>
<circle cx="56" cy="56" r="4" fill="white"/>
<circle cx="56" cy="64" r="4" fill="white"/>
<circle cx="56" cy="72" r="4" fill="white"/>
<circle cx="56" cy="80" r="4" fill="white"/>
<circle cx="56" cy="88" r="4" fill="white"/>
<circle cx="56" cy="96" r="4" fill="white"/>
<circle cx="56" cy="104" r="4" fill="white"/>
<circle cx="56" cy="128" r="4" fill="white"/>
<circle cx="56" cy="136" r="4" fill="white"/>
<circle cx="56" cy="144" r="4" fill="white"/>
<circle cx="56" cy="152" r="4" fill="white"/>
<circle cx="56" cy="160" r="4" fill="white"/>
<circle cx="56" cy="168" r="4" fill="white"/>
<circle cx="56" cy="176" r="4" fill="white"/>
<circle cx="56" cy="184" r="4" fill="white"/>
<circle cx="56" cy="192" r="4" fill="white"/>
<circle cx="56" cy="200" r="4" fill="white"/>
<circle cx="56" cy="208" r="4" fill="white"/>
<circle cx="56" cy="216" r="4" fill="white"/>
<circle cx="56" cy="224" r="4" fill="white"/>
<circle cx="56" cy="232" r="4" fill="white"/>
<circle cx="64" cy="32" r="4" fill="white"/>
<circle cx="64" cy="40" r="4" fill="white"/>
<circle cx="64" cy="48" r="4" fill="white"/>
<circle cx="64" cy="56" r="4" fill="white"/>
<circle cx="64" cy="64" r="4" fill="white"/>
<circle cx="64" cy="72" r="4" fill="white"/>
<circle cx="64" cy="80" r="4" fill="white"/>
<circle cx="64" cy="88" r="4" fill="white"/>
<circle cx="64" cy="96" r="4" fill="white"/>
<circle cx="64" cy="104" r="4" fill="white"/>
<circle cx="64" cy="112" r="4" fill="white"/>
<circle cx="64" cy="120" r="4" fill="white"/>
<circle cx="64" cy="144" r="4" fill="white"/>
<circle cx="64" cy="152" r="4" fill="white"/>
<circle cx="64" cy="160" r="4" fill="white"/>
<circle cx="64" cy="168" r="4" fill="white"/>
<circle cx="64" cy="176" r="4" fill="white"/>
<circle cx="64" cy="184" r="4" fill="white"/>
<circle cx="64" cy="192" r="4" fill="white"/>
<circle cx="64" cy="200" r="4" fill="white"/>
<circle cx="64" cy="208" r="4" fill="white"/>
<circle cx="64" cy="216" r="4" fill="white"/>
<circle cx="64" cy="224" r="4" fill="white"/>
<circle cx="64" cy="232" r="4" fill="white"/>
<circle cx="64" cy="240" r="4" fill="white"/>
<circle cx="72" cy="32" r="4" fill="white"/>
<circle cx="72" cy="40" r="4" fill="white"/>
<circle cx="72" cy="48" r="4" fill="white"/>
<circle cx="72" cy="56" r="4" fill="white"/>
<circle cx="72" cy="64" r="4" fill="white"/>
<circle cx="72" cy="72" r="4" fill="white"/>
<circle cx="72" cy="80" r="4" fill="white"/>
<circle cx="72" cy="88" r="4" fill="white"/>
<circle cx="72" cy="96" r="4" fill="white"/>
<circle cx="72" cy="104" r="4" fill="white"/>
<circle cx="72" cy="112" r="4" fill="white"/>
<circle cx="72" cy="120" r="4" fill="white"/>
<circle cx="72" cy="128" r="4" fill="white"/>
<circle cx="72" cy="160" r="4" fill="white"/>
<circle cx="72" cy="168" r="4" fill="white"/>
<circle cx="72" cy="176" r="4" fill="white"/>
<circle cx="72" cy="184" r="4" fill="white"/>
<circle cx="72" cy="192" r="4" fill="white"/>
<circle cx="72" cy="200" r="4" fill="white"/>
<circle cx="72" cy="208" r="4" fill="white"/>
<circle cx="72" cy="216" r="4" fill="white"/>
<circle cx="72" cy="224" r="4" fill="white"/>
<circle cx="72" cy="232" r="4" fill="white"/>
<circle cx="72" cy="240" r="4" fill="white"/>
<circle cx="80" cy="24" r="4" fill="white"/>
<circle cx="80" cy="32" r="4" fill="white"/>
<circle cx="80" cy="40" r="4" fill="white"/>
<circle cx="80" cy="48" r="4" fill="white"/>
<circle cx="80" cy="56" r="4" fill="white"/>
<circle cx="80" cy="64" r="4" fill="white"/>
<circle cx="80" cy="72" r="4" fill="white"/>
<circle cx="80" cy="80" r="4" fill="white"/>
<circle cx="80" cy="88" r="4" fill="white"/>
<circle cx="80" cy="96" r="4" fill="white"/>
<circle cx="80" cy="104" r="4" fill="white"/>
<circle cx="80" cy="168" r="4" fill="white"/>
<circle cx="80" cy="176" r="4" fill="white"/>
<circle cx="80" cy="184" r="4" fill="white"/>
<circle cx="80" cy="192" r="4" fill="white"/>
<circle cx="80" cy="200" r="4" fill="white"/>
<circle cx="80" cy="208" r="4" fill="white"/>
<circle cx="80" cy="216" r="4" fill="white"/>
<circle cx="80" cy="224" r="4" fill="white"/>
<circle cx="80" cy="232" r="4" fill="white"/>
<circle cx="80" cy="240" r="4" fill="white"/>
<circle cx="80" cy="248" r="4" fill="white"/>
<circle cx="88" cy="24" r="4" fill="white"/>
<circle cx="88" cy="32" r="4" fill="white"/>
<circle cx="88" cy="40" r="4" fill="white"/>
<circle cx="88" cy="48" r="4" fill="white"/>
<circle cx="88" cy="56" r="4" fill="white"/>
<circle cx="88" cy="64" r="4" fill="white"/>
<circle cx="88" cy="72" r="4" fill="white"/>
<circle cx="88" cy="80" r="4" fill="white"/>
<circle cx="88" cy="88" r="4" fill="white"/>
<circle cx="88" cy="120" r="4" fill="white"/>
<circle cx="88" cy="128" r="4" fill="white"/>
<circle cx="88" cy="136" r="4" fill="white"/>
<circle cx="88" cy="144" r="4" fill="white"/>
<circle cx="88" cy="152" r="4" fill="white"/>
<circle cx="88" cy="184" r="4" fill="white"/>
<circle cx="88" cy="192" r="4" fill="white"/>
<circle cx="88" cy="200" r="4" fill="white"/>
<circle cx="88" cy="208" r="4" fill="white"/>
<circle cx="88" cy="216" r="4" fill="white"/>
<circle cx="88" cy="224" r="4" fill="white"/>
<circle cx="88" cy="232" r="4" fill="white"/>
<circle cx="88" cy="240" r="4" fill="white"/>
<circle cx="88" cy="248" r="4" fill="white"/>
<circle cx="96" cy="16" r="4" fill="white"/>
<circle cx="96" cy="24" r="4" fill="white"/>
<circle cx="96" cy="32" r="4" fill="white"/>
<circle cx="96" cy="40" r="4" fill="white"/>
<circle cx="96" cy="48" r="4" fill="white"/>
<circle cx="96" cy="56" r="4" fill="white"/>
<circle cx="96" cy="64" r="4" fill="white"/>
<circle cx="96" cy="72" r="4" fill="white"/>
<circle cx="96" cy="80" r="4" fill="white"/>
<circle cx="96" cy="112" r="4" fill="white"/>
<circle cx="96" cy="120" r="4" fill="white"/>
<circle cx="96" cy="128" r="4" fill="white"/>
<circle cx="96" cy="136" r="4" fill="white"/>
<circle cx="96" cy="144" r="4" fill="white"/>
<circle cx="96" cy="152" r="4" fill="white"/>
<circle cx="96" cy="160" r="4" fill="white"/>
<circle cx="96" cy="192" r="4" fill="white"/>
<circle cx="96" cy="200" r="4" fill="white"/>
<circle cx="96" cy="208" r="4" fill="white"/>
<circle cx="96" cy="216" r="4" fill="white"/>
<circle cx="96" cy="224" r="4" fill="white"/>
<circle cx="96" cy="232" r="4" fill="white"/>
<circle cx="96" cy="240" r="4" fill="white"/>
<circle cx="96" cy="248" r="4" fill="white"/>
<circle cx="96" cy="256" r="4" fill="white"/>
<circle cx="104" cy="16" r="4" fill="white"/>
<circle cx="104" cy="24" r="4" fill="white"/>
<circle cx="104" cy="32" r="4" fill="white"/>
<circle cx="104" cy="40" r="4" fill="white"/>
<circle cx="104" cy="48" r="4" fill="white"/>
<circle cx="104" cy="56" r="4" fill="white"/>
<circle cx="104" cy="64" r="4" fill="white"/>
<circle cx="104" cy="72" r="4" fill="white"/>
<circle cx="104" cy="80" r="4" fill="white"/>
<circle cx="104" cy="104" r="4" fill="white"/>
<circle cx="104" cy="112" r="4" fill="white"/>
<circle cx="104" cy="120" r="4" fill="white"/>
<circle cx="104" cy="128" r="4" fill="white"/>
<circle cx="104" cy="136" r="4" fill="white"/>
<circle cx="104" cy="144" r="4" fill="white"/>
<circle cx="104" cy="152" r="4" fill="white"/>
<circle cx="104" cy="160" r="4" fill="white"/>
<circle cx="104" cy="168" r="4" fill="white"/>
<circle cx="104" cy="192" r="4" fill="white"/>
<circle cx="104" cy="200" r="4" fill="white"/>
<circle cx="104" cy="208" r="4" fill="white"/>
<circle cx="104" cy="216" r="4" fill="white"/>
<circle cx="104" cy="224" r="4" fill="white"/>
<circle cx="104" cy="232" r="4" fill="white"/>
<circle cx="104" cy="240" r="4" fill="white"/>
<circle cx="104" cy="248" r="4" fill="white"/>
<circle cx="104" cy="256" r="4" fill="white"/>
<circle cx="112" cy="16" r="4" fill="white"/>
<circle cx="112" cy="24" r="4" fill="white"/>
<circle cx="112" cy="32" r="4" fill="white"/>
<circle cx="112" cy="40" r="4" fill="white"/>
<circle cx="112" cy="48" r="4" fill="white"/>
<circle cx="112" cy="56" r="4" fill="white"/>
<circle cx="112" cy="64" r="4" fill="white"/>
<circle cx="112" cy="72" r="4" fill="white"/>
<circle cx="112" cy="96" r="4" fill="white"/>
<circle cx="112" cy="104" r="4" fill="white"/>
<circle cx="112" cy="112" r="4" fill="white"/>
<circle cx="112" cy="120" r="4" fill="white"/>
<circle cx="112" cy="128" r="4" fill="white"/>
<circle cx="112" cy="136" r="4" fill="white"/>
<circle cx="112" cy="144" r="4" fill="white"/>
<circle cx="112" cy="152" r="4" fill="white"/>
<circle cx="112" cy="160" r="4" fill="white"/>
<circle cx="112" cy="168" r="4" fill="white"/>
<circle cx="112" cy="176" r="4" fill="white"/>
<circle cx="112" cy="200" r="4" fill="white"/>
<circle cx="112" cy="208" r="4" fill="white"/>
<circle cx="112" cy="216" r="4" fill="white"/>
<circle cx="112" cy="224" r="4" fill="white"/>
<circle cx="112" cy="232" r="4" fill="white"/>
<circle cx="112" cy="240" r="4" fill="white"/>
<circle cx="112" cy="248" r="4" fill="white"/>
<circle cx="112" cy="256" r="4" fill="white"/>
<circle cx="120" cy="16" r="4" fill="white"/>
<circle cx="120" cy="24" r="4" fill="white"/>
<circle cx="120" cy="32" r="4" fill="white"/>
<circle cx="120" cy="40" r="4" fill="white"/>
<circle cx="120" cy="48" r="4" fill="white"/>
<circle cx="120" cy="56" r="4" fill="white"/>
<circle cx="120" cy="64" r="4" fill="white"/>
<circle cx="120" cy="72" r="4" fill="white"/>
<circle cx="120" cy="88" r="4" fill="white"/>
<circle cx="120" cy="96" r="4" fill="white"/>
<circle cx="120" cy="104" r="4" fill="white"/>
<circle cx="120" cy="112" r="4" fill="white"/>
<circle cx="120" cy="120" r="4" fill="white"/>
<circle cx="120" cy="128" r="4" fill="white"/>
<circle cx="120" cy="136" r="4" fill="white"/>
<circle cx="120" cy="144" r="4" fill="white"/>
<circle cx="120" cy="152" r="4" fill="white"/>
<circle cx="120" cy="160" r="4" fill="white"/>
<circle cx="120" cy="168" r="4" fill="white"/>
<circle cx="120" cy="176" r="4" fill="white"/>
<circle cx="120" cy="200" r="4" fill="white"/>
<circle cx="120" cy="208" r="4" fill="white"/>
<circle cx="120" cy="216" r="4" fill="white"/>
<circle cx="120" cy="224" r="4" fill="white"/>
<circle cx="120" cy="232" r="4" fill="white"/>
<circle cx="120" cy="240" r="4" fill="white"/>
<circle cx="120" cy="248" r="4" fill="white"/>
<circle cx="120" cy="256" r="4" fill="white"/>
<circle cx="128" cy="16" r="4" fill="white"/>
<circle cx="128" cy="24" r="4" fill="white"/>
<circle cx="128" cy="32" r="4" fill="white"/>
<circle cx="128" cy="40" r="4" fill="white"/>
<circle cx="128" cy="48" r="4" fill="white"/>
<circle cx="128" cy="56" r="4" fill="white"/>
<circle cx="128" cy="64" r="4" fill="white"/>
<circle cx="128" cy="72" r="4" fill="white"/>
<circle cx="128" cy="88" r="4" fill="white"/>
<circle cx="128" cy="96" r="4" fill="white"/>
<circle cx="128" cy="104" r="4" fill="white"/>
<circle cx="128" cy="112" r="4" fill="white"/>
<circle cx="128" cy="120" r="4" fill="white"/>
<circle cx="128" cy="128" r="4" fill="white"/>
<circle cx="128" cy="136" r="4" fill="white"/>
<circle cx="128" cy="144" r="4" fill="white"/>
<circle cx="128" cy="152" r="4" fill="white"/>
<circle cx="128" cy="160" r="4" fill="white"/>
<circle cx="128" cy="168" r="4" fill="white"/>
<circle cx="128" cy="176" r="4" fill="white"/>
<circle cx="128" cy="184" r="4" fill="white"/>
<circle cx="128" cy="200" r="4" fill="white"/>
<circle cx="128" cy="208" r="4" fill="white"/>
<circle cx="128" cy="216" r="4" fill="white"/>
<circle cx="128" cy="224" r="4" fill="white"/>
<circle cx="128" cy="232" r="4" fill="white"/>
<circle cx="128" cy="240" r="4" fill="white"/>
<circle cx="128" cy="248" r="4" fill="white"/>
<circle cx="128" cy="256" r="4" fill="white"/>
<circle cx="136" cy="16" r="4" fill="white"/>
<circle cx="136" cy="24" r="4" fill="white"/>
<circle cx="136" cy="32" r="4" fill="white"/>
<circle cx="136" cy="40" r="4" fill="white"/>
<circle cx="136" cy="48" r="4" fill="white"/>
<circle cx="136" cy="56" r="4" fill="white"/>
<circle cx="136" cy="64" r="4" fill="white"/>
<circle cx="136" cy="88" r="4" fill="white"/>
<circle cx="136" cy="96" r="4" fill="white"/>
<circle cx="136" cy="104" r="4" fill="white"/>
<circle cx="136" cy="112" r="4" fill="white"/>
<circle cx="136" cy="120" r="4" fill="white"/>
<circle cx="136" cy="128" r="4" fill="white"/>
<circle cx="136" cy="136" r="4" fill="white"/>
<circle cx="136" cy="144" r="4" fill="white"/>
<circle cx="136" cy="152" r="4" fill="white"/>
<circle cx="136" cy="160" r="4" fill="white"/>
<circle cx="136" cy="168" r="4" fill="white"/>
<circle cx="136" cy="176" r="4" fill="white"/>
<circle cx="136" cy="184" r="4" fill="white"/>
<circle cx="136" cy="200" r="4" fill="white"/>
<circle cx="136" cy="208" r="4" fill="white"/>
<circle cx="136" cy="216" r="4" fill="white"/>
<circle cx="136" cy="224" r="4" fill="white"/>
<circle cx="136" cy="232" r="4" fill="white"/>
<circle cx="136" cy="240" r="4" fill="white"/>
<circle cx="136" cy="248" r="4" fill="white"/>
<circle cx="136" cy="256" r="4" fill="white"/>
<circle cx="144" cy="16" r="4" fill="white"/>
<circle cx="144" cy="24" r="4" fill="white"/>
<circle cx="144" cy="32" r="4" fill="white"/>
<circle cx="144" cy="40" r="4" fill="white"/>
<circle cx="144" cy="48" r="4" fill="white"/>
<circle cx="144" cy="56" r="4" fill="white"/>
<circle cx="144" cy="64" r="4" fill="white"/>
<circle cx="144" cy="88" r="4" fill="white"/>
<circle cx="144" cy="96" r="4" fill="white"/>
<circle cx="144" cy="104" r="4" fill="white"/>
<circle cx="144" cy="112" r="4" fill="white"/>
<circle cx="144" cy="120" r="4" fill="white"/>
<circle cx="144" cy="128" r="4" fill="white"/>
<circle cx="144" cy="136" r="4" fill="white"/>
<circle cx="144" cy="144" r="4" fill="white"/>
<circle cx="144" cy="152" r="4" fill="white"/>
<circle cx="144" cy="160" r="4" fill="white"/>
<circle cx="144" cy="168" r="4" fill="white"/>
<circle cx="144" cy="176" r="4" fill="white"/>
<circle cx="144" cy="184" r="4" fill="white"/>
<circle cx="144" cy="200" r="4" fill="white"/>
<circle cx="144" cy="208" r="4" fill="white"/>
<circle cx="144" cy="216" r="4" fill="white"/>
<circle cx="144" cy="224" r="4" fill="white"/>
<circle cx="144" cy="232" r="4" fill="white"/>
<circle cx="144" cy="240" r="4" fill="white"/>
<circle cx="144" cy="248" r="4" fill="white"/>
<circle cx="152" cy="16" r="4" fill="white"/>
<circle cx="152" cy="24" r="4" fill="white"/>
<circle cx="152" cy="32" r="4" fill="white"/>
<circle cx="152" cy="40" r="4" fill="white"/>
<circle cx="152" cy="48" r="4" fill="white"/>
<circle cx="152" cy="56" r="4" fill="white"/>
<circle cx="152" cy="64" r="4" fill="white"/>
<circle cx="152" cy="88" r="4" fill="white"/>
<circle cx="152" cy="96" r="4" fill="white"/>
<circle cx="152" cy="104" r="4" fill="white"/>
<circle cx="152" cy="112" r="4" fill="white"/>
<circle cx="152" cy="120" r="4" fill="white"/>
<circle cx="152" cy="128" r="4" fill="white"/>
<circle cx="152" cy="136" r="4" fill="white"/>
<circle cx="152" cy="144" r="4" fill="white"/>
<circle cx="152" cy="152" r="4" fill="white"/>
<circle cx="152" cy="160" r="4" fill="white"/>
<circle cx="152" cy="168" r="4" fill="white"/>
<circle cx="152" cy="176" r="4" fill="white"/>
<circle cx="152" cy="200" r="4" fill="white"/>
<circle cx="152" cy="208" r="4" fill="white"/>
<circle cx="152" cy="216" r="4" fill="white"/>
<circle cx="152" cy="224" r="4" fill="white"/>
<circle cx="152" cy="232" r="4" fill="white"/>
<circle cx="152" cy="256" r="4" fill="white"/>
<circle cx="160" cy="16" r="4" fill="white"/>
<circle cx="160" cy="24" r="4" fill="white"/>
<circle cx="160" cy="32" r="4" fill="white"/>
<circle cx="160" cy="40" r="4" fill="white"/>
<circle cx="160" cy="48" r="4" fill="white"/>
<circle cx="160" cy="56" r="4" fill="white"/>
<circle cx="160" cy="64" r="4" fill="white"/>
<circle cx="160" cy="96" r="4" fill="white"/>
<circle cx="160" cy="104" r="4" fill="white"/>
<circle cx="160" cy="112" r="4" fill="white"/>
<circle cx="160" cy="120" r="4" fill="white"/>
<circle cx="160" cy="128" r="4" fill="white"/>
<circle cx="160" cy="136" r="4" fill="white"/>
<circle cx="160" cy="144" r="4" fill="white"/>
<circle cx="160" cy="152" r="4" fill="white"/>
<circle cx="160" cy="160" r="4" fill="white"/>
<circle cx="160" cy="168" r="4" fill="white"/>
<circle cx="160" cy="176" r="4" fill="white"/>
<circle cx="160" cy="200" r="4" fill="white"/>
<circle cx="160" cy="208" r="4" fill="white"/>
<circle cx="160" cy="216" r="4" fill="white"/>
<circle cx="160" cy="240" r="4" fill="white"/>
<circle cx="160" cy="248" r="4" fill="white"/>
<circle cx="160" cy="256" r="4" fill="white"/>
<circle cx="168" cy="16" r="4" fill="white"/>
<circle cx="168" cy="24" r="4" fill="white"/>
<circle cx="168" cy="32" r="4" fill="white"/>
<circle cx="168" cy="40" r="4" fill="white"/>
<circle cx="168" cy="48" r="4" fill="white"/>
<circle cx="168" cy="56" r="4" fill="white"/>
<circle cx="168" cy="64" r="4" fill="white"/>
<circle cx="168" cy="80" r="4" fill="white"/>
<circle cx="168" cy="104" r="4" fill="white"/>
<circle cx="168" cy="112" r="4" fill="white"/>
<circle cx="168" cy="120" r="4" fill="white"/>
<circle cx="168" cy="128" r="4" fill="white"/>
<circle cx="168" cy="136" r="4" fill="white"/>
<circle cx="168" cy="144" r="4" fill="white"/>
<circle cx="168" cy="152" r="4" fill="white"/>
<circle cx="168" cy="160" r="4" fill="white"/>
<circle cx="168" cy="168" r="4" fill="white"/>
<circle cx="168" cy="192" r="4" fill="white"/>
<circle cx="168" cy="200" r="4" fill="white"/>
<circle cx="168" cy="208" r="4" fill="white"/>
<circle cx="168" cy="224" r="4" fill="white"/>
<circle cx="168" cy="232" r="4" fill="white"/>
<circle cx="168" cy="240" r="4" fill="white"/>
<circle cx="168" cy="248" r="4" fill="white"/>
<circle cx="168" cy="256" r="4" fill="white"/>
<circle cx="176" cy="16" r="4" fill="white"/>
<circle cx="176" cy="24" r="4" fill="white"/>
<circle cx="176" cy="32" r="4" fill="white"/>
<circle cx="176" cy="40" r="4" fill="white"/>
<circle cx="176" cy="48" r="4" fill="white"/>
<circle cx="176" cy="56" r="4" fill="white"/>
<circle cx="176" cy="64" r="4" fill="white"/>
<circle cx="176" cy="80" r="4" fill="white"/>
<circle cx="176" cy="112" r="4" fill="white"/>
<circle cx="176" cy="120" r="4" fill="white"/>
<circle cx="176" cy="128" r="4" fill="white"/>
<circle cx="176" cy="136" r="4" fill="white"/>
<circle cx="176" cy="144" r="4" fill="white"/>
<circle cx="176" cy="152" r="4" fill="white"/>
<circle cx="176" cy="160" r="4" fill="white"/>
<circle cx="176" cy="192" r="4" fill="white"/>
<circle cx="176" cy="216" r="4" fill="white"/>
<circle cx="176" cy="224" r="4" fill="white"/>
<circle cx="176" cy="232" r="4" fill="white"/>
<circle cx="176" cy="240" r="4" fill="white"/>
<circle cx="176" cy="248" r="4" fill="white"/>
<circle cx="176" cy="256" r="4" fill="white"/>
<circle cx="184" cy="24" r="4" fill="white"/>
<circle cx="184" cy="32" r="4" fill="white"/>
<circle cx="184" cy="40" r="4" fill="white"/>
<circle cx="184" cy="48" r="4" fill="white"/>
<circle cx="184" cy="56" r="4" fill="white"/>
<circle cx="184" cy="64" r="4" fill="white"/>
<circle cx="184" cy="80" r="4" fill="white"/>
<circle cx="184" cy="88" r="4" fill="white"/>
<circle cx="184" cy="120" r="4" fill="white"/>
<circle cx="184" cy="128" r="4" fill="white"/>
<circle cx="184" cy="136" r="4" fill="white"/>
<circle cx="184" cy="144" r="4" fill="white"/>
<circle cx="184" cy="200" r="4" fill="white"/>
<circle cx="184" cy="208" r="4" fill="white"/>
<circle cx="184" cy="216" r="4" fill="white"/>
<circle cx="184" cy="224" r="4" fill="white"/>
<circle cx="184" cy="232" r="4" fill="white"/>
<circle cx="184" cy="240" r="4" fill="white"/>
<circle cx="184" cy="248" r="4" fill="white"/>
<circle cx="192" cy="24" r="4" fill="white"/>
<circle cx="192" cy="32" r="4" fill="white"/>
<circle cx="192" cy="40" r="4" fill="white"/>
<circle cx="192" cy="48" r="4" fill="white"/>
<circle cx="192" cy="56" r="4" fill="white"/>
<circle cx="192" cy="64" r="4" fill="white"/>
<circle cx="192" cy="80" r="4" fill="white"/>
<circle cx="192" cy="88" r="4" fill="white"/>
<circle cx="192" cy="96" r="4" fill="white"/>
<circle cx="192" cy="104" r="4" fill="white"/>
<circle cx="192" cy="168" r="4" fill="white"/>
<circle cx="192" cy="176" r="4" fill="white"/>
<circle cx="192" cy="184" r="4" fill="white"/>
<circle cx="192" cy="192" r="4" fill="white"/>
<circle cx="192" cy="200" r="4" fill="white"/>
<circle cx="192" cy="208" r="4" fill="white"/>
<circle cx="192" cy="216" r="4" fill="white"/>
<circle cx="192" cy="224" r="4" fill="white"/>
<circle cx="192" cy="232" r="4" fill="white"/>
<circle cx="192" cy="240" r="4" fill="white"/>
<circle cx="192" cy="248" r="4" fill="white"/>
<circle cx="200" cy="32" r="4" fill="white"/>
<circle cx="200" cy="40" r="4" fill="white"/>
<circle cx="200" cy="48" r="4" fill="white"/>
<circle cx="200" cy="56" r="4" fill="white"/>
<circle cx="200" cy="64" r="4" fill="white"/>
<circle cx="200" cy="80" r="4" fill="white"/>
<circle cx="200" cy="88" r="4" fill="white"/>
<circle cx="200" cy="96" r="4" fill="white"/>
<circle cx="200" cy="104" r="4" fill="white"/>
<circle cx="200" cy="112" r="4" fill="white"/>
<circle cx="200" cy="120" r="4" fill="white"/>
<circle cx="200" cy="128" r="4" fill="white"/>
<circle cx="200" cy="136" r="4" fill="white"/>
<circle cx="200" cy="144" r="4" fill="white"/>
<circle cx="200" cy="152" r="4" fill="white"/>
<circle cx="200" cy="160" r="4" fill="white"/>
<circle cx="200" cy="168" r="4" fill="white"/>
<circle cx="200" cy="176" r="4" fill="white"/>
<circle cx="200" cy="184" r="4" fill="white"/>
<circle cx="200" cy="192" r="4" fill="white"/>
<circle cx="200" cy="200" r="4" fill="white"/>
<circle cx="200" cy="208" r="4" fill="white"/>
<circle cx="200" cy="216" r="4" fill="white"/>
<circle cx="200" cy="224" r="4" fill="white"/>
<circle cx="200" cy="232" r="4" fill="white"/>
<circle cx="200" cy="240" r="4" fill="white"/>
<circle cx="208" cy="32" r="4" fill="white"/>
<circle cx="208" cy="40" r="4" fill="white"/>
<circle cx="208" cy="48" r="4" fill="white"/>
<circle cx="208" cy="56" r="4" fill="white"/>
<circle cx="208" cy="64" r="4" fill="white"/>
<circle cx="208" cy="80" r="4" fill="white"/>
<circle cx="208" cy="88" r="4" fill="white"/>
<circle cx="208" cy="96" r="4" fill="white"/>
<circle cx="208" cy="104" r="4" fill="white"/>
<circle cx="208" cy="112" r="4" fill="white"/>
<circle cx="208" cy="120" r="4" fill="white"/>
<circle cx="208" cy="128" r="4" fill="white"/>
<circle cx="208" cy="136" r="4" fill="white"/>
<circle cx="208" cy="144" r="4" fill="white"/>
<circle cx="208" cy="152" r="4" fill="white"/>
<circle cx="208" cy="160" r="4" fill="white"/>
<circle cx="208" cy="168" r="4" fill="white"/>
<circle cx="208" cy="176" r="4" fill="white"/>
<circle cx="208" cy="184" r="4" fill="white"/>
<circle cx="208" cy="192" r="4" fill="white"/>
<circle cx="208" cy="200" r="4" fill="white"/>
<circle cx="208" cy="208" r="4" fill="white"/>
<circle cx="208" cy="216" r="4" fill="white"/>
<circle cx="208" cy="224" r="4" fill="white"/>
<circle cx="208" cy="232" r="4" fill="white"/>
<circle cx="208" cy="240" r="4" fill="white"/>
<circle cx="216" cy="40" r="4" fill="white"/>
<circle cx="216" cy="48" r="4" fill="white"/>
<circle cx="216" cy="56" r="4" fill="white"/>
<circle cx="216" cy="64" r="4" fill="white"/>
<circle cx="216" cy="80" r="4" fill="white"/>
<circle cx="216" cy="88" r="4" fill="white"/>
<circle cx="216" cy="96" r="4" fill="white"/>
<circle cx="216" cy="104" r="4" fill="white"/>
<circle cx="216" cy="112" r="4" fill="white"/>
<circle cx="216" cy="120" r="4" fill="white"/>
<circle cx="216" cy="128" r="4" fill="white"/>
<circle cx="216" cy="136" r="4" fill="white"/>
<circle cx="216" cy="144" r="4" fill="white"/>
<circle cx="216" cy="152" r="4" fill="white"/>
<circle cx="216" cy="160" r="4" fill="white"/>
<circle cx="216" cy="168" r="4" fill="white"/>
<circle cx="216" cy="176" r="4" fill="white"/>
<circle cx="216" cy="184" r="4" fill="white"/>
<circle cx="216" cy="192" r="4" fill="white"/>
<circle cx="216" cy="200" r="4" fill="white"/>
<circle cx="216" cy="208" r="4" fill="white"/>
<circle cx="216" cy="216" r="4" fill="white"/>
<circle cx="216" cy="224" r="4" fill="white"/>
<circle cx="216" cy="232" r="4" fill="white"/>
<circle cx="224" cy="48" r="4" fill="white"/>
<circle cx="224" cy="56" r="4" fill="white"/>
<circle cx="224" cy="64" r="4" fill="white"/>
<circle cx="224" cy="80" r="4" fill="white"/>
<circle cx="224" cy="88" r="4" fill="white"/>
<circle cx="224" cy="96" r="4" fill="white"/>
<circle cx="224" cy="104" r="4" fill="white"/>
<circle cx="224" cy="112" r="4" fill="white"/>
<circle cx="224" cy="120" r="4" fill="white"/>
<circle cx="224" cy="128" r="4" fill="white"/>
<circle cx="224" cy="136" r="4" fill="white"/>
<circle cx="224" cy="144" r="4" fill="white"/>
<circle cx="224" cy="152" r="4" fill="white"/>
<circle cx="224" cy="160" r="4" fill="white"/>
<circle cx="224" cy="168" r="4" fill="white"/>
<circle cx="224" cy="176" r="4" fill="white"/>
<circle cx="224" cy="184" r="4" fill="white"/>
<circle cx="224" cy="192" r="4" fill="white"/>
<circle cx="224" cy="200" r="4" fill="white"/>
<circle cx="224" cy="208" r="4" fill="white"/>
<circle cx="224" cy="216" r="4" fill="white"/>
<circle cx="224" cy="224" r="4" fill="white"/>
<circle cx="232" cy="56" r="4" fill="white"/>
<circle cx="232" cy="64" r="4" fill="white"/>
<circle cx="232" cy="80" r="4" fill="white"/>
<circle cx="232" cy="88" r="4" fill="white"/>
<circle cx="232" cy="96" r="4" fill="white"/>
<circle cx="232" cy="104" r="4" fill="white"/>
<circle cx="232" cy="112" r="4" fill="white"/>
<circle cx="232" cy="120" r="4" fill="white"/>
<circle cx="232" cy="128" r="4" fill="white"/>
<circle cx="232" cy="136" r="4" fill="white"/>
<circle cx="232" cy="144" r="4" fill="white"/>
<circle cx="232" cy="152" r="4" fill="white"/>
<circle cx="232" cy="160" r="4" fill="white"/>
<circle cx="232" cy="168" r="4" fill="white"/>
<circle cx="232" cy="176" r="4" fill="white"/>
<circle cx="232" cy="184" r="4" fill="white"/>
<circle cx="232" cy="192" r="4" fill="white"/>
<circle cx="232" cy="200" r="4" fill="white"/>
<circle cx="232" cy="208" r="4" fill="white"/>
<circle cx="232" cy="216" r="4" fill="white"/>
<circle cx="240" cy="64" r="4" fill="white"/>
<circle cx="240" cy="80" r="4" fill="white"/>
<circle cx="240" cy="88" r="4" fill="white"/>
<circle cx="240" cy="96" r="4" fill="white"/>
<circle cx="240" cy="104" r="4" fill="white"/>
<circle cx="240" cy="112" r="4" fill="white"/>
<circle cx="240" cy="120" r="4" fill="white"/>
<circle cx="240" cy="128" r="4" fill="white"/>
<circle cx="240" cy="136" r="4" fill="white"/>
<circle cx="240" cy="144" r="4" fill="white"/>
<circle cx="240" cy="152" r="4" fill="white"/>
<circle cx="240" cy="160" r="4" fill="white"/>
<circle cx="240" cy="168" r="4" fill="white"/>
<circle cx="240" cy="176" r="4" fill="white"/>
<circle cx="240" cy="184" r="4" fill="white"/>
<circle cx="240" cy="192" r="4" fill="white"/>
<circle cx="240" cy="200" r="4" fill="white"/>
<circle cx="240" cy="208" r="4" fill="white"/>
<circle cx="248" cy="80" r="4" fill="white"/>
<circle cx="248" cy="88" r="4" fill="white"/>
<circle cx="248" cy="96" r="4" fill="white"/>
<circle cx="248" cy="104" r="4" fill="white"/>
<circle cx="248" cy="112" r="4" fill="white"/>
<circle cx="248" cy="120" r="4" fill="white"/>
<circle cx="248" cy="128" r="4" fill="white"/>
<circle cx="248" cy="136" r="4" fill="white"/>
<circle cx="248" cy="144" r="4" fill="white"/>
<circle cx="248" cy="152" r="4" fill="white"/>
<circle cx="248" cy="160" r="4" fill="white"/>
<circle cx="248" cy="168" r="4" fill="white"/>
<circle cx="248" cy="176" r="4" fill="white"/>
<circle cx="248" cy="184" r="4" fill="white"/>
<circle cx="248" cy="192" r="4" fill="white"/>
<circle cx="256" cy="96" r="4" fill="white"/>
<circle cx="256" cy="104" r="4" fill="white"/>
<circle cx="256" cy="112" r="4" fill="white"/>
<circle cx="256" cy="120" r="4" fill="white"/>
<circle cx="256" cy="128" r="4" fill="white"/>
<circle cx="256" cy="136" r="4" fill="white"/>
<circle cx="256" cy="144" r="4" fill="white"/>
<circle cx="256" cy="152" r="4" fill="white"/>
<circle cx="256" cy="160" r="4" fill="white"/>
<circle cx="256" cy="168" r="4" fill="white"/>
<circle cx="256" cy="176" r="4" fill="white"/>
</svg>