<svg width="256" height="256" viewBox="0 0 256 256" fill="none" xmlns="http://www.w3.org/2000/svg">
<circle cx="88" cy="48" r="4" fill="white"/>
<circle cx="88" cy="56" r="4" fill="white"/>
<circle cx="88" cy="64" r="4" fill="white"/>
<circle cx="88" cy="200" r="4" fill="white"/>
<circle cx="88" cy="208" r="4" fill="white"/>
<circle cx="88" cy="216" r="4" fill="white"/>
<circle cx="96" cy="48" r="4" fill="white"/>
<circle cx="96" cy="56" r="4" fill="white"/>
<circle cx="96" cy="64" r="4" fill="white"/>
<circle cx="96" cy="72" r="4" fill="white"/>
<circle cx="96" cy="80" r="4" fill="white"/>
<circle cx="96" cy="88" r="4" fill="white"/>
<circle cx="96" cy="96" r="4" fill="white"/>
<circle cx="96" cy="104" r="4" fill="white"/>
<circle cx="96" cy="160" r="4" fill="white"/>
<circle cx="96" cy="168" r="4" fill="white"/>
<circle cx="96" cy="176" r="4" fill="white"/>
<circle cx="96" cy="184" r="4" fill="white"/>
<circle cx="96" cy="192" r="4" fill="white"/>
<circle cx="96" cy="200" r="4" fill="white"/>
<circle cx="96" cy="208" r="4" fill="white"/>
<circle cx="96" cy="216" r="4" fill="white"/>
<circle cx="104" cy="48" r="4" fill="white"/>
<circle cx="104" cy="64" r="4" fill="white"/>
<circle cx="104" cy="104" r="4" fill="white"/>
<circle cx="104" cy="112" r="4" fill="white"/>
<circle cx="104" cy="152" r="4" fill="white"/>
<circle cx="104" cy="160" r="4" fill="white"/>
<circle cx="104" cy="200" r="4" fill="white"/>
<circle cx="104" cy="216" r="4" fill="white"/>
<circle cx="112" cy="48" r="4" fill="white"/>
<circle cx="112" cy="64" r="4" fill="white"/>
<circle cx="112" cy="112" r="4" fill="white"/>
<circle cx="112" cy="120" r="4" fill="white"/>
<circle cx="112" cy="144" r="4" fill="white"/>
<circle cx="112" cy="152" r="4" fill="white"/>
<circle cx="112" cy="192" r="4" fill="white"/>
<circle cx="112" cy="200" r="4" fill="white"/>
<circle cx="112" cy="216" r="4" fill="white"/>
<circle cx="120" cy="48" r="4" fill="white"/>
<circle cx="120" cy="64" r="4" fill="white"/>
<circle cx="120" cy="88" r="4" fill="white"/>
<circle cx="120" cy="120" r="4" fill="white"/>
<circle cx="120" cy="128" r="4" fill="white"/>
<circle cx="120" cy="136" r="4" fill="white"/>
<circle cx="120" cy="144" r="4" fill="white"/>
<circle cx="120" cy="184" r="4" fill="white"/>
<circle cx="120" cy="200" r="4" fill="white"/>
<circle cx="120" cy="216" r="4" fill="white"/>
<circle cx="128" cy="48" r="4" fill="white"/>
<circle cx="128" cy="64" r="4" fill="white"/>
<circle cx="128" cy="96" r="4" fill="white"/>
<circle cx="128" cy="128" r="4" fill="white"/>
<circle cx="128" cy="136" r="4" fill="white"/>
<circle cx="128" cy="176" r="4" fill="white"/>
<circle cx="128" cy="192" r="4" fill="white"/>
<circle cx="128" cy="200" r="4" fill="white"/>
<circle cx="128" cy="216" r="4" fill="white"/>
<circle cx="136" cy="48" r="4" fill="white"/>
<circle cx="136" cy="64" r="4" fill="white"/>
<circle cx="136" cy="88" r="4" fill="white"/>
<circle cx="136" cy="104" r="4" fill="white"/>
<circle cx="136" cy="120" r="4" fill="white"/>
<circle cx="136" cy="152" r="4" fill="white"/>
<circle cx="136" cy="168" r="4" fill="white"/>
<circle cx="136" cy="184" r="4" fill="white"/>
<circle cx="136" cy="200" r="4" fill="white"/>
<circle cx="136" cy="216" r="4" fill="white"/>
<circle cx="144" cy="48" r="4" fill="white"/>
<circle cx="144" cy="64" r="4" fill="white"/>
<circle cx="144" cy="96" r="4" fill="white"/>
<circle cx="144" cy="128" r="4" fill="white"/>
<circle cx="144" cy="136" r="4" fill="white"/>
<circle cx="144" cy="176" r="4" fill="white"/>
<circle cx="144" cy="184" r="4" fill="white"/>
<circle cx="144" cy="192" r="4" fill="white"/>
<circle cx="144" cy="200" r="4" fill="white"/>
<circle cx="144" cy="216" r="4" fill="white"/>
<circle cx="152" cy="48" r="4" fill="white"/>
<circle cx="152" cy="64" r="4" fill="white"/>
<circle cx="152" cy="88" r="4" fill="white"/>
<circle cx="152" cy="120" r="4" fill="white"/>
<circle cx="152" cy="128" r="4" fill="white"/>
<circle cx="152" cy="136" r="4" fill="white"/>
<circle cx="152" cy="144" r="4" fill="white"/>
<circle cx="152" cy="184" r="4" fill="white"/>
<circle cx="152" cy="200" r="4" fill="white"/>
<circle cx="152" cy="216" r="4" fill="white"/>
<circle cx="160" cy="48" r="4" fill="white"/>
<circle cx="160" cy="64" r="4" fill="white"/>
<circle cx="160" cy="112" r="4" fill="white"/>
<circle cx="160" cy="120" r="4" fill="white"/>
<circle cx="160" cy="144" r="4" fill="white"/>
<circle cx="160" cy="152" r="4" fill="white"/>
<circle cx="160" cy="192" r="4" fill="white"/>
<circle cx="160" cy="200" r="4" fill="white"/>
<circle cx="160" cy="216" r="4" fill="white"/>
<circle cx="168" cy="48" r="4" fill="white"/>
<circle cx="168" cy="64" r="4" fill="white"/>
<circle cx="168" cy="104" r="4" fill="white"/>
<circle cx="168" cy="112" r="4" fill="white"/>
<circle cx="168" cy="152" r="4" fill="white"/>
<circle cx="168" cy="160" r="4" fill="white"/>
<circle cx="168" cy="200" r="4" fill="white"/>
<circle cx="168" cy="216" r="4" fill="white"/>
<circle cx="176" cy="48" r="4" fill="white"/>
<circle cx="176" cy="56" r="4" fill="white"/>
<circle cx="176" cy="64" r="4" fill="white"/>
<circle cx="176" cy="72" r="4" fill="white"/>
<circle cx="176" cy="80" r="4" fill="white"/>
<circle cx="176" cy="88" r="4" fill="white"/>
<circle cx="176" cy="96" r="4" fill="white"/>
<circle cx="176" cy="104" r="4" fill="white"/>
<circle cx="176" cy="160" r="4" fill="white"/>
<circle cx="176" cy="168" r="4" fill="white"/>
<circle cx="176" cy="176" r="4" fill="white"/>
<circle cx="176" cy="184" r="4" fill="white"/>
<circle cx="176" cy="192" r="4" fill="white"/>
<circle cx="176" cy="200" r="4" fill="white"/>
<circle cx="176" cy="208" r="4" fill="white"/>
<circle cx="176" cy="216" r="4" fill="white"/>
<circle cx="184" cy="48" r="4" fill="white"/>
<circle cx="184" cy="56" r="4" fill="white"/>
<circle cx="184" cy="64" r="4" fill="white"/>
<circle cx="184" cy="200" r="4" fill="white"/>
<circle cx="184" cy="208" r="4" fill="white"/>
<circle cx="184" cy="216" r="4" fill="white"/>
</svg>