<svg width="256" height="256" viewBox="0 0 256 256" fill="none" xmlns="http://www.w3.org/2000/svg">
<circle cx="32" cy="104" r="4" fill="white"/>
<circle cx="32" cy="112" r="4" fill="white"/>
<circle cx="32" cy="120" r="4" fill="white"/>
<circle cx="32" cy="128" r="4" fill="white"/>
<circle cx="32" cy="136" r="4" fill="white"/>
<circle cx="32" cy="144" r="4" fill="white"/>
<circle cx="32" cy="152" r="4" fill="white"/>
<circle cx="32" cy="160" r="4" fill="white"/>
<circle cx="40" cy="72" r="4" fill="white"/>
<circle cx="40" cy="80" r="4" fill="white"/>
<circle cx="40" cy="88" r="4" fill="white"/>
<circle cx="40" cy="96" r="4" fill="white"/>
<circle cx="40" cy="104" r="4" fill="white"/>
<circle cx="40" cy="112" r="4" fill="white"/>
<circle cx="40" cy="120" r="4" fill="white"/>
<circle cx="40" cy="128" r="4" fill="white"/>
<circle cx="40" cy="136" r="4" fill="white"/>
<circle cx="40" cy="144" r="4" fill="white"/>
<circle cx="40" cy="152" r="4" fill="white"/>
<circle cx="40" cy="160" r="4" fill="white"/>
<circle cx="40" cy="168" r="4" fill="white"/>
<circle cx="40" cy="176" r="4" fill="white"/>
<circle cx="40" cy="184" r="4" fill="white"/>
<circle cx="48" cy="48" r="4" fill="white"/>
<circle cx="48" cy="56" r="4" fill="white"/>
<circle cx="48" cy="64" r="4" fill="white"/>
<circle cx="48" cy="72" r="4" fill="white"/>
<circle cx="48" cy="80" r="4" fill="white"/>
<circle cx="48" cy="88" r="4" fill="white"/>
<circle cx="48" cy="96" r="4" fill="white"/>
<circle cx="48" cy="104" r="4" fill="white"/>
<circle cx="48" cy="112" r="4" fill="white"/>
<circle cx="48" cy="120" r="4" fill="white"/>
<circle cx="48" cy="128" r="4" fill="white"/>
<circle cx="48" cy="136" r="4" fill="white"/>
<circle cx="48" cy="144" r="4" fill="white"/>
<circle cx="48" cy="152" r="4" fill="white"/>
<circle cx="48" cy="160" r="4" fill="white"/>
<circle cx="48" cy="168" r="4" fill="white"/>
<circle cx="48" cy="176" r="4" fill="white"/>
<circle cx="48" cy="184" r="4" fill="white"/>
<circle cx="48" cy="192" r="4" fill="white"/>
<circle cx="56" cy="64" r="4" fill="white"/>
<circle cx="56" cy="80" r="4" fill="white"/>
<circle cx="56" cy="88" r="4" fill="white"/>
<circle cx="56" cy="96" r="4" fill="white"/>
<circle cx="56" cy="104" r="4" fill="white"/>
<circle cx="56" cy="112" r="4" fill="white"/>
<circle cx="56" cy="120" r="4" fill="white"/>
<circle cx="56" cy="128" r="4" fill="white"/>
<circle cx="56" cy="136" r="4" fill="white"/>
<circle cx="56" cy="144" r="4" fill="white"/>
<circle cx="56" cy="152" r="4" fill="white"/>
<circle cx="56" cy="160" r="4" fill="white"/>
<circle cx="56" cy="168" r="4" fill="white"/>
<circle cx="56" cy="176" r="4" fill="white"/>
<circle cx="56" cy="184" r="4" fill="white"/>
<circle cx="56" cy="192" r="4" fill="white"/>
<circle cx="56" cy="200" r="4" fill="white"/>
<circle cx="64" cy="64" r="4" fill="white"/>
<circle cx="64" cy="72" r="4" fill="white"/>
<circle cx="64" cy="80" r="4" fill="white"/>
<circle cx="64" cy="88" r="4" fill="white"/>
<circle cx="64" cy="96" r="4" fill="white"/>
<circle cx="64" cy="104" r="4" fill="white"/>
<circle cx="64" cy="112" r="4" fill="white"/>
<circle cx="64" cy="120" r="4" fill="white"/>
<circle cx="64" cy="128" r="4" fill="white"/>
<circle cx="64" cy="136" r="4" fill="white"/>
<circle cx="64" cy="144" r="4" fill="white"/>
<circle cx="64" cy="152" r="4" fill="white"/>
<circle cx="64" cy="160" r="4" fill="white"/>
<circle cx="64" cy="168" r="4" fill="white"/>
<circle cx="64" cy="176" r="4" fill="white"/>
<circle cx="64" cy="184" r="4" fill="white"/>
<circle cx="64" cy="192" r="4" fill="white"/>
<circle cx="64" cy="200" r="4" fill="white"/>
<circle cx="64" cy="208" r="4" fill="white"/>
<circle cx="72" cy="56" r="4" fill="white"/>
<circle cx="72" cy="72" r="4" fill="white"/>
<circle cx="72" cy="80" r="4" fill="white"/>
<circle cx="72" cy="88" r="4" fill="white"/>
<circle cx="72" cy="96" r="4" fill="white"/>
<circle cx="72" cy="104" r="4" fill="white"/>
<circle cx="72" cy="112" r="4" fill="white"/>
<circle cx="72" cy="120" r="4" fill="white"/>
<circle cx="72" cy="128" r="4" fill="white"/>
<circle cx="72" cy="136" r="4" fill="white"/>
<circle cx="72" cy="144" r="4" fill="white"/>
<circle cx="72" cy="152" r="4" fill="white"/>
<circle cx="72" cy="160" r="4" fill="white"/>
<circle cx="72" cy="168" r="4" fill="white"/>
<circle cx="72" cy="176" r="4" fill="white"/>
<circle cx="72" cy="184" r="4" fill="white"/>
<circle cx="72" cy="192" r="4" fill="white"/>
<circle cx="72" cy="200" r="4" fill="white"/>
<circle cx="72" cy="208" r="4" fill="white"/>
<circle cx="72" cy="216" r="4" fill="white"/>
<circle cx="80" cy="48" r="4" fill="white"/>
<circle cx="80" cy="72" r="4" fill="white"/>
<circle cx="80" cy="80" r="4" fill="white"/>
<circle cx="80" cy="88" r="4" fill="white"/>
<circle cx="80" cy="96" r="4" fill="white"/>
<circle cx="80" cy="104" r="4" fill="white"/>
<circle cx="80" cy="112" r="4" fill="white"/>
<circle cx="80" cy="120" r="4" fill="white"/>
<circle cx="80" cy="128" r="4" fill="white"/>
<circle cx="80" cy="136" r="4" fill="white"/>
<circle cx="80" cy="144" r="4" fill="white"/>
<circle cx="80" cy="152" r="4" fill="white"/>
<circle cx="80" cy="160" r="4" fill="white"/>
<circle cx="80" cy="168" r="4" fill="white"/>
<circle cx="80" cy="176" r="4" fill="white"/>
<circle cx="80" cy="184" r="4" fill="white"/>
<circle cx="80" cy="192" r="4" fill="white"/>
<circle cx="80" cy="200" r="4" fill="white"/>
<circle cx="80" cy="208" r="4" fill="white"/>
<circle cx="80" cy="216" r="4" fill="white"/>
<circle cx="80" cy="224" r="4" fill="white"/>
<circle cx="88" cy="72" r="4" fill="white"/>
<circle cx="88" cy="80" r="4" fill="white"/>
<circle cx="88" cy="88" r="4" fill="white"/>
<circle cx="88" cy="96" r="4" fill="white"/>
<circle cx="88" cy="104" r="4" fill="white"/>
<circle cx="88" cy="112" r="4" fill="white"/>
<circle cx="88" cy="120" r="4" fill="white"/>
<circle cx="88" cy="128" r="4" fill="white"/>
<circle cx="88" cy="136" r="4" fill="white"/>
<circle cx="88" cy="144" r="4" fill="white"/>
<circle cx="88" cy="152" r="4" fill="white"/>
<circle cx="88" cy="160" r="4" fill="white"/>
<circle cx="88" cy="168" r="4" fill="white"/>
<circle cx="88" cy="176" r="4" fill="white"/>
<circle cx="88" cy="184" r="4" fill="white"/>
<circle cx="88" cy="192" r="4" fill="white"/>
<circle cx="88" cy="200" r="4" fill="white"/>
<circle cx="88" cy="208" r="4" fill="white"/>
<circle cx="88" cy="216" r="4" fill="white"/>
<circle cx="88" cy="224" r="4" fill="white"/>
<circle cx="96" cy="40" r="4" fill="white"/>
<circle cx="96" cy="64" r="4" fill="white"/>
<circle cx="96" cy="72" r="4" fill="white"/>
<circle cx="96" cy="80" r="4" fill="white"/>
<circle cx="96" cy="88" r="4" fill="white"/>
<circle cx="96" cy="96" r="4" fill="white"/>
<circle cx="96" cy="104" r="4" fill="white"/>
<circle cx="96" cy="112" r="4" fill="white"/>
<circle cx="96" cy="120" r="4" fill="white"/>
<circle cx="96" cy="144" r="4" fill="white"/>
<circle cx="96" cy="152" r="4" fill="white"/>
<circle cx="96" cy="160" r="4" fill="white"/>
<circle cx="96" cy="168" r="4" fill="white"/>
<circle cx="96" cy="176" r="4" fill="white"/>
<circle cx="96" cy="184" r="4" fill="white"/>
<circle cx="96" cy="192" r="4" fill="white"/>
<circle cx="96" cy="200" r="4" fill="white"/>
<circle cx="96" cy="208" r="4" fill="white"/>
<circle cx="96" cy="216" r="4" fill="white"/>
<circle cx="96" cy="224" r="4" fill="white"/>
<circle cx="96" cy="232" r="4" fill="white"/>
<circle cx="104" cy="64" r="4" fill="white"/>
<circle cx="104" cy="72" r="4" fill="white"/>
<circle cx="104" cy="80" r="4" fill="white"/>
<circle cx="104" cy="88" r="4" fill="white"/>
<circle cx="104" cy="96" r="4" fill="white"/>
<circle cx="104" cy="104" r="4" fill="white"/>
<circle cx="104" cy="112" r="4" fill="white"/>
<circle cx="104" cy="120" r="4" fill="white"/>
<circle cx="104" cy="152" r="4" fill="white"/>
<circle cx="104" cy="160" r="4" fill="white"/>
<circle cx="104" cy="168" r="4" fill="white"/>
<circle cx="104" cy="176" r="4" fill="white"/>
<circle cx="104" cy="184" r="4" fill="white"/>
<circle cx="104" cy="192" r="4" fill="white"/>
<circle cx="104" cy="200" r="4" fill="white"/>
<circle cx="104" cy="208" r="4" fill="white"/>
<circle cx="104" cy="216" r="4" fill="white"/>
<circle cx="104" cy="224" r="4" fill="white"/>
<circle cx="104" cy="232" r="4" fill="white"/>
<circle cx="112" cy="32" r="4" fill="white"/>
<circle cx="112" cy="56" r="4" fill="white"/>
<circle cx="112" cy="88" r="4" fill="white"/>
<circle cx="112" cy="96" r="4" fill="white"/>
<circle cx="112" cy="104" r="4" fill="white"/>
<circle cx="112" cy="112" r="4" fill="white"/>
<circle cx="112" cy="120" r="4" fill="white"/>
<circle cx="112" cy="152" r="4" fill="white"/>
<circle cx="112" cy="160" r="4" fill="white"/>
<circle cx="112" cy="168" r="4" fill="white"/>
<circle cx="112" cy="184" r="4" fill="white"/>
<circle cx="112" cy="192" r="4" fill="white"/>
<circle cx="112" cy="200" r="4" fill="white"/>
<circle cx="112" cy="208" r="4" fill="white"/>
<circle cx="112" cy="216" r="4" fill="white"/>
<circle cx="112" cy="224" r="4" fill="white"/>
<circle cx="112" cy="232" r="4" fill="white"/>
<circle cx="112" cy="240" r="4" fill="white"/>
<circle cx="120" cy="32" r="4" fill="white"/>
<circle cx="120" cy="96" r="4" fill="white"/>
<circle cx="120" cy="104" r="4" fill="white"/>
<circle cx="120" cy="160" r="4" fill="white"/>
<circle cx="120" cy="168" r="4" fill="white"/>
<circle cx="120" cy="184" r="4" fill="white"/>
<circle cx="120" cy="192" r="4" fill="white"/>
<circle cx="120" cy="200" r="4" fill="white"/>
<circle cx="120" cy="208" r="4" fill="white"/>
<circle cx="120" cy="216" r="4" fill="white"/>
<circle cx="120" cy="224" r="4" fill="white"/>
<circle cx="120" cy="232" r="4" fill="white"/>
<circle cx="120" cy="240" r="4" fill="white"/>
<circle cx="128" cy="32" r="4" fill="white"/>
<circle cx="128" cy="96" r="4" fill="white"/>
<circle cx="128" cy="152" r="4" fill="white"/>
<circle cx="128" cy="160" r="4" fill="white"/>
<circle cx="128" cy="168" r="4" fill="white"/>
<circle cx="128" cy="192" r="4" fill="white"/>
<circle cx="128" cy="200" r="4" fill="white"/>
<circle cx="128" cy="208" r="4" fill="white"/>
<circle cx="128" cy="216" r="4" fill="white"/>
<circle cx="128" cy="224" r="4" fill="white"/>
<circle cx="128" cy="232" r="4" fill="white"/>
<circle cx="128" cy="240" r="4" fill="white"/>
<circle cx="136" cy="32" r="4" fill="white"/>
<circle cx="136" cy="152" r="4" fill="white"/>
<circle cx="136" cy="160" r="4" fill="white"/>
<circle cx="136" cy="168" r="4" fill="white"/>
<circle cx="136" cy="192" r="4" fill="white"/>
<circle cx="136" cy="200" r="4" fill="white"/>
<circle cx="136" cy="208" r="4" fill="white"/>
<circle cx="136" cy="216" r="4" fill="white"/>
<circle cx="136" cy="224" r="4" fill="white"/>
<circle cx="136" cy="232" r="4" fill="white"/>
<circle cx="136" cy="240" r="4" fill="white"/>
<circle cx="144" cy="32" r="4" fill="white"/>
<circle cx="144" cy="152" r="4" fill="white"/>
<circle cx="144" cy="160" r="4" fill="white"/>
<circle cx="144" cy="200" r="4" fill="white"/>
<circle cx="144" cy="208" r="4" fill="white"/>
<circle cx="144" cy="216" r="4" fill="white"/>
<circle cx="144" cy="224" r="4" fill="white"/>
<circle cx="144" cy="232" r="4" fill="white"/>
<circle cx="144" cy="240" r="4" fill="white"/>
<circle cx="152" cy="32" r="4" fill="white"/>
<circle cx="152" cy="152" r="4" fill="white"/>
<circle cx="152" cy="160" r="4" fill="white"/>
<circle cx="152" cy="200" r="4" fill="white"/>
<circle cx="152" cy="208" r="4" fill="white"/>
<circle cx="152" cy="216" r="4" fill="white"/>
<circle cx="152" cy="224" r="4" fill="white"/>
<circle cx="152" cy="232" r="4" fill="white"/>
<circle cx="152" cy="240" r="4" fill="white"/>
<circle cx="160" cy="32" r="4" fill="white"/>
<circle cx="160" cy="192" r="4" fill="white"/>
<circle cx="160" cy="200" r="4" fill="white"/>
<circle cx="160" cy="208" r="4" fill="white"/>
<circle cx="160" cy="216" r="4" fill="white"/>
<circle cx="160" cy="224" r="4" fill="white"/>
<circle cx="160" cy="232" r="4" fill="white"/>
<circle cx="160" cy="240" r="4" fill="white"/>
<circle cx="168" cy="192" r="4" fill="white"/>
<circle cx="168" cy="200" r="4" fill="white"/>
<circle cx="168" cy="208" r="4" fill="white"/>
<circle cx="168" cy="216" r="4" fill="white"/>
<circle cx="168" cy="224" r="4" fill="white"/>
<circle cx="168" cy="232" r="4" fill="white"/>
<circle cx="168" cy="240" r="4" fill="white"/>
<circle cx="176" cy="40" r="4" fill="white"/>
<circle cx="176" cy="184" r="4" fill="white"/>
<circle cx="176" cy="192" r="4" fill="white"/>
<circle cx="176" cy="200" r="4" fill="white"/>
<circle cx="176" cy="208" r="4" fill="white"/>
<circle cx="176" cy="216" r="4" fill="white"/>
<circle cx="176" cy="224" r="4" fill="white"/>
<circle cx="176" cy="232" r="4" fill="white"/>
<circle cx="184" cy="40" r="4" fill="white"/>
<circle cx="184" cy="56" r="4" fill="white"/>
<circle cx="184" cy="184" r="4" fill="white"/>
<circle cx="184" cy="192" r="4" fill="white"/>
<circle cx="184" cy="200" r="4" fill="white"/>
<circle cx="184" cy="208" r="4" fill="white"/>
<circle cx="184" cy="216" r="4" fill="white"/>
<circle cx="184" cy="224" r="4" fill="white"/>
<circle cx="184" cy="232" r="4" fill="white"/>
<circle cx="192" cy="48" r="4" fill="white"/>
<circle cx="192" cy="56" r="4" fill="white"/>
<circle cx="192" cy="168" r="4" fill="white"/>
<circle cx="192" cy="176" r="4" fill="white"/>
<circle cx="192" cy="184" r="4" fill="white"/>
<circle cx="192" cy="192" r="4" fill="white"/>
<circle cx="192" cy="200" r="4" fill="white"/>
<circle cx="192" cy="208" r="4" fill="white"/>
<circle cx="192" cy="216" r="4" fill="white"/>
<circle cx="192" cy="224" r="4" fill="white"/>
<circle cx="200" cy="48" r="4" fill="white"/>
<circle cx="200" cy="56" r="4" fill="white"/>
<circle cx="200" cy="64" r="4" fill="white"/>
<circle cx="200" cy="176" r="4" fill="white"/>
<circle cx="200" cy="184" r="4" fill="white"/>
<circle cx="200" cy="192" r="4" fill="white"/>
<circle cx="200" cy="200" r="4" fill="white"/>
<circle cx="200" cy="208" r="4" fill="white"/>
<circle cx="200" cy="216" r="4" fill="white"/>
<circle cx="200" cy="224" r="4" fill="white"/>
<circle cx="208" cy="56" r="4" fill="white"/>
<circle cx="208" cy="64" r="4" fill="white"/>
<circle cx="208" cy="72" r="4" fill="white"/>
<circle cx="208" cy="128" r="4" fill="white"/>
<circle cx="208" cy="136" r="4" fill="white"/>
<circle cx="208" cy="144" r="4" fill="white"/>
<circle cx="208" cy="152" r="4" fill="white"/>
<circle cx="208" cy="160" r="4" fill="white"/>
<circle cx="208" cy="168" r="4" fill="white"/>
<circle cx="208" cy="176" r="4" fill="white"/>
<circle cx="208" cy="184" r="4" fill="white"/>
<circle cx="208" cy="192" r="4" fill="white"/>
<circle cx="208" cy="200" r="4" fill="white"/>
<circle cx="208" cy="208" r="4" fill="white"/>
<circle cx="208" cy="216" r="4" fill="white"/>
<circle cx="216" cy="56" r="4" fill="white"/>
<circle cx="216" cy="64" r="4" fill="white"/>
<circle cx="216" cy="72" r="4" fill="white"/>
<circle cx="216" cy="80" r="4" fill="white"/>
<circle cx="216" cy="96" r="4" fill="white"/>
<circle cx="216" cy="104" r="4" fill="white"/>
<circle cx="216" cy="112" r="4" fill="white"/>
<circle cx="216" cy="120" r="4" fill="white"/>
<circle cx="216" cy="128" r="4" fill="white"/>
<circle cx="216" cy="136" r="4" fill="white"/>
<circle cx="216" cy="144" r="4" fill="white"/>
<circle cx="216" cy="152" r="4" fill="white"/>
<circle cx="216" cy="160" r="4" fill="white"/>
<circle cx="216" cy="168" r="4" fill="white"/>
<circle cx="216" cy="176" r="4" fill="white"/>
<circle cx="216" cy="184" r="4" fill="white"/>
<circle cx="216" cy="192" r="4" fill="white"/>
<circle cx="216" cy="200" r="4" fill="white"/>
<circle cx="216" cy="208" r="4" fill="white"/>
<circle cx="224" cy="64" r="4" fill="white"/>
<circle cx="224" cy="72" r="4" fill="white"/>
<circle cx="224" cy="80" r="4" fill="white"/>
<circle cx="224" cy="88" r="4" fill="white"/>
<circle cx="224" cy="96" r="4" fill="white"/>
<circle cx="224" cy="104" r="4" fill="white"/>
<circle cx="224" cy="112" r="4" fill="white"/>
<circle cx="224" cy="120" r="4" fill="white"/>
<circle cx="224" cy="128" r="4" fill="white"/>
<circle cx="224" cy="136" r="4" fill="white"/>
<circle cx="224" cy="144" r="4" fill="white"/>
<circle cx="224" cy="152" r="4" fill="white"/>
<circle cx="224" cy="160" r="4" fill="white"/>
<circle cx="224" cy="168" r="4" fill="white"/>
<circle cx="224" cy="176" r="4" fill="white"/>
<circle cx="224" cy="184" r="4" fill="white"/>
<circle cx="224" cy="192" r="4" fill="white"/>
<circle cx="224" cy="200" r="4" fill="white"/>
<circle cx="232" cy="80" r="4" fill="white"/>
<circle cx="232" cy="88" r="4" fill="white"/>
<circle cx="232" cy="96" r="4" fill="white"/>
<circle cx="232" cy="104" r="4" fill="white"/>
<circle cx="232" cy="112" r="4" fill="white"/>
<circle cx="232" cy="120" r="4" fill="white"/>
<circle cx="232" cy="128" r="4" fill="white"/>
<circle cx="232" cy="136" r="4" fill="white"/>
<circle cx="232" cy="144" r="4" fill="white"/>
<circle cx="232" cy="152" r="4" fill="white"/>
<circle cx="232" cy="160" r="4" fill="white"/>
<circle cx="232" cy="168" r="4" fill="white"/>
<circle cx="232" cy="176" r="4" fill="white"/>
<circle cx="232" cy="184" r="4" fill="white"/>
<circle cx="240" cy="80" r="4" fill="white"/>
<circle cx="240" cy="88" r="4" fill="white"/>
<circle cx="240" cy="96" r="4" fill="white"/>
<circle cx="240" cy="104" r="4" fill="white"/>
<circle cx="240" cy="112" r="4" fill="white"/>
<circle cx="240" cy="120" r="4" fill="white"/>
<circle cx="240" cy="128" r="4" fill="white"/>
<circle cx="240" cy="136" r="4" fill="white"/>
<circle cx="240" cy="144" r="4" fill="white"/>
<circle cx="240" cy="152" r="4" fill="white"/>
<circle cx="240" cy="160" r="4" fill="white"/>
<circle cx="240" cy="168" r="4" fill="white"/>
<circle cx="240" cy="176" r="4" fill="white"/>
<circle cx="248" cy="104" r="4" fill="white"/>
<circle cx="248" cy="112" r="4" fill="white"/>
<circle cx="248" cy="120" r="4" fill="white"/>
<circle cx="248" cy="128" r="4" fill="white"/>
<circle cx="248" cy="136" r="4" fill="white"/>
<circle cx="248" cy="144" r="4" fill="white"/>
<circle cx="248" cy="152" r="4" fill="white"/>
</svg>