<svg width="256" height="256" viewBox="0 0 256 256" fill="none" xmlns="http://www.w3.org/2000/svg">
<circle cx="118" cy="50" r="2" fill="white"/>
<circle cx="114" cy="50" r="2" fill="white"/>
<circle cx="118" cy="54" r="2" fill="white"/>
<circle cx="122" cy="54" r="2" fill="white"/>
<circle cx="126" cy="58" r="2" fill="white"/>
<circle cx="130" cy="62" r="2" fill="white"/>
<circle cx="130" cy="66" r="2" fill="white"/>
<circle cx="130" cy="70" r="2" fill="white"/>
<circle cx="122" cy="74" r="2" fill="white"/>
<circle cx="126" cy="74" r="2" fill="white"/>
<circle cx="114" cy="70" r="2" fill="white"/>
<circle cx="118" cy="70" r="2" fill="white"/>
<circle cx="106" cy="70" r="2" fill="white"/>
<circle cx="110" cy="70" r="2" fill="white"/>
<circle cx="106" cy="66" r="2" fill="white"/>
<circle cx="106" cy="62" r="2" fill="white"/>
<circle cx="110" cy="58" r="2" fill="white"/>
<circle cx="114" cy="54" r="2" fill="white"/>
<circle cx="122" cy="62" r="2" fill="white"/>
<circle cx="118" cy="66" r="2" fill="white"/>
<circle cx="122" cy="66" r="2" fill="white"/>
<circle cx="126" cy="66" r="2" fill="white"/>
<circle cx="118" cy="62" r="2" fill="white"/>
<circle cx="118" cy="46" r="2" fill="white"/>
<circle cx="122" cy="46" r="2" fill="white"/>
<circle cx="122" cy="42" r="2" fill="white"/>
<circle cx="126" cy="38" r="2" fill="white"/>
<circle cx="130" cy="34" r="2" fill="white"/>
<circle cx="134" cy="30" r="2" fill="white"/>
<circle cx="138" cy="26" r="2" fill="white"/>
<circle cx="142" cy="26" r="2" fill="white"/>
<circle cx="146" cy="22" r="2" fill="white"/>
<circle cx="150" cy="22" r="2" fill="white"/>
<circle cx="154" cy="18" r="2" fill="white"/>
<circle cx="158" cy="18" r="2" fill="white"/>
<circle cx="162" cy="18" r="2" fill="white"/>
<circle cx="166" cy="14" r="2" fill="white"/>
<circle cx="170" cy="14" r="2" fill="white"/>
<circle cx="174" cy="14" r="2" fill="white"/>
<circle cx="178" cy="14" r="2" fill="white"/>
<circle cx="178" cy="18" r="2" fill="white"/>
<circle cx="182" cy="18" r="2" fill="white"/>
<circle cx="186" cy="22" r="2" fill="white"/>
<circle cx="190" cy="22" r="2" fill="white"/>
<circle cx="194" cy="26" r="2" fill="white"/>
<circle cx="198" cy="30" r="2" fill="white"/>
<circle cx="202" cy="34" r="2" fill="white"/>
<circle cx="202" cy="38" r="2" fill="white"/>
<circle cx="206" cy="42" r="2" fill="white"/>
<circle cx="206" cy="46" r="2" fill="white"/>
<circle cx="210" cy="50" r="2" fill="white"/>
<circle cx="210" cy="54" r="2" fill="white"/>
<circle cx="214" cy="58" r="2" fill="white"/>
<circle cx="214" cy="62" r="2" fill="white"/>
<circle cx="214" cy="66" r="2" fill="white"/>
<circle cx="218" cy="74" r="2" fill="white"/>
<circle cx="218" cy="78" r="2" fill="white"/>
<circle cx="218" cy="70" r="2" fill="white"/>
<circle cx="218" cy="82" r="2" fill="white"/>
<circle cx="218" cy="86" r="2" fill="white"/>
<circle cx="218" cy="90" r="2" fill="white"/>
<circle cx="222" cy="94" r="2" fill="white"/>
<circle cx="222" cy="98" r="2" fill="white"/>
<circle cx="222" cy="102" r="2" fill="white"/>
<circle cx="222" cy="106" r="2" fill="white"/>
<circle cx="222" cy="110" r="2" fill="white"/>
<circle cx="226" cy="114" r="2" fill="white"/>
<circle cx="226" cy="118" r="2" fill="white"/>
<circle cx="226" cy="122" r="2" fill="white"/>
<circle cx="226" cy="126" r="2" fill="white"/>
<circle cx="226" cy="130" r="2" fill="white"/>
<circle cx="226" cy="134" r="2" fill="white"/>
<circle cx="226" cy="138" r="2" fill="white"/>
<circle cx="230" cy="142" r="2" fill="white"/>
<circle cx="230" cy="146" r="2" fill="white"/>
<circle cx="230" cy="150" r="2" fill="white"/>
<circle cx="230" cy="154" r="2" fill="white"/>
<circle cx="230" cy="158" r="2" fill="white"/>
<circle cx="230" cy="162" r="2" fill="white"/>
<circle cx="234" cy="166" r="2" fill="white"/>
<circle cx="234" cy="170" r="2" fill="white"/>
<circle cx="234" cy="174" r="2" fill="white"/>
<circle cx="234" cy="178" r="2" fill="white"/>
<circle cx="234" cy="182" r="2" fill="white"/>
<circle cx="238" cy="186" r="2" fill="white"/>
<circle cx="238" cy="190" r="2" fill="white"/>
<circle cx="238" cy="194" r="2" fill="white"/>
<circle cx="238" cy="198" r="2" fill="white"/>
<circle cx="238" cy="202" r="2" fill="white"/>
<circle cx="238" cy="206" r="2" fill="white"/>
<circle cx="242" cy="210" r="2" fill="white"/>
<circle cx="242" cy="214" r="2" fill="white"/>
<circle cx="246" cy="214" r="2" fill="white"/>
<circle cx="246" cy="218" r="2" fill="white"/>
<circle cx="250" cy="218" r="2" fill="white"/>
<circle cx="250" cy="222" r="2" fill="white"/>
<circle cx="250" cy="226" r="2" fill="white"/>
<circle cx="182" cy="66" r="2" fill="white"/>
<circle cx="182" cy="62" r="2" fill="white"/>
<circle cx="182" cy="58" r="2" fill="white"/>
<circle cx="178" cy="54" r="2" fill="white"/>
<circle cx="170" cy="54" r="2" fill="white"/>
<circle cx="174" cy="54" r="2" fill="white"/>
<circle cx="162" cy="54" r="2" fill="white"/>
<circle cx="166" cy="54" r="2" fill="white"/>
<circle cx="158" cy="58" r="2" fill="white"/>
<circle cx="158" cy="62" r="2" fill="white"/>
<circle cx="158" cy="66" r="2" fill="white"/>
<circle cx="158" cy="70" r="2" fill="white"/>
<circle cx="162" cy="74" r="2" fill="white"/>
<circle cx="166" cy="70" r="2" fill="white"/>
<circle cx="170" cy="70" r="2" fill="white"/>
<circle cx="166" cy="66" r="2" fill="white"/>
<circle cx="166" cy="62" r="2" fill="white"/>
<circle cx="170" cy="62" r="2" fill="white"/>
<circle cx="174" cy="62" r="2" fill="white"/>
<circle cx="174" cy="58" r="2" fill="white"/>
<circle cx="170" cy="66" r="2" fill="white"/>
<circle cx="174" cy="66" r="2" fill="white"/>
<circle cx="178" cy="66" r="2" fill="white"/>
<circle cx="182" cy="78" r="2" fill="white"/>
<circle cx="182" cy="82" r="2" fill="white"/>
<circle cx="182" cy="86" r="2" fill="white"/>
<circle cx="182" cy="90" r="2" fill="white"/>
<circle cx="178" cy="94" r="2" fill="white"/>
<circle cx="178" cy="98" r="2" fill="white"/>
<circle cx="174" cy="102" r="2" fill="white"/>
<circle cx="170" cy="106" r="2" fill="white"/>
<circle cx="174" cy="106" r="2" fill="white"/>
<circle cx="162" cy="110" r="2" fill="white"/>
<circle cx="166" cy="110" r="2" fill="white"/>
<circle cx="154" cy="110" r="2" fill="white"/>
<circle cx="158" cy="110" r="2" fill="white"/>
<circle cx="150" cy="114" r="2" fill="white"/>
<circle cx="138" cy="114" r="2" fill="white"/>
<circle cx="142" cy="114" r="2" fill="white"/>
<circle cx="146" cy="114" r="2" fill="white"/>
<circle cx="134" cy="114" r="2" fill="white"/>
<circle cx="126" cy="114" r="2" fill="white"/>
<circle cx="130" cy="114" r="2" fill="white"/>
<circle cx="122" cy="110" r="2" fill="white"/>
<circle cx="118" cy="106" r="2" fill="white"/>
<circle cx="118" cy="102" r="2" fill="white"/>
<circle cx="114" cy="98" r="2" fill="white"/>
<circle cx="114" cy="94" r="2" fill="white"/>
<circle cx="110" cy="90" r="2" fill="white"/>
<circle cx="110" cy="86" r="2" fill="white"/>
<circle cx="110" cy="82" r="2" fill="white"/>
<circle cx="110" cy="78" r="2" fill="white"/>
<circle cx="110" cy="74" r="2" fill="white"/>
<circle cx="142" cy="118" r="2" fill="white"/>
<circle cx="142" cy="122" r="2" fill="white"/>
<circle cx="142" cy="126" r="2" fill="white"/>
<circle cx="142" cy="130" r="2" fill="white"/>
<circle cx="142" cy="134" r="2" fill="white"/>
<circle cx="142" cy="138" r="2" fill="white"/>
<circle cx="142" cy="142" r="2" fill="white"/>
<circle cx="142" cy="146" r="2" fill="white"/>
<circle cx="138" cy="150" r="2" fill="white"/>
<circle cx="138" cy="154" r="2" fill="white"/>
<circle cx="138" cy="158" r="2" fill="white"/>
<circle cx="138" cy="162" r="2" fill="white"/>
<circle cx="134" cy="166" r="2" fill="white"/>
<circle cx="134" cy="170" r="2" fill="white"/>
<circle cx="134" cy="174" r="2" fill="white"/>
<circle cx="134" cy="178" r="2" fill="white"/>
<circle cx="134" cy="182" r="2" fill="white"/>
<circle cx="130" cy="186" r="2" fill="white"/>
<circle cx="126" cy="190" r="2" fill="white"/>
<circle cx="130" cy="194" r="2" fill="white"/>
<circle cx="130" cy="198" r="2" fill="white"/>
<circle cx="134" cy="202" r="2" fill="white"/>
<circle cx="134" cy="206" r="2" fill="white"/>
<circle cx="138" cy="210" r="2" fill="white"/>
<circle cx="138" cy="214" r="2" fill="white"/>
<circle cx="138" cy="218" r="2" fill="white"/>
<circle cx="126" cy="186" r="2" fill="white"/>
<circle cx="122" cy="182" r="2" fill="white"/>
<circle cx="122" cy="178" r="2" fill="white"/>
<circle cx="118" cy="174" r="2" fill="white"/>
<circle cx="118" cy="170" r="2" fill="white"/>
<circle cx="114" cy="166" r="2" fill="white"/>
<circle cx="110" cy="162" r="2" fill="white"/>
<circle cx="110" cy="158" r="2" fill="white"/>
<circle cx="106" cy="154" r="2" fill="white"/>
<circle cx="106" cy="150" r="2" fill="white"/>
<circle cx="102" cy="146" r="2" fill="white"/>
<circle cx="98" cy="142" r="2" fill="white"/>
<circle cx="94" cy="138" r="2" fill="white"/>
<circle cx="90" cy="134" r="2" fill="white"/>
<circle cx="86" cy="130" r="2" fill="white"/>
<circle cx="82" cy="126" r="2" fill="white"/>
<circle cx="78" cy="126" r="2" fill="white"/>
<circle cx="74" cy="122" r="2" fill="white"/>
<circle cx="70" cy="122" r="2" fill="white"/>
<circle cx="66" cy="118" r="2" fill="white"/>
<circle cx="62" cy="122" r="2" fill="white"/>
<circle cx="54" cy="122" r="2" fill="white"/>
<circle cx="58" cy="122" r="2" fill="white"/>
<circle cx="58" cy="138" r="2" fill="white"/>
<circle cx="58" cy="142" r="2" fill="white"/>
<circle cx="58" cy="146" r="2" fill="white"/>
<circle cx="54" cy="154" r="2" fill="white"/>
<circle cx="54" cy="158" r="2" fill="white"/>
<circle cx="50" cy="162" r="2" fill="white"/>
<circle cx="50" cy="166" r="2" fill="white"/>
<circle cx="46" cy="170" r="2" fill="white"/>
<circle cx="46" cy="174" r="2" fill="white"/>
<circle cx="42" cy="178" r="2" fill="white"/>
<circle cx="38" cy="182" r="2" fill="white"/>
<circle cx="30" cy="182" r="2" fill="white"/>
<circle cx="34" cy="182" r="2" fill="white"/>
<circle cx="26" cy="182" r="2" fill="white"/>
<circle cx="22" cy="182" r="2" fill="white"/>
<circle cx="22" cy="178" r="2" fill="white"/>
<circle cx="22" cy="174" r="2" fill="white"/>
<circle cx="22" cy="170" r="2" fill="white"/>
<circle cx="22" cy="166" r="2" fill="white"/>
<circle cx="22" cy="162" r="2" fill="white"/>
<circle cx="26" cy="158" r="2" fill="white"/>
<circle cx="30" cy="154" r="2" fill="white"/>
<circle cx="30" cy="150" r="2" fill="white"/>
<circle cx="34" cy="146" r="2" fill="white"/>
<circle cx="38" cy="142" r="2" fill="white"/>
<circle cx="58" cy="150" r="2" fill="white"/>
<circle cx="62" cy="126" r="2" fill="white"/>
<circle cx="62" cy="130" r="2" fill="white"/>
<circle cx="62" cy="134" r="2" fill="white"/>
<circle cx="26" cy="186" r="2" fill="white"/>
<circle cx="30" cy="190" r="2" fill="white"/>
<circle cx="34" cy="194" r="2" fill="white"/>
<circle cx="38" cy="194" r="2" fill="white"/>
<circle cx="42" cy="198" r="2" fill="white"/>
<circle cx="46" cy="202" r="2" fill="white"/>
<circle cx="50" cy="202" r="2" fill="white"/>
<circle cx="54" cy="206" r="2" fill="white"/>
<circle cx="58" cy="210" r="2" fill="white"/>
<circle cx="62" cy="214" r="2" fill="white"/>
<circle cx="66" cy="214" r="2" fill="white"/>
<circle cx="70" cy="218" r="2" fill="white"/>
<circle cx="74" cy="222" r="2" fill="white"/>
<circle cx="78" cy="222" r="2" fill="white"/>
<circle cx="82" cy="226" r="2" fill="white"/>
<circle cx="86" cy="230" r="2" fill="white"/>
<circle cx="90" cy="230" r="2" fill="white"/>
<circle cx="90" cy="234" r="2" fill="white"/>
<circle cx="94" cy="234" r="2" fill="white"/>
<circle cx="90" cy="238" r="2" fill="white"/>
<circle cx="90" cy="242" r="2" fill="white"/>
<circle cx="86" cy="246" r="2" fill="white"/>
<circle cx="86" cy="250" r="2" fill="white"/>
<circle cx="86" cy="254" r="2" fill="white"/>
<circle cx="98" cy="238" r="2" fill="white"/>
<circle cx="102" cy="238" r="2" fill="white"/>
<circle cx="250" cy="230" r="2" fill="white"/>
<circle cx="242" cy="230" r="2" fill="white"/>
<circle cx="254" cy="230" r="2" fill="white"/>
<circle cx="246" cy="234" r="2" fill="white"/>
<circle cx="246" cy="230" r="2" fill="white"/>
<circle cx="254" cy="234" r="2" fill="white"/>
<circle cx="246" cy="238" r="2" fill="white"/>
<circle cx="250" cy="238" r="2" fill="white"/>
<circle cx="246" cy="242" r="2" fill="white"/>
<circle cx="250" cy="242" r="2" fill="white"/>
<circle cx="246" cy="246" r="2" fill="white"/>
<circle cx="250" cy="246" r="2" fill="white"/>
<circle cx="246" cy="250" r="2" fill="white"/>
<circle cx="250" cy="250" r="2" fill="white"/>
<circle cx="246" cy="254" r="2" fill="white"/>
<circle cx="250" cy="254" r="2" fill="white"/>
<circle cx="202" cy="214" r="2" fill="white"/>
<circle cx="206" cy="214" r="2" fill="white"/>
<circle cx="202" cy="218" r="2" fill="white"/>
<circle cx="198" cy="222" r="2" fill="white"/>
<circle cx="198" cy="226" r="2" fill="white"/>
<circle cx="194" cy="230" r="2" fill="white"/>
<circle cx="190" cy="234" r="2" fill="white"/>
<circle cx="190" cy="238" r="2" fill="white"/>
<circle cx="186" cy="242" r="2" fill="white"/>
<circle cx="186" cy="246" r="2" fill="white"/>
<circle cx="182" cy="250" r="2" fill="white"/>
<circle cx="178" cy="254" r="2" fill="white"/>
<circle cx="82" cy="106" r="2" fill="white"/>
<circle cx="86" cy="110" r="2" fill="white"/>
<circle cx="90" cy="114" r="2" fill="white"/>
<circle cx="90" cy="118" r="2" fill="white"/>
<circle cx="94" cy="122" r="2" fill="white"/>
<circle cx="94" cy="126" r="2" fill="white"/>
<circle cx="6" cy="190" r="2" fill="white"/>
<circle cx="10" cy="194" r="2" fill="white"/>
<circle cx="14" cy="198" r="2" fill="white"/>
<circle cx="18" cy="202" r="2" fill="white"/>
<circle cx="22" cy="202" r="2" fill="white"/>
<circle cx="26" cy="202" r="2" fill="white"/>
</svg>
