<svg width="256" height="256" viewBox="0 0 256 256" fill="none" xmlns="http://www.w3.org/2000/svg">
<circle cx="46" cy="74" r="2" fill="white"/>
<circle cx="50" cy="74" r="2" fill="white"/>
<circle cx="54" cy="74" r="2" fill="white"/>
<circle cx="58" cy="74" r="2" fill="white"/>
<circle cx="62" cy="74" r="2" fill="white"/>
<circle cx="66" cy="74" r="2" fill="white"/>
<circle cx="70" cy="74" r="2" fill="white"/>
<circle cx="74" cy="74" r="2" fill="white"/>
<circle cx="78" cy="74" r="2" fill="white"/>
<circle cx="82" cy="74" r="2" fill="white"/>
<circle cx="86" cy="74" r="2" fill="white"/>
<circle cx="90" cy="74" r="2" fill="white"/>
<circle cx="94" cy="74" r="2" fill="white"/>
<circle cx="98" cy="74" r="2" fill="white"/>
<circle cx="102" cy="74" r="2" fill="white"/>
<circle cx="106" cy="74" r="2" fill="white"/>
<circle cx="110" cy="74" r="2" fill="white"/>
<circle cx="114" cy="74" r="2" fill="white"/>
<circle cx="118" cy="74" r="2" fill="white"/>
<circle cx="122" cy="74" r="2" fill="white"/>
<circle cx="126" cy="74" r="2" fill="white"/>
<circle cx="130" cy="74" r="2" fill="white"/>
<circle cx="134" cy="74" r="2" fill="white"/>
<circle cx="138" cy="74" r="2" fill="white"/>
<circle cx="142" cy="74" r="2" fill="white"/>
<circle cx="146" cy="74" r="2" fill="white"/>
<circle cx="150" cy="74" r="2" fill="white"/>
<circle cx="154" cy="74" r="2" fill="white"/>
<circle cx="158" cy="74" r="2" fill="white"/>
<circle cx="162" cy="74" r="2" fill="white"/>
<circle cx="166" cy="74" r="2" fill="white"/>
<circle cx="170" cy="74" r="2" fill="white"/>
<circle cx="174" cy="74" r="2" fill="white"/>
<circle cx="178" cy="74" r="2" fill="white"/>
<circle cx="182" cy="74" r="2" fill="white"/>
<circle cx="186" cy="74" r="2" fill="white"/>
<circle cx="190" cy="74" r="2" fill="white"/>
<circle cx="194" cy="74" r="2" fill="white"/>
<circle cx="198" cy="74" r="2" fill="white"/>
<circle cx="202" cy="74" r="2" fill="white"/>
<circle cx="206" cy="74" r="2" fill="white"/>
<circle cx="210" cy="74" r="2" fill="white"/>
<circle cx="222" cy="86" r="2" fill="white"/>
<circle cx="222" cy="90" r="2" fill="white"/>
<circle cx="222" cy="94" r="2" fill="white"/>
<circle cx="222" cy="98" r="2" fill="white"/>
<circle cx="222" cy="102" r="2" fill="white"/>
<circle cx="222" cy="106" r="2" fill="white"/>
<circle cx="222" cy="110" r="2" fill="white"/>
<circle cx="222" cy="114" r="2" fill="white"/>
<circle cx="222" cy="118" r="2" fill="white"/>
<circle cx="222" cy="122" r="2" fill="white"/>
<circle cx="222" cy="126" r="2" fill="white"/>
<circle cx="222" cy="130" r="2" fill="white"/>
<circle cx="222" cy="134" r="2" fill="white"/>
<circle cx="222" cy="138" r="2" fill="white"/>
<circle cx="222" cy="142" r="2" fill="white"/>
<circle cx="222" cy="146" r="2" fill="white"/>
<circle cx="222" cy="150" r="2" fill="white"/>
<circle cx="222" cy="154" r="2" fill="white"/>
<circle cx="222" cy="158" r="2" fill="white"/>
<circle cx="222" cy="162" r="2" fill="white"/>
<circle cx="222" cy="166" r="2" fill="white"/>
<circle cx="222" cy="170" r="2" fill="white"/>
<circle cx="222" cy="174" r="2" fill="white"/>
<circle cx="222" cy="178" r="2" fill="white"/>
<circle cx="218" cy="182" r="2" fill="white"/>
<circle cx="222" cy="182" r="2" fill="white"/>
<circle cx="210" cy="182" r="2" fill="white"/>
<circle cx="214" cy="182" r="2" fill="white"/>
<circle cx="202" cy="182" r="2" fill="white"/>
<circle cx="206" cy="182" r="2" fill="white"/>
<circle cx="190" cy="182" r="2" fill="white"/>
<circle cx="194" cy="182" r="2" fill="white"/>
<circle cx="198" cy="182" r="2" fill="white"/>
<circle cx="190" cy="186" r="2" fill="white"/>
<circle cx="190" cy="190" r="2" fill="white"/>
<circle cx="186" cy="194" r="2" fill="white"/>
<circle cx="178" cy="194" r="2" fill="white"/>
<circle cx="182" cy="194" r="2" fill="white"/>
<circle cx="170" cy="194" r="2" fill="white"/>
<circle cx="174" cy="194" r="2" fill="white"/>
<circle cx="170" cy="190" r="2" fill="white"/>
<circle cx="170" cy="186" r="2" fill="white"/>
<circle cx="170" cy="182" r="2" fill="white"/>
<circle cx="174" cy="182" r="2" fill="white"/>
<circle cx="178" cy="182" r="2" fill="white"/>
<circle cx="182" cy="182" r="2" fill="white"/>
<circle cx="186" cy="182" r="2" fill="white"/>
<circle cx="38" cy="182" r="2" fill="white"/>
<circle cx="42" cy="182" r="2" fill="white"/>
<circle cx="46" cy="182" r="2" fill="white"/>
<circle cx="50" cy="182" r="2" fill="white"/>
<circle cx="54" cy="182" r="2" fill="white"/>
<circle cx="58" cy="182" r="2" fill="white"/>
<circle cx="62" cy="182" r="2" fill="white"/>
<circle cx="66" cy="182" r="2" fill="white"/>
<circle cx="70" cy="182" r="2" fill="white"/>
<circle cx="74" cy="182" r="2" fill="white"/>
<circle cx="78" cy="182" r="2" fill="white"/>
<circle cx="82" cy="182" r="2" fill="white"/>
<circle cx="86" cy="182" r="2" fill="white"/>
<circle cx="90" cy="182" r="2" fill="white"/>
<circle cx="94" cy="182" r="2" fill="white"/>
<circle cx="98" cy="182" r="2" fill="white"/>
<circle cx="102" cy="182" r="2" fill="white"/>
<circle cx="106" cy="182" r="2" fill="white"/>
<circle cx="110" cy="182" r="2" fill="white"/>
<circle cx="114" cy="182" r="2" fill="white"/>
<circle cx="118" cy="182" r="2" fill="white"/>
<circle cx="122" cy="182" r="2" fill="white"/>
<circle cx="126" cy="182" r="2" fill="white"/>
<circle cx="130" cy="182" r="2" fill="white"/>
<circle cx="134" cy="182" r="2" fill="white"/>
<circle cx="138" cy="182" r="2" fill="white"/>
<circle cx="142" cy="182" r="2" fill="white"/>
<circle cx="146" cy="182" r="2" fill="white"/>
<circle cx="150" cy="182" r="2" fill="white"/>
<circle cx="154" cy="182" r="2" fill="white"/>
<circle cx="158" cy="182" r="2" fill="white"/>
<circle cx="162" cy="182" r="2" fill="white"/>
<circle cx="166" cy="182" r="2" fill="white"/>
<circle cx="158" cy="186" r="2" fill="white"/>
<circle cx="70" cy="186" r="2" fill="white"/>
<circle cx="70" cy="190" r="2" fill="white"/>
<circle cx="74" cy="194" r="2" fill="white"/>
<circle cx="78" cy="194" r="2" fill="white"/>
<circle cx="82" cy="194" r="2" fill="white"/>
<circle cx="86" cy="194" r="2" fill="white"/>
<circle cx="90" cy="194" r="2" fill="white"/>
<circle cx="94" cy="194" r="2" fill="white"/>
<circle cx="98" cy="194" r="2" fill="white"/>
<circle cx="102" cy="194" r="2" fill="white"/>
<circle cx="106" cy="194" r="2" fill="white"/>
<circle cx="110" cy="194" r="2" fill="white"/>
<circle cx="114" cy="194" r="2" fill="white"/>
<circle cx="118" cy="194" r="2" fill="white"/>
<circle cx="122" cy="194" r="2" fill="white"/>
<circle cx="126" cy="194" r="2" fill="white"/>
<circle cx="130" cy="194" r="2" fill="white"/>
<circle cx="134" cy="194" r="2" fill="white"/>
<circle cx="138" cy="194" r="2" fill="white"/>
<circle cx="142" cy="194" r="2" fill="white"/>
<circle cx="146" cy="194" r="2" fill="white"/>
<circle cx="150" cy="194" r="2" fill="white"/>
<circle cx="154" cy="194" r="2" fill="white"/>
<circle cx="158" cy="194" r="2" fill="white"/>
<circle cx="158" cy="190" r="2" fill="white"/>
<circle cx="38" cy="186" r="2" fill="white"/>
<circle cx="38" cy="190" r="2" fill="white"/>
<circle cx="38" cy="194" r="2" fill="white"/>
<circle cx="38" cy="198" r="2" fill="white"/>
<circle cx="38" cy="202" r="2" fill="white"/>
<circle cx="38" cy="178" r="2" fill="white"/>
<circle cx="38" cy="174" r="2" fill="white"/>
<circle cx="38" cy="170" r="2" fill="white"/>
<circle cx="38" cy="166" r="2" fill="white"/>
<circle cx="38" cy="162" r="2" fill="white"/>
<circle cx="38" cy="158" r="2" fill="white"/>
<circle cx="38" cy="154" r="2" fill="white"/>
<circle cx="38" cy="150" r="2" fill="white"/>
<circle cx="38" cy="146" r="2" fill="white"/>
<circle cx="38" cy="142" r="2" fill="white"/>
<circle cx="38" cy="138" r="2" fill="white"/>
<circle cx="38" cy="134" r="2" fill="white"/>
<circle cx="38" cy="130" r="2" fill="white"/>
<circle cx="38" cy="126" r="2" fill="white"/>
<circle cx="38" cy="122" r="2" fill="white"/>
<circle cx="38" cy="118" r="2" fill="white"/>
<circle cx="38" cy="114" r="2" fill="white"/>
<circle cx="34" cy="126" r="2" fill="white"/>
<circle cx="30" cy="126" r="2" fill="white"/>
<circle cx="26" cy="130" r="2" fill="white"/>
<circle cx="26" cy="134" r="2" fill="white"/>
<circle cx="26" cy="138" r="2" fill="white"/>
<circle cx="26" cy="142" r="2" fill="white"/>
<circle cx="26" cy="146" r="2" fill="white"/>
<circle cx="26" cy="150" r="2" fill="white"/>
<circle cx="26" cy="154" r="2" fill="white"/>
<circle cx="26" cy="158" r="2" fill="white"/>
<circle cx="26" cy="162" r="2" fill="white"/>
<circle cx="30" cy="162" r="2" fill="white"/>
<circle cx="34" cy="162" r="2" fill="white"/>
<circle cx="38" cy="110" r="2" fill="white"/>
<circle cx="38" cy="106" r="2" fill="white"/>
<circle cx="30" cy="106" r="2" fill="white"/>
<circle cx="34" cy="106" r="2" fill="white"/>
<circle cx="26" cy="106" r="2" fill="white"/>
<circle cx="26" cy="102" r="2" fill="white"/>
<circle cx="26" cy="98" r="2" fill="white"/>
<circle cx="30" cy="94" r="2" fill="white"/>
<circle cx="34" cy="94" r="2" fill="white"/>
<circle cx="38" cy="102" r="2" fill="white"/>
<circle cx="38" cy="98" r="2" fill="white"/>
<circle cx="38" cy="94" r="2" fill="white"/>
<circle cx="38" cy="90" r="2" fill="white"/>
<circle cx="18" cy="54" r="2" fill="white"/>
<circle cx="22" cy="54" r="2" fill="white"/>
<circle cx="26" cy="54" r="2" fill="white"/>
<circle cx="30" cy="54" r="2" fill="white"/>
<circle cx="34" cy="54" r="2" fill="white"/>
<circle cx="38" cy="58" r="2" fill="white"/>
<circle cx="38" cy="62" r="2" fill="white"/>
<circle cx="38" cy="66" r="2" fill="white"/>
<circle cx="38" cy="70" r="2" fill="white"/>
<circle cx="38" cy="74" r="2" fill="white"/>
<circle cx="42" cy="74" r="2" fill="white"/>
<circle cx="38" cy="78" r="2" fill="white"/>
<circle cx="38" cy="82" r="2" fill="white"/>
<circle cx="38" cy="86" r="2" fill="white"/>
<circle cx="58" cy="142" r="2" fill="white"/>
<circle cx="62" cy="146" r="2" fill="white"/>
<circle cx="74" cy="146" r="2" fill="white"/>
<circle cx="78" cy="142" r="2" fill="white"/>
<circle cx="82" cy="138" r="2" fill="white"/>
<circle cx="58" cy="138" r="2" fill="white"/>
<circle cx="54" cy="130" r="2" fill="white"/>
<circle cx="54" cy="134" r="2" fill="white"/>
<circle cx="54" cy="126" r="2" fill="white"/>
<circle cx="58" cy="126" r="2" fill="white"/>
<circle cx="62" cy="126" r="2" fill="white"/>
<circle cx="66" cy="126" r="2" fill="white"/>
<circle cx="70" cy="126" r="2" fill="white"/>
<circle cx="74" cy="126" r="2" fill="white"/>
<circle cx="54" cy="122" r="2" fill="white"/>
<circle cx="58" cy="118" r="2" fill="white"/>
<circle cx="58" cy="114" r="2" fill="white"/>
<circle cx="62" cy="110" r="2" fill="white"/>
<circle cx="62" cy="106" r="2" fill="white"/>
<circle cx="66" cy="102" r="2" fill="white"/>
<circle cx="70" cy="98" r="2" fill="white"/>
<circle cx="74" cy="98" r="2" fill="white"/>
<circle cx="78" cy="94" r="2" fill="white"/>
<circle cx="82" cy="94" r="2" fill="white"/>
<circle cx="86" cy="94" r="2" fill="white"/>
<circle cx="90" cy="94" r="2" fill="white"/>
<circle cx="94" cy="94" r="2" fill="white"/>
<circle cx="98" cy="94" r="2" fill="white"/>
<circle cx="102" cy="94" r="2" fill="white"/>
<circle cx="106" cy="98" r="2" fill="white"/>
<circle cx="110" cy="98" r="2" fill="white"/>
<circle cx="114" cy="102" r="2" fill="white"/>
<circle cx="122" cy="110" r="2" fill="white"/>
<circle cx="126" cy="114" r="2" fill="white"/>
<circle cx="126" cy="118" r="2" fill="white"/>
<circle cx="126" cy="122" r="2" fill="white"/>
<circle cx="126" cy="126" r="2" fill="white"/>
<circle cx="106" cy="126" r="2" fill="white"/>
<circle cx="110" cy="126" r="2" fill="white"/>
<circle cx="114" cy="126" r="2" fill="white"/>
<circle cx="118" cy="126" r="2" fill="white"/>
<circle cx="122" cy="126" r="2" fill="white"/>
<circle cx="90" cy="98" r="2" fill="white"/>
<circle cx="90" cy="102" r="2" fill="white"/>
<circle cx="90" cy="106" r="2" fill="white"/>
<circle cx="90" cy="110" r="2" fill="white"/>
<circle cx="90" cy="114" r="2" fill="white"/>
<circle cx="70" cy="106" r="2" fill="white"/>
<circle cx="74" cy="110" r="2" fill="white"/>
<circle cx="78" cy="114" r="2" fill="white"/>
<circle cx="82" cy="118" r="2" fill="white"/>
<circle cx="98" cy="118" r="2" fill="white"/>
<circle cx="102" cy="122" r="2" fill="white"/>
<circle cx="102" cy="130" r="2" fill="white"/>
<circle cx="98" cy="134" r="2" fill="white"/>
<circle cx="86" cy="138" r="2" fill="white"/>
<circle cx="90" cy="138" r="2" fill="white"/>
<circle cx="94" cy="138" r="2" fill="white"/>
<circle cx="82" cy="134" r="2" fill="white"/>
<circle cx="78" cy="126" r="2" fill="white"/>
<circle cx="78" cy="130" r="2" fill="white"/>
<circle cx="102" cy="138" r="2" fill="white"/>
<circle cx="106" cy="142" r="2" fill="white"/>
<circle cx="110" cy="146" r="2" fill="white"/>
<circle cx="114" cy="150" r="2" fill="white"/>
<circle cx="90" cy="142" r="2" fill="white"/>
<circle cx="90" cy="146" r="2" fill="white"/>
<circle cx="90" cy="150" r="2" fill="white"/>
<circle cx="90" cy="154" r="2" fill="white"/>
<circle cx="90" cy="158" r="2" fill="white"/>
<circle cx="114" cy="106" r="2" fill="white"/>
<circle cx="110" cy="110" r="2" fill="white"/>
<circle cx="106" cy="114" r="2" fill="white"/>
<circle cx="102" cy="118" r="2" fill="white"/>
<circle cx="126" cy="130" r="2" fill="white"/>
<circle cx="126" cy="134" r="2" fill="white"/>
<circle cx="126" cy="138" r="2" fill="white"/>
<circle cx="122" cy="142" r="2" fill="white"/>
<circle cx="122" cy="146" r="2" fill="white"/>
<circle cx="118" cy="150" r="2" fill="white"/>
<circle cx="114" cy="154" r="2" fill="white"/>
<circle cx="110" cy="158" r="2" fill="white"/>
<circle cx="106" cy="158" r="2" fill="white"/>
<circle cx="102" cy="162" r="2" fill="white"/>
<circle cx="98" cy="162" r="2" fill="white"/>
<circle cx="70" cy="154" r="2" fill="white"/>
<circle cx="74" cy="158" r="2" fill="white"/>
<circle cx="78" cy="162" r="2" fill="white"/>
<circle cx="82" cy="162" r="2" fill="white"/>
<circle cx="86" cy="162" r="2" fill="white"/>
<circle cx="90" cy="162" r="2" fill="white"/>
<circle cx="94" cy="162" r="2" fill="white"/>
<circle cx="146" cy="126" r="2" fill="white"/>
<circle cx="150" cy="126" r="2" fill="white"/>
<circle cx="154" cy="126" r="2" fill="white"/>
<circle cx="158" cy="126" r="2" fill="white"/>
<circle cx="162" cy="126" r="2" fill="white"/>
<circle cx="166" cy="126" r="2" fill="white"/>
<circle cx="170" cy="126" r="2" fill="white"/>
<circle cx="174" cy="126" r="2" fill="white"/>
<circle cx="178" cy="126" r="2" fill="white"/>
<circle cx="182" cy="126" r="2" fill="white"/>
<circle cx="186" cy="126" r="2" fill="white"/>
<circle cx="146" cy="110" r="2" fill="white"/>
<circle cx="150" cy="110" r="2" fill="white"/>
<circle cx="154" cy="110" r="2" fill="white"/>
<circle cx="158" cy="110" r="2" fill="white"/>
<circle cx="162" cy="110" r="2" fill="white"/>
<circle cx="166" cy="94" r="2" fill="white"/>
<circle cx="170" cy="94" r="2" fill="white"/>
<circle cx="174" cy="94" r="2" fill="white"/>
<circle cx="186" cy="94" r="2" fill="white"/>
<circle cx="194" cy="94" r="2" fill="white"/>
<circle cx="198" cy="94" r="2" fill="white"/>
<circle cx="202" cy="94" r="2" fill="white"/>
<circle cx="206" cy="94" r="2" fill="white"/>
<circle cx="210" cy="94" r="2" fill="white"/>
<circle cx="186" cy="110" r="2" fill="white"/>
<circle cx="190" cy="110" r="2" fill="white"/>
<circle cx="198" cy="110" r="2" fill="white"/>
<circle cx="202" cy="110" r="2" fill="white"/>
<circle cx="206" cy="110" r="2" fill="white"/>
<circle cx="146" cy="146" r="2" fill="white"/>
<circle cx="150" cy="146" r="2" fill="white"/>
<circle cx="154" cy="146" r="2" fill="white"/>
<circle cx="162" cy="146" r="2" fill="white"/>
<circle cx="166" cy="146" r="2" fill="white"/>
<circle cx="170" cy="146" r="2" fill="white"/>
<circle cx="186" cy="146" r="2" fill="white"/>
<circle cx="190" cy="146" r="2" fill="white"/>
<circle cx="194" cy="146" r="2" fill="white"/>
<circle cx="198" cy="146" r="2" fill="white"/>
<circle cx="202" cy="146" r="2" fill="white"/>
<circle cx="206" cy="146" r="2" fill="white"/>
<circle cx="142" cy="162" r="2" fill="white"/>
<circle cx="146" cy="162" r="2" fill="white"/>
<circle cx="150" cy="162" r="2" fill="white"/>
<circle cx="154" cy="162" r="2" fill="white"/>
<circle cx="158" cy="162" r="2" fill="white"/>
<circle cx="166" cy="162" r="2" fill="white"/>
<circle cx="170" cy="162" r="2" fill="white"/>
<circle cx="174" cy="162" r="2" fill="white"/>
<circle cx="178" cy="162" r="2" fill="white"/>
<circle cx="182" cy="162" r="2" fill="white"/>
<circle cx="186" cy="162" r="2" fill="white"/>
<circle cx="190" cy="162" r="2" fill="white"/>
<circle cx="194" cy="162" r="2" fill="white"/>
<circle cx="198" cy="162" r="2" fill="white"/>
<circle cx="202" cy="162" r="2" fill="white"/>
<circle cx="206" cy="162" r="2" fill="white"/>
<circle cx="210" cy="162" r="2" fill="white"/>
<circle cx="214" cy="162" r="2" fill="white"/>
<circle cx="118" cy="106" r="2" fill="white"/>
<circle cx="86" cy="114" r="2" fill="white"/>
<circle cx="78" cy="122" r="2" fill="white"/>
<circle cx="94" cy="114" r="2" fill="white"/>
<circle cx="102" cy="126" r="2" fill="white"/>
<circle cx="214" cy="78" r="2" fill="white"/>
<circle cx="218" cy="82" r="2" fill="white"/>
<circle cx="66" cy="154" r="2" fill="white"/>
<circle cx="66" cy="150" r="2" fill="white"/>
</svg>
