<svg width="256" height="256" viewBox="0 0 256 256" fill="none" xmlns="http://www.w3.org/2000/svg">
<circle cx="98" cy="38" r="2" fill="white"/>
<circle cx="102" cy="38" r="2" fill="white"/>
<circle cx="98" cy="34" r="2" fill="white"/>
<circle cx="98" cy="30" r="2" fill="white"/>
<circle cx="102" cy="26" r="2" fill="white"/>
<circle cx="106" cy="22" r="2" fill="white"/>
<circle cx="110" cy="18" r="2" fill="white"/>
<circle cx="114" cy="14" r="2" fill="white"/>
<circle cx="118" cy="14" r="2" fill="white"/>
<circle cx="122" cy="14" r="2" fill="white"/>
<circle cx="126" cy="14" r="2" fill="white"/>
<circle cx="130" cy="14" r="2" fill="white"/>
<circle cx="134" cy="14" r="2" fill="white"/>
<circle cx="138" cy="18" r="2" fill="white"/>
<circle cx="142" cy="18" r="2" fill="white"/>
<circle cx="146" cy="22" r="2" fill="white"/>
<circle cx="150" cy="26" r="2" fill="white"/>
<circle cx="154" cy="30" r="2" fill="white"/>
<circle cx="154" cy="34" r="2" fill="white"/>
<circle cx="154" cy="38" r="2" fill="white"/>
<circle cx="146" cy="38" r="2" fill="white"/>
<circle cx="150" cy="38" r="2" fill="white"/>
<circle cx="146" cy="42" r="2" fill="white"/>
<circle cx="146" cy="46" r="2" fill="white"/>
<circle cx="146" cy="50" r="2" fill="white"/>
<circle cx="150" cy="50" r="2" fill="white"/>
<circle cx="150" cy="46" r="2" fill="white"/>
<circle cx="158" cy="42" r="2" fill="white"/>
<circle cx="162" cy="42" r="2" fill="white"/>
<circle cx="162" cy="46" r="2" fill="white"/>
<circle cx="162" cy="50" r="2" fill="white"/>
<circle cx="158" cy="54" r="2" fill="white"/>
<circle cx="150" cy="58" r="2" fill="white"/>
<circle cx="154" cy="58" r="2" fill="white"/>
<circle cx="146" cy="54" r="2" fill="white"/>
<circle cx="150" cy="54" r="2" fill="white"/>
<circle cx="154" cy="54" r="2" fill="white"/>
<circle cx="126" cy="50" r="2" fill="white"/>
<circle cx="122" cy="54" r="2" fill="white"/>
<circle cx="118" cy="54" r="2" fill="white"/>
<circle cx="114" cy="54" r="2" fill="white"/>
<circle cx="110" cy="50" r="2" fill="white"/>
<circle cx="102" cy="46" r="2" fill="white"/>
<circle cx="102" cy="42" r="2" fill="white"/>
<circle cx="90" cy="38" r="2" fill="white"/>
<circle cx="86" cy="42" r="2" fill="white"/>
<circle cx="86" cy="46" r="2" fill="white"/>
<circle cx="86" cy="50" r="2" fill="white"/>
<circle cx="90" cy="54" r="2" fill="white"/>
<circle cx="94" cy="54" r="2" fill="white"/>
<circle cx="98" cy="54" r="2" fill="white"/>
<circle cx="102" cy="54" r="2" fill="white"/>
<circle cx="98" cy="46" r="2" fill="white"/>
<circle cx="102" cy="50" r="2" fill="white"/>
<circle cx="98" cy="50" r="2" fill="white"/>
<circle cx="94" cy="58" r="2" fill="white"/>
<circle cx="94" cy="62" r="2" fill="white"/>
<circle cx="94" cy="66" r="2" fill="white"/>
<circle cx="94" cy="70" r="2" fill="white"/>
<circle cx="94" cy="74" r="2" fill="white"/>
<circle cx="94" cy="78" r="2" fill="white"/>
<circle cx="94" cy="82" r="2" fill="white"/>
<circle cx="94" cy="86" r="2" fill="white"/>
<circle cx="98" cy="90" r="2" fill="white"/>
<circle cx="98" cy="94" r="2" fill="white"/>
<circle cx="98" cy="98" r="2" fill="white"/>
<circle cx="102" cy="102" r="2" fill="white"/>
<circle cx="102" cy="106" r="2" fill="white"/>
<circle cx="106" cy="110" r="2" fill="white"/>
<circle cx="106" cy="114" r="2" fill="white"/>
<circle cx="110" cy="118" r="2" fill="white"/>
<circle cx="114" cy="122" r="2" fill="white"/>
<circle cx="106" cy="118" r="2" fill="white"/>
<circle cx="102" cy="118" r="2" fill="white"/>
<circle cx="98" cy="118" r="2" fill="white"/>
<circle cx="94" cy="118" r="2" fill="white"/>
<circle cx="90" cy="118" r="2" fill="white"/>
<circle cx="86" cy="118" r="2" fill="white"/>
<circle cx="82" cy="122" r="2" fill="white"/>
<circle cx="78" cy="126" r="2" fill="white"/>
<circle cx="74" cy="130" r="2" fill="white"/>
<circle cx="74" cy="134" r="2" fill="white"/>
<circle cx="70" cy="138" r="2" fill="white"/>
<circle cx="70" cy="142" r="2" fill="white"/>
<circle cx="66" cy="146" r="2" fill="white"/>
<circle cx="66" cy="150" r="2" fill="white"/>
<circle cx="62" cy="154" r="2" fill="white"/>
<circle cx="62" cy="158" r="2" fill="white"/>
<circle cx="62" cy="162" r="2" fill="white"/>
<circle cx="62" cy="166" r="2" fill="white"/>
<circle cx="58" cy="170" r="2" fill="white"/>
<circle cx="58" cy="174" r="2" fill="white"/>
<circle cx="62" cy="174" r="2" fill="white"/>
<circle cx="66" cy="174" r="2" fill="white"/>
<circle cx="70" cy="174" r="2" fill="white"/>
<circle cx="74" cy="174" r="2" fill="white"/>
<circle cx="78" cy="174" r="2" fill="white"/>
<circle cx="82" cy="174" r="2" fill="white"/>
<circle cx="86" cy="178" r="2" fill="white"/>
<circle cx="90" cy="182" r="2" fill="white"/>
<circle cx="94" cy="182" r="2" fill="white"/>
<circle cx="98" cy="186" r="2" fill="white"/>
<circle cx="102" cy="190" r="2" fill="white"/>
<circle cx="58" cy="178" r="2" fill="white"/>
<circle cx="58" cy="182" r="2" fill="white"/>
<circle cx="62" cy="186" r="2" fill="white"/>
<circle cx="66" cy="186" r="2" fill="white"/>
<circle cx="70" cy="190" r="2" fill="white"/>
<circle cx="74" cy="190" r="2" fill="white"/>
<circle cx="78" cy="194" r="2" fill="white"/>
<circle cx="82" cy="194" r="2" fill="white"/>
<circle cx="86" cy="194" r="2" fill="white"/>
<circle cx="90" cy="194" r="2" fill="white"/>
<circle cx="94" cy="194" r="2" fill="white"/>
<circle cx="98" cy="194" r="2" fill="white"/>
<circle cx="102" cy="194" r="2" fill="white"/>
<circle cx="106" cy="190" r="2" fill="white"/>
<circle cx="106" cy="186" r="2" fill="white"/>
<circle cx="110" cy="182" r="2" fill="white"/>
<circle cx="114" cy="178" r="2" fill="white"/>
<circle cx="114" cy="174" r="2" fill="white"/>
<circle cx="118" cy="170" r="2" fill="white"/>
<circle cx="122" cy="166" r="2" fill="white"/>
<circle cx="122" cy="162" r="2" fill="white"/>
<circle cx="126" cy="162" r="2" fill="white"/>
<circle cx="154" cy="62" r="2" fill="white"/>
<circle cx="154" cy="66" r="2" fill="white"/>
<circle cx="158" cy="70" r="2" fill="white"/>
<circle cx="158" cy="74" r="2" fill="white"/>
<circle cx="162" cy="78" r="2" fill="white"/>
<circle cx="162" cy="82" r="2" fill="white"/>
<circle cx="166" cy="86" r="2" fill="white"/>
<circle cx="166" cy="90" r="2" fill="white"/>
<circle cx="170" cy="94" r="2" fill="white"/>
<circle cx="170" cy="98" r="2" fill="white"/>
<circle cx="174" cy="102" r="2" fill="white"/>
<circle cx="174" cy="106" r="2" fill="white"/>
<circle cx="178" cy="110" r="2" fill="white"/>
<circle cx="182" cy="110" r="2" fill="white"/>
<circle cx="186" cy="106" r="2" fill="white"/>
<circle cx="182" cy="114" r="2" fill="white"/>
<circle cx="190" cy="102" r="2" fill="white"/>
<circle cx="194" cy="98" r="2" fill="white"/>
<circle cx="198" cy="94" r="2" fill="white"/>
<circle cx="198" cy="90" r="2" fill="white"/>
<circle cx="202" cy="86" r="2" fill="white"/>
<circle cx="206" cy="82" r="2" fill="white"/>
<circle cx="210" cy="78" r="2" fill="white"/>
<circle cx="210" cy="74" r="2" fill="white"/>
<circle cx="210" cy="70" r="2" fill="white"/>
<circle cx="210" cy="66" r="2" fill="white"/>
<circle cx="214" cy="62" r="2" fill="white"/>
<circle cx="214" cy="58" r="2" fill="white"/>
<circle cx="214" cy="54" r="2" fill="white"/>
<circle cx="218" cy="54" r="2" fill="white"/>
<circle cx="210" cy="50" r="2" fill="white"/>
<circle cx="222" cy="58" r="2" fill="white"/>
<circle cx="226" cy="58" r="2" fill="white"/>
<circle cx="230" cy="62" r="2" fill="white"/>
<circle cx="234" cy="62" r="2" fill="white"/>
<circle cx="238" cy="62" r="2" fill="white"/>
<circle cx="242" cy="62" r="2" fill="white"/>
<circle cx="246" cy="58" r="2" fill="white"/>
<circle cx="250" cy="54" r="2" fill="white"/>
<circle cx="246" cy="50" r="2" fill="white"/>
<circle cx="242" cy="46" r="2" fill="white"/>
<circle cx="238" cy="46" r="2" fill="white"/>
<circle cx="234" cy="42" r="2" fill="white"/>
<circle cx="230" cy="42" r="2" fill="white"/>
<circle cx="226" cy="42" r="2" fill="white"/>
<circle cx="222" cy="38" r="2" fill="white"/>
<circle cx="218" cy="38" r="2" fill="white"/>
<circle cx="214" cy="38" r="2" fill="white"/>
<circle cx="250" cy="58" r="2" fill="white"/>
<circle cx="250" cy="62" r="2" fill="white"/>
<circle cx="250" cy="66" r="2" fill="white"/>
<circle cx="250" cy="70" r="2" fill="white"/>
<circle cx="250" cy="74" r="2" fill="white"/>
<circle cx="246" cy="78" r="2" fill="white"/>
<circle cx="246" cy="82" r="2" fill="white"/>
<circle cx="246" cy="86" r="2" fill="white"/>
<circle cx="242" cy="90" r="2" fill="white"/>
<circle cx="242" cy="94" r="2" fill="white"/>
<circle cx="242" cy="98" r="2" fill="white"/>
<circle cx="238" cy="102" r="2" fill="white"/>
<circle cx="238" cy="106" r="2" fill="white"/>
<circle cx="234" cy="110" r="2" fill="white"/>
<circle cx="230" cy="114" r="2" fill="white"/>
<circle cx="226" cy="118" r="2" fill="white"/>
<circle cx="222" cy="122" r="2" fill="white"/>
<circle cx="218" cy="126" r="2" fill="white"/>
<circle cx="214" cy="130" r="2" fill="white"/>
<circle cx="210" cy="134" r="2" fill="white"/>
<circle cx="206" cy="138" r="2" fill="white"/>
<circle cx="214" cy="138" r="2" fill="white"/>
<circle cx="218" cy="142" r="2" fill="white"/>
<circle cx="222" cy="146" r="2" fill="white"/>
<circle cx="226" cy="150" r="2" fill="white"/>
<circle cx="230" cy="154" r="2" fill="white"/>
<circle cx="234" cy="158" r="2" fill="white"/>
<circle cx="238" cy="162" r="2" fill="white"/>
<circle cx="242" cy="166" r="2" fill="white"/>
<circle cx="246" cy="162" r="2" fill="white"/>
<circle cx="250" cy="158" r="2" fill="white"/>
<circle cx="254" cy="154" r="2" fill="white"/>
<circle cx="246" cy="170" r="2" fill="white"/>
<circle cx="246" cy="174" r="2" fill="white"/>
<circle cx="250" cy="178" r="2" fill="white"/>
<circle cx="250" cy="182" r="2" fill="white"/>
<circle cx="250" cy="186" r="2" fill="white"/>
<circle cx="250" cy="190" r="2" fill="white"/>
<circle cx="250" cy="194" r="2" fill="white"/>
<circle cx="250" cy="198" r="2" fill="white"/>
<circle cx="254" cy="194" r="2" fill="white"/>
<circle cx="18" cy="186" r="2" fill="white"/>
<circle cx="22" cy="186" r="2" fill="white"/>
<circle cx="26" cy="190" r="2" fill="white"/>
<circle cx="30" cy="194" r="2" fill="white"/>
<circle cx="34" cy="198" r="2" fill="white"/>
<circle cx="38" cy="198" r="2" fill="white"/>
<circle cx="42" cy="202" r="2" fill="white"/>
<circle cx="46" cy="202" r="2" fill="white"/>
<circle cx="50" cy="206" r="2" fill="white"/>
<circle cx="54" cy="206" r="2" fill="white"/>
<circle cx="58" cy="206" r="2" fill="white"/>
<circle cx="62" cy="210" r="2" fill="white"/>
<circle cx="66" cy="210" r="2" fill="white"/>
<circle cx="70" cy="210" r="2" fill="white"/>
<circle cx="74" cy="210" r="2" fill="white"/>
<circle cx="78" cy="210" r="2" fill="white"/>
<circle cx="82" cy="214" r="2" fill="white"/>
<circle cx="86" cy="214" r="2" fill="white"/>
<circle cx="90" cy="214" r="2" fill="white"/>
<circle cx="94" cy="214" r="2" fill="white"/>
<circle cx="98" cy="214" r="2" fill="white"/>
<circle cx="106" cy="214" r="2" fill="white"/>
<circle cx="110" cy="214" r="2" fill="white"/>
<circle cx="114" cy="214" r="2" fill="white"/>
<circle cx="118" cy="214" r="2" fill="white"/>
<circle cx="122" cy="214" r="2" fill="white"/>
<circle cx="126" cy="210" r="2" fill="white"/>
<circle cx="130" cy="210" r="2" fill="white"/>
<circle cx="134" cy="210" r="2" fill="white"/>
<circle cx="138" cy="210" r="2" fill="white"/>
<circle cx="142" cy="210" r="2" fill="white"/>
<circle cx="146" cy="206" r="2" fill="white"/>
<circle cx="150" cy="206" r="2" fill="white"/>
<circle cx="154" cy="206" r="2" fill="white"/>
<circle cx="158" cy="206" r="2" fill="white"/>
<circle cx="162" cy="202" r="2" fill="white"/>
<circle cx="166" cy="202" r="2" fill="white"/>
<circle cx="170" cy="198" r="2" fill="white"/>
<circle cx="174" cy="198" r="2" fill="white"/>
<circle cx="178" cy="194" r="2" fill="white"/>
<circle cx="182" cy="190" r="2" fill="white"/>
<circle cx="186" cy="186" r="2" fill="white"/>
<circle cx="190" cy="186" r="2" fill="white"/>
<circle cx="190" cy="190" r="2" fill="white"/>
<circle cx="190" cy="194" r="2" fill="white"/>
<circle cx="190" cy="198" r="2" fill="white"/>
<circle cx="190" cy="202" r="2" fill="white"/>
<circle cx="190" cy="206" r="2" fill="white"/>
<circle cx="194" cy="210" r="2" fill="white"/>
<circle cx="194" cy="214" r="2" fill="white"/>
<circle cx="194" cy="218" r="2" fill="white"/>
<circle cx="190" cy="222" r="2" fill="white"/>
<circle cx="190" cy="226" r="2" fill="white"/>
<circle cx="190" cy="230" r="2" fill="white"/>
<circle cx="186" cy="234" r="2" fill="white"/>
<circle cx="18" cy="190" r="2" fill="white"/>
<circle cx="18" cy="194" r="2" fill="white"/>
<circle cx="18" cy="198" r="2" fill="white"/>
<circle cx="18" cy="202" r="2" fill="white"/>
<circle cx="18" cy="206" r="2" fill="white"/>
<circle cx="18" cy="210" r="2" fill="white"/>
<circle cx="18" cy="214" r="2" fill="white"/>
<circle cx="18" cy="218" r="2" fill="white"/>
<circle cx="18" cy="222" r="2" fill="white"/>
<circle cx="18" cy="226" r="2" fill="white"/>
<circle cx="18" cy="230" r="2" fill="white"/>
<circle cx="18" cy="234" r="2" fill="white"/>
<circle cx="18" cy="238" r="2" fill="white"/>
<circle cx="30" cy="186" r="2" fill="white"/>
<circle cx="34" cy="186" r="2" fill="white"/>
<circle cx="38" cy="190" r="2" fill="white"/>
<circle cx="38" cy="194" r="2" fill="white"/>
<circle cx="42" cy="198" r="2" fill="white"/>
<circle cx="46" cy="194" r="2" fill="white"/>
<circle cx="50" cy="194" r="2" fill="white"/>
<circle cx="54" cy="198" r="2" fill="white"/>
<circle cx="58" cy="202" r="2" fill="white"/>
<circle cx="62" cy="202" r="2" fill="white"/>
<circle cx="66" cy="198" r="2" fill="white"/>
<circle cx="70" cy="198" r="2" fill="white"/>
<circle cx="74" cy="202" r="2" fill="white"/>
<circle cx="74" cy="206" r="2" fill="white"/>
<circle cx="78" cy="206" r="2" fill="white"/>
<circle cx="82" cy="202" r="2" fill="white"/>
<circle cx="86" cy="202" r="2" fill="white"/>
<circle cx="90" cy="206" r="2" fill="white"/>
<circle cx="94" cy="210" r="2" fill="white"/>
<circle cx="94" cy="206" r="2" fill="white"/>
<circle cx="102" cy="210" r="2" fill="white"/>
<circle cx="102" cy="214" r="2" fill="white"/>
<circle cx="102" cy="206" r="2" fill="white"/>
<circle cx="106" cy="206" r="2" fill="white"/>
<circle cx="110" cy="206" r="2" fill="white"/>
<circle cx="114" cy="210" r="2" fill="white"/>
<circle cx="118" cy="210" r="2" fill="white"/>
<circle cx="118" cy="206" r="2" fill="white"/>
<circle cx="122" cy="202" r="2" fill="white"/>
<circle cx="126" cy="202" r="2" fill="white"/>
<circle cx="130" cy="202" r="2" fill="white"/>
<circle cx="130" cy="206" r="2" fill="white"/>
<circle cx="134" cy="206" r="2" fill="white"/>
<circle cx="138" cy="202" r="2" fill="white"/>
<circle cx="142" cy="202" r="2" fill="white"/>
<circle cx="150" cy="202" r="2" fill="white"/>
<circle cx="150" cy="198" r="2" fill="white"/>
<circle cx="154" cy="198" r="2" fill="white"/>
<circle cx="158" cy="198" r="2" fill="white"/>
<circle cx="162" cy="198" r="2" fill="white"/>
<circle cx="178" cy="186" r="2" fill="white"/>
<circle cx="174" cy="186" r="2" fill="white"/>
<circle cx="170" cy="190" r="2" fill="white"/>
<circle cx="166" cy="194" r="2" fill="white"/>
<circle cx="94" cy="38" r="2" fill="white"/>
</svg>
