<svg width="256" height="256" viewBox="0 0 256 256" fill="none" xmlns="http://www.w3.org/2000/svg">
<circle cx="54" cy="42" r="2" fill="white"/>
<circle cx="54" cy="38" r="2" fill="white"/>
<circle cx="54" cy="34" r="2" fill="white"/>
<circle cx="54" cy="30" r="2" fill="white"/>
<circle cx="54" cy="26" r="2" fill="white"/>
<circle cx="58" cy="22" r="2" fill="white"/>
<circle cx="58" cy="18" r="2" fill="white"/>
<circle cx="62" cy="14" r="2" fill="white"/>
<circle cx="66" cy="10" r="2" fill="white"/>
<circle cx="70" cy="6" r="2" fill="white"/>
<circle cx="74" cy="6" r="2" fill="white"/>
<circle cx="78" cy="2" r="2" fill="white"/>
<circle cx="82" cy="2" r="2" fill="white"/>
<circle cx="86" cy="2" r="2" fill="white"/>
<circle cx="90" cy="2" r="2" fill="white"/>
<circle cx="94" cy="2" r="2" fill="white"/>
<circle cx="98" cy="6" r="2" fill="white"/>
<circle cx="102" cy="6" r="2" fill="white"/>
<circle cx="106" cy="10" r="2" fill="white"/>
<circle cx="110" cy="10" r="2" fill="white"/>
<circle cx="114" cy="14" r="2" fill="white"/>
<circle cx="118" cy="18" r="2" fill="white"/>
<circle cx="118" cy="22" r="2" fill="white"/>
<circle cx="126" cy="30" r="2" fill="white"/>
<circle cx="130" cy="30" r="2" fill="white"/>
<circle cx="130" cy="34" r="2" fill="white"/>
<circle cx="126" cy="38" r="2" fill="white"/>
<circle cx="130" cy="38" r="2" fill="white"/>
<circle cx="122" cy="38" r="2" fill="white"/>
<circle cx="118" cy="26" r="2" fill="white"/>
<circle cx="122" cy="26" r="2" fill="white"/>
<circle cx="114" cy="26" r="2" fill="white"/>
<circle cx="110" cy="30" r="2" fill="white"/>
<circle cx="110" cy="34" r="2" fill="white"/>
<circle cx="114" cy="38" r="2" fill="white"/>
<circle cx="118" cy="38" r="2" fill="white"/>
<circle cx="122" cy="34" r="2" fill="white"/>
<circle cx="126" cy="34" r="2" fill="white"/>
<circle cx="90" cy="30" r="2" fill="white"/>
<circle cx="94" cy="34" r="2" fill="white"/>
<circle cx="98" cy="34" r="2" fill="white"/>
<circle cx="102" cy="38" r="2" fill="white"/>
<circle cx="98" cy="42" r="2" fill="white"/>
<circle cx="82" cy="30" r="2" fill="white"/>
<circle cx="86" cy="30" r="2" fill="white"/>
<circle cx="78" cy="34" r="2" fill="white"/>
<circle cx="78" cy="38" r="2" fill="white"/>
<circle cx="82" cy="42" r="2" fill="white"/>
<circle cx="86" cy="42" r="2" fill="white"/>
<circle cx="90" cy="42" r="2" fill="white"/>
<circle cx="94" cy="42" r="2" fill="white"/>
<circle cx="94" cy="38" r="2" fill="white"/>
<circle cx="90" cy="38" r="2" fill="white"/>
<circle cx="122" cy="42" r="2" fill="white"/>
<circle cx="122" cy="46" r="2" fill="white"/>
<circle cx="126" cy="50" r="2" fill="white"/>
<circle cx="126" cy="54" r="2" fill="white"/>
<circle cx="126" cy="58" r="2" fill="white"/>
<circle cx="122" cy="62" r="2" fill="white"/>
<circle cx="118" cy="66" r="2" fill="white"/>
<circle cx="114" cy="70" r="2" fill="white"/>
<circle cx="110" cy="70" r="2" fill="white"/>
<circle cx="106" cy="70" r="2" fill="white"/>
<circle cx="102" cy="70" r="2" fill="white"/>
<circle cx="98" cy="70" r="2" fill="white"/>
<circle cx="82" cy="54" r="2" fill="white"/>
<circle cx="82" cy="58" r="2" fill="white"/>
<circle cx="82" cy="62" r="2" fill="white"/>
<circle cx="86" cy="66" r="2" fill="white"/>
<circle cx="90" cy="70" r="2" fill="white"/>
<circle cx="94" cy="70" r="2" fill="white"/>
<circle cx="54" cy="46" r="2" fill="white"/>
<circle cx="54" cy="50" r="2" fill="white"/>
<circle cx="54" cy="54" r="2" fill="white"/>
<circle cx="54" cy="58" r="2" fill="white"/>
<circle cx="54" cy="62" r="2" fill="white"/>
<circle cx="54" cy="66" r="2" fill="white"/>
<circle cx="54" cy="70" r="2" fill="white"/>
<circle cx="54" cy="74" r="2" fill="white"/>
<circle cx="54" cy="78" r="2" fill="white"/>
<circle cx="54" cy="82" r="2" fill="white"/>
<circle cx="54" cy="86" r="2" fill="white"/>
<circle cx="58" cy="90" r="2" fill="white"/>
<circle cx="58" cy="94" r="2" fill="white"/>
<circle cx="58" cy="98" r="2" fill="white"/>
<circle cx="58" cy="102" r="2" fill="white"/>
<circle cx="58" cy="106" r="2" fill="white"/>
<circle cx="58" cy="110" r="2" fill="white"/>
<circle cx="58" cy="114" r="2" fill="white"/>
<circle cx="58" cy="118" r="2" fill="white"/>
<circle cx="58" cy="122" r="2" fill="white"/>
<circle cx="58" cy="126" r="2" fill="white"/>
<circle cx="58" cy="130" r="2" fill="white"/>
<circle cx="58" cy="134" r="2" fill="white"/>
<circle cx="58" cy="138" r="2" fill="white"/>
<circle cx="54" cy="142" r="2" fill="white"/>
<circle cx="54" cy="146" r="2" fill="white"/>
<circle cx="54" cy="150" r="2" fill="white"/>
<circle cx="54" cy="154" r="2" fill="white"/>
<circle cx="58" cy="150" r="2" fill="white"/>
<circle cx="50" cy="154" r="2" fill="white"/>
<circle cx="50" cy="158" r="2" fill="white"/>
<circle cx="46" cy="158" r="2" fill="white"/>
<circle cx="46" cy="162" r="2" fill="white"/>
<circle cx="42" cy="166" r="2" fill="white"/>
<circle cx="42" cy="170" r="2" fill="white"/>
<circle cx="38" cy="174" r="2" fill="white"/>
<circle cx="38" cy="178" r="2" fill="white"/>
<circle cx="38" cy="182" r="2" fill="white"/>
<circle cx="38" cy="186" r="2" fill="white"/>
<circle cx="38" cy="190" r="2" fill="white"/>
<circle cx="38" cy="194" r="2" fill="white"/>
<circle cx="38" cy="198" r="2" fill="white"/>
<circle cx="38" cy="202" r="2" fill="white"/>
<circle cx="38" cy="206" r="2" fill="white"/>
<circle cx="38" cy="210" r="2" fill="white"/>
<circle cx="34" cy="210" r="2" fill="white"/>
<circle cx="30" cy="214" r="2" fill="white"/>
<circle cx="26" cy="218" r="2" fill="white"/>
<circle cx="22" cy="222" r="2" fill="white"/>
<circle cx="18" cy="226" r="2" fill="white"/>
<circle cx="14" cy="226" r="2" fill="white"/>
<circle cx="10" cy="230" r="2" fill="white"/>
<circle cx="6" cy="230" r="2" fill="white"/>
<circle cx="2" cy="230" r="2" fill="white"/>
<circle cx="42" cy="206" r="2" fill="white"/>
<circle cx="46" cy="210" r="2" fill="white"/>
<circle cx="50" cy="214" r="2" fill="white"/>
<circle cx="54" cy="218" r="2" fill="white"/>
<circle cx="58" cy="218" r="2" fill="white"/>
<circle cx="62" cy="222" r="2" fill="white"/>
<circle cx="66" cy="226" r="2" fill="white"/>
<circle cx="70" cy="226" r="2" fill="white"/>
<circle cx="74" cy="230" r="2" fill="white"/>
<circle cx="78" cy="230" r="2" fill="white"/>
<circle cx="82" cy="230" r="2" fill="white"/>
<circle cx="86" cy="230" r="2" fill="white"/>
<circle cx="90" cy="230" r="2" fill="white"/>
<circle cx="94" cy="230" r="2" fill="white"/>
<circle cx="98" cy="230" r="2" fill="white"/>
<circle cx="102" cy="230" r="2" fill="white"/>
<circle cx="106" cy="230" r="2" fill="white"/>
<circle cx="110" cy="230" r="2" fill="white"/>
<circle cx="114" cy="230" r="2" fill="white"/>
<circle cx="118" cy="226" r="2" fill="white"/>
<circle cx="122" cy="226" r="2" fill="white"/>
<circle cx="126" cy="226" r="2" fill="white"/>
<circle cx="130" cy="222" r="2" fill="white"/>
<circle cx="134" cy="222" r="2" fill="white"/>
<circle cx="138" cy="218" r="2" fill="white"/>
<circle cx="142" cy="218" r="2" fill="white"/>
<circle cx="142" cy="214" r="2" fill="white"/>
<circle cx="142" cy="210" r="2" fill="white"/>
<circle cx="146" cy="206" r="2" fill="white"/>
<circle cx="146" cy="202" r="2" fill="white"/>
<circle cx="146" cy="198" r="2" fill="white"/>
<circle cx="150" cy="194" r="2" fill="white"/>
<circle cx="150" cy="190" r="2" fill="white"/>
<circle cx="146" cy="186" r="2" fill="white"/>
<circle cx="146" cy="182" r="2" fill="white"/>
<circle cx="142" cy="178" r="2" fill="white"/>
<circle cx="138" cy="174" r="2" fill="white"/>
<circle cx="134" cy="174" r="2" fill="white"/>
<circle cx="126" cy="170" r="2" fill="white"/>
<circle cx="130" cy="170" r="2" fill="white"/>
<circle cx="122" cy="166" r="2" fill="white"/>
<circle cx="118" cy="170" r="2" fill="white"/>
<circle cx="114" cy="170" r="2" fill="white"/>
<circle cx="110" cy="174" r="2" fill="white"/>
<circle cx="106" cy="178" r="2" fill="white"/>
<circle cx="98" cy="182" r="2" fill="white"/>
<circle cx="102" cy="182" r="2" fill="white"/>
<circle cx="94" cy="186" r="2" fill="white"/>
<circle cx="90" cy="190" r="2" fill="white"/>
<circle cx="94" cy="182" r="2" fill="white"/>
<circle cx="90" cy="182" r="2" fill="white"/>
<circle cx="126" cy="238" r="2" fill="white"/>
<circle cx="130" cy="238" r="2" fill="white"/>
<circle cx="134" cy="242" r="2" fill="white"/>
<circle cx="138" cy="242" r="2" fill="white"/>
<circle cx="142" cy="242" r="2" fill="white"/>
<circle cx="102" cy="78" r="2" fill="white"/>
<circle cx="106" cy="82" r="2" fill="white"/>
<circle cx="106" cy="86" r="2" fill="white"/>
<circle cx="106" cy="90" r="2" fill="white"/>
<circle cx="106" cy="94" r="2" fill="white"/>
<circle cx="110" cy="98" r="2" fill="white"/>
<circle cx="110" cy="102" r="2" fill="white"/>
<circle cx="110" cy="106" r="2" fill="white"/>
<circle cx="110" cy="110" r="2" fill="white"/>
<circle cx="110" cy="114" r="2" fill="white"/>
<circle cx="114" cy="118" r="2" fill="white"/>
<circle cx="114" cy="122" r="2" fill="white"/>
<circle cx="118" cy="122" r="2" fill="white"/>
<circle cx="114" cy="126" r="2" fill="white"/>
<circle cx="142" cy="126" r="2" fill="white"/>
<circle cx="146" cy="126" r="2" fill="white"/>
<circle cx="150" cy="126" r="2" fill="white"/>
<circle cx="154" cy="126" r="2" fill="white"/>
<circle cx="158" cy="126" r="2" fill="white"/>
<circle cx="162" cy="126" r="2" fill="white"/>
<circle cx="166" cy="126" r="2" fill="white"/>
<circle cx="170" cy="126" r="2" fill="white"/>
<circle cx="174" cy="126" r="2" fill="white"/>
<circle cx="178" cy="130" r="2" fill="white"/>
<circle cx="182" cy="134" r="2" fill="white"/>
<circle cx="186" cy="138" r="2" fill="white"/>
<circle cx="190" cy="142" r="2" fill="white"/>
<circle cx="194" cy="146" r="2" fill="white"/>
<circle cx="194" cy="150" r="2" fill="white"/>
<circle cx="194" cy="154" r="2" fill="white"/>
<circle cx="194" cy="158" r="2" fill="white"/>
<circle cx="194" cy="162" r="2" fill="white"/>
<circle cx="194" cy="166" r="2" fill="white"/>
<circle cx="190" cy="170" r="2" fill="white"/>
<circle cx="186" cy="174" r="2" fill="white"/>
<circle cx="174" cy="142" r="2" fill="white"/>
<circle cx="178" cy="142" r="2" fill="white"/>
<circle cx="182" cy="146" r="2" fill="white"/>
<circle cx="186" cy="150" r="2" fill="white"/>
<circle cx="190" cy="154" r="2" fill="white"/>
<circle cx="182" cy="210" r="2" fill="white"/>
<circle cx="186" cy="206" r="2" fill="white"/>
<circle cx="190" cy="206" r="2" fill="white"/>
<circle cx="194" cy="206" r="2" fill="white"/>
<circle cx="198" cy="202" r="2" fill="white"/>
<circle cx="202" cy="202" r="2" fill="white"/>
<circle cx="206" cy="202" r="2" fill="white"/>
<circle cx="210" cy="198" r="2" fill="white"/>
<circle cx="214" cy="198" r="2" fill="white"/>
<circle cx="218" cy="198" r="2" fill="white"/>
<circle cx="226" cy="198" r="2" fill="white"/>
<circle cx="230" cy="202" r="2" fill="white"/>
<circle cx="230" cy="206" r="2" fill="white"/>
<circle cx="230" cy="210" r="2" fill="white"/>
<circle cx="230" cy="214" r="2" fill="white"/>
<circle cx="230" cy="218" r="2" fill="white"/>
<circle cx="230" cy="222" r="2" fill="white"/>
<circle cx="230" cy="226" r="2" fill="white"/>
<circle cx="230" cy="230" r="2" fill="white"/>
<circle cx="230" cy="234" r="2" fill="white"/>
<circle cx="230" cy="238" r="2" fill="white"/>
<circle cx="226" cy="242" r="2" fill="white"/>
<circle cx="226" cy="246" r="2" fill="white"/>
<circle cx="218" cy="250" r="2" fill="white"/>
<circle cx="222" cy="250" r="2" fill="white"/>
<circle cx="214" cy="250" r="2" fill="white"/>
<circle cx="210" cy="254" r="2" fill="white"/>
<circle cx="206" cy="254" r="2" fill="white"/>
<circle cx="218" cy="202" r="2" fill="white"/>
<circle cx="218" cy="206" r="2" fill="white"/>
<circle cx="214" cy="222" r="2" fill="white"/>
<circle cx="214" cy="226" r="2" fill="white"/>
<circle cx="214" cy="230" r="2" fill="white"/>
<circle cx="214" cy="234" r="2" fill="white"/>
<circle cx="146" cy="222" r="2" fill="white"/>
<circle cx="150" cy="222" r="2" fill="white"/>
<circle cx="154" cy="222" r="2" fill="white"/>
<circle cx="158" cy="222" r="2" fill="white"/>
<circle cx="162" cy="218" r="2" fill="white"/>
<circle cx="166" cy="214" r="2" fill="white"/>
<circle cx="170" cy="210" r="2" fill="white"/>
<circle cx="174" cy="206" r="2" fill="white"/>
<circle cx="178" cy="202" r="2" fill="white"/>
<circle cx="182" cy="198" r="2" fill="white"/>
<circle cx="186" cy="194" r="2" fill="white"/>
<circle cx="190" cy="190" r="2" fill="white"/>
<circle cx="190" cy="186" r="2" fill="white"/>
<circle cx="186" cy="182" r="2" fill="white"/>
<circle cx="186" cy="178" r="2" fill="white"/>
<circle cx="62" cy="254" r="2" fill="white"/>
<circle cx="62" cy="250" r="2" fill="white"/>
<circle cx="182" cy="170" r="2" fill="white"/>
<circle cx="178" cy="166" r="2" fill="white"/>
<circle cx="174" cy="162" r="2" fill="white"/>
<circle cx="170" cy="158" r="2" fill="white"/>
<circle cx="166" cy="154" r="2" fill="white"/>
<circle cx="162" cy="150" r="2" fill="white"/>
<circle cx="158" cy="146" r="2" fill="white"/>
<circle cx="154" cy="142" r="2" fill="white"/>
<circle cx="150" cy="138" r="2" fill="white"/>
<circle cx="146" cy="134" r="2" fill="white"/>
<circle cx="142" cy="130" r="2" fill="white"/>
<circle cx="138" cy="126" r="2" fill="white"/>
<circle cx="134" cy="122" r="2" fill="white"/>
<circle cx="94" cy="146" r="2" fill="white"/>
<circle cx="98" cy="142" r="2" fill="white"/>
<circle cx="102" cy="138" r="2" fill="white"/>
<circle cx="106" cy="134" r="2" fill="white"/>
<circle cx="110" cy="130" r="2" fill="white"/>
<circle cx="122" cy="118" r="2" fill="white"/>
<circle cx="126" cy="114" r="2" fill="white"/>
<circle cx="130" cy="118" r="2" fill="white"/>
<circle cx="110" cy="170" r="2" fill="white"/>
<circle cx="106" cy="166" r="2" fill="white"/>
<circle cx="102" cy="162" r="2" fill="white"/>
<circle cx="98" cy="158" r="2" fill="white"/>
<circle cx="94" cy="154" r="2" fill="white"/>
<circle cx="90" cy="150" r="2" fill="white"/>
<circle cx="214" cy="218" r="2" fill="white"/>
<circle cx="214" cy="214" r="2" fill="white"/>
<circle cx="214" cy="210" r="2" fill="white"/>
<circle cx="214" cy="238" r="2" fill="white"/>
<circle cx="218" cy="242" r="2" fill="white"/>
<circle cx="222" cy="246" r="2" fill="white"/>
<circle cx="222" cy="198" r="2" fill="white"/>
</svg>
