<svg width="1292" height="615" viewBox="0 0 1292 615" fill="none" xmlns="http://www.w3.org/2000/svg">
<path d="M51.0002 15H1241.06C1260.94 15 1277.06 31.1178 1277.06 51V215.235C1277.06 224.621 1273.39 233.636 1266.84 240.358L1070.81 441.546C1064.33 448.191 1055.54 452.079 1046.27 452.401L911.985 457.056H850.011C842.99 457.056 836.181 454.644 830.726 450.223C825.271 445.802 818.462 443.39 811.441 443.39H39.4578C32.9175 443.39 26.8306 440.049 23.3192 434.531C19.3118 428.233 19.3334 420.18 23.3746 413.904L60.442 356.341C64.1843 350.529 66.1744 343.763 66.1744 336.85V167.792C66.1744 160.685 64.0707 153.736 60.1283 147.823L21.0464 89.2001C17.104 83.2865 15.0002 76.3382 15.0002 69.2309V51C15.0002 31.1178 31.118 15 51.0002 15Z" fill="white"/>
</svg>
