<svg width="1292" height="615" viewBox="0 0 1292 615" fill="none" xmlns="http://www.w3.org/2000/svg">
<path d="M1154.37 70.3633C1165.97 70.3633 1175.37 79.7653 1175.37 91.3633V234.619L1003.1 411.424C999.322 415.3 994.194 417.568 988.785 417.756L875.185 421.693H821.99C819.372 421.693 816.832 420.793 814.798 419.145C807.421 413.166 798.213 409.904 788.718 409.904H133.348C129.314 409.904 125.44 408.73 122.147 406.618L152.709 359.157C158.011 350.924 160.83 341.338 160.83 331.546V188.663C160.83 178.595 157.85 168.752 152.265 160.374L120.213 112.296C117.913 108.846 116.687 104.793 116.687 100.647V91.3633C116.687 79.7654 126.089 70.3633 137.687 70.3633H1154.37Z" fill="white"/>
</svg>
