<svg width="1292" height="615" viewBox="0 0 1292 615" fill="none" xmlns="http://www.w3.org/2000/svg">
<path d="M1244.12 28.9268C1255.72 28.927 1265.12 38.3291 1265.12 49.9268V223.743L1062.08 432.125C1058.3 436.001 1053.17 438.269 1047.76 438.457L913.038 443.128H851.002C847.385 443.128 843.877 441.886 841.066 439.608C832.913 433.002 822.738 429.397 812.244 429.396H45.7246C40.6365 429.396 35.8001 427.551 32.041 424.322L70.2393 365.002C75.5408 356.769 78.3603 347.183 78.3604 337.391V167.407C78.3602 157.339 75.3798 147.496 69.7949 139.118L30.4648 80.1221C28.1653 76.6725 26.9375 72.6194 26.9375 68.4736V49.9268C26.9377 38.3291 36.3398 28.9269 47.9375 28.9268H1244.12Z" fill="white"/>
</svg>
