<svg width="118" height="41" viewBox="0 0 118 41" fill="none" xmlns="http://www.w3.org/2000/svg">
<path d="M13.7363 2.99481C15.4656 1.97057 27.4431 -4.00869 54.1738 8.3327C77.3357 19.0264 100.667 9.38591 109.311 4.91376C110.05 4.53163 111.3 5.7601 110.908 6.49384L108.185 11.5964C107.834 12.2562 108.302 13.0522 109.05 13.0593C110.649 13.0744 113.274 13.0898 116.258 13.0681C117.172 13.0614 117.616 14.1537 116.927 14.7536C110.653 20.2123 90.2023 36.8356 73.7988 36.8356C54.1732 36.8356 43.5449 32.4216 30.9951 29.0837C19.3147 25.977 13.3605 24.8219 6.35834 25.7253C5.62541 25.8196 5.01916 25.1351 5.22845 24.4265L7.79974 15.7321L13.4023 3.38153C13.4758 3.21956 13.5833 3.08547 13.7363 2.99481ZM72.6865 18.8874C71.9121 18.7813 71.0722 19.0602 70.1894 19.7487L70.1884 19.7477L70.1796 19.7565C69.1057 20.7819 68.4513 22.6841 68.5244 25.5114V25.5124C68.5972 27.6243 69.0882 29.3071 69.9667 30.404C70.8516 31.5087 72.1202 32.0059 73.7031 31.7595C75.2749 31.5145 75.9175 30.8364 76.1035 30.1696C76.1945 29.8427 76.1723 29.5296 76.1074 29.2927C76.0749 29.1744 76.0308 29.0712 75.9824 28.9929C75.9582 28.9539 75.9306 28.919 75.9013 28.8903C75.8735 28.8632 75.8352 28.833 75.787 28.821C75.7434 28.81 75.7193 28.7936 75.6464 28.7624C75.5795 28.7337 75.497 28.7074 75.3798 28.6999C75.1522 28.6854 74.8003 28.7442 74.165 28.9743C73.5594 29.1933 73.047 29.1704 72.5917 28.8864C72.1283 28.5973 71.7031 28.0263 71.3085 27.1042H71.3095C71.0528 26.4898 70.852 25.5778 70.8339 24.6511C70.8159 23.7224 70.9817 22.799 71.4355 22.1462L71.5341 22.0173C71.7607 21.7437 71.964 21.6583 72.0927 21.5827C72.3428 21.436 72.5966 21.4324 72.8036 21.4772C73.0145 21.5229 73.1661 21.6164 73.1992 21.6442L73.2802 21.5495L73.1992 21.6452L73.2079 21.652C73.6136 21.9348 73.9535 22.0794 74.2285 22.1061C74.5114 22.1335 74.7292 22.0341 74.8613 21.8386C74.987 21.652 75.0225 21.3963 74.9951 21.1296C74.9673 20.8601 74.8739 20.5631 74.7255 20.278L74.7216 20.2692L74.7158 20.2614L74.4951 19.9831C73.9695 19.3654 73.3639 18.9804 72.6865 18.8874ZM56.4492 15.4372C56.1131 15.2311 55.7342 15.14 55.3886 15.2331C55.0379 15.3277 54.7475 15.6048 54.579 16.0749V16.0768C54.2071 17.1705 54.2523 18.3019 54.163 19.6276C54.0731 20.9616 53.8481 22.5335 52.9433 24.5593L52.9423 24.5602C52.7272 25.0532 52.3538 25.7556 52.0165 26.3708C51.6871 26.9716 51.3887 27.4962 51.3183 27.6384C51.0559 28.1171 50.9822 28.5654 51.079 28.9177C51.178 29.2769 51.4515 29.5198 51.8339 29.5768C52.2094 29.6326 52.6777 29.5087 53.1874 29.1765C53.6983 28.8435 54.2608 28.2954 54.832 27.4821C55.1173 27.0981 55.4109 26.4266 55.6298 25.864C55.7401 25.5804 55.8329 25.3199 55.8984 25.1306C55.9311 25.0359 55.9568 24.9584 55.9745 24.905C55.9751 24.9032 55.975 24.9008 55.9755 24.8991L56.7704 24.8132C56.7741 24.8286 56.7788 24.8464 56.7831 24.8649C56.807 24.9673 56.841 25.1162 56.8828 25.2985C56.9663 25.6639 57.0796 26.1676 57.1992 26.7194C57.4389 27.8257 57.7025 29.1221 57.8007 29.8962V29.8972C57.9159 30.7168 58.7179 31.3458 59.4941 31.3815C59.8898 31.3995 60.2854 31.2638 60.582 30.9196C60.8761 30.5782 61.0619 30.0454 61.0722 29.2888L60.9472 29.2868L61.0732 29.2888L61.0712 29.2751C60.9833 28.3743 60.6882 27.2031 60.1523 25.7556L59.9081 25.1188L59.9042 25.1071C59.9007 25.0974 59.8952 25.0827 59.8886 25.0651C59.8752 25.0292 59.8557 24.9772 59.831 24.9157C59.7812 24.7919 59.7091 24.6247 59.624 24.4518C59.539 24.2794 59.4384 24.0967 59.329 23.946C59.2633 23.8555 59.187 23.77 59.1054 23.7038C59.1118 23.6976 59.1191 23.6919 59.1259 23.6852C59.2113 23.6017 59.3338 23.4809 59.4814 23.3327C59.7766 23.0364 60.1736 22.6288 60.58 22.1852C60.9859 21.7423 61.4027 21.2615 61.7372 20.8181C62.0678 20.3799 62.3314 19.9613 62.412 19.6472C62.4915 19.3371 62.5187 19.0372 62.4658 18.7936C62.4116 18.5449 62.2695 18.3431 62.0117 18.2702C61.7666 18.2013 61.4449 18.257 61.0478 18.4401C60.6469 18.6251 60.1493 18.948 59.541 19.4421C58.3297 20.4261 57.65 21.0787 57.2724 21.487C57.2295 21.5333 57.1917 21.5776 57.1562 21.6179C57.2056 21.3679 57.2666 21.045 57.3251 20.6794C57.4449 19.9307 57.5609 18.9969 57.5683 18.1393L57.5644 17.777C57.6667 16.7418 57.1167 15.847 56.4492 15.4372ZM78.0605 18.2233C77.7566 18.2603 77.4971 18.4886 77.3193 18.7897C77.1396 19.0941 77.0301 19.4922 77.0341 19.9118C77.0418 20.7185 77.1836 21.7884 77.3495 22.8923C77.5162 24.0005 77.7076 25.1448 77.8193 26.111C78.0426 28.0422 78.0576 28.5761 78.2812 29.7204C78.3218 29.9273 78.4922 30.0489 78.6953 30.1169C78.8997 30.1853 79.1685 30.2114 79.4706 30.2106C80.0774 30.2091 80.8606 30.0979 81.6337 29.9499C82.4086 29.8015 83.1808 29.6142 83.7675 29.4597C84.0607 29.3824 84.3082 29.3132 84.4872 29.2604C84.5767 29.2341 84.6499 29.2113 84.7031 29.194C84.7295 29.1854 84.7521 29.1779 84.7695 29.1716C84.7825 29.1668 84.8035 29.1592 84.8193 29.1501C84.825 29.1467 84.8408 29.1399 84.874 29.1286C84.907 29.1174 84.9413 29.1073 84.9892 29.0915C85.0794 29.0618 85.1931 29.021 85.3115 28.9587C85.5509 28.8325 85.8096 28.6167 85.9433 28.2263L85.9423 28.2253C86.0296 28.0149 85.9976 27.8227 85.8788 27.6667C85.7648 27.5169 85.5794 27.4103 85.3769 27.3395C84.9717 27.198 84.4336 27.1768 84.0458 27.3024C83.695 27.416 82.8607 27.6174 82.0693 27.738C81.6736 27.7983 81.2934 27.837 80.9931 27.8366C80.8427 27.8364 80.7168 27.826 80.621 27.8054C80.5209 27.7838 80.4742 27.755 80.457 27.735C80.451 27.7281 80.4365 27.7056 80.4199 27.655C80.404 27.6067 80.3886 27.5424 80.374 27.4626C80.3447 27.303 80.3206 27.0909 80.2988 26.8366C80.255 26.3274 80.2219 25.6638 80.1767 24.9352C80.087 23.4881 79.9487 21.7863 79.5732 20.6179C79.4217 19.7264 79.1998 19.1192 78.9423 18.739C78.6827 18.3555 78.3736 18.1854 78.0605 18.2233ZM51.6445 14.1257C51.1015 13.3985 50.1346 12.8799 48.663 13.0856C46.516 13.1071 45.0916 14.9252 44.2128 16.6813C43.7698 17.5667 43.4576 18.4498 43.2568 19.111C43.1563 19.4419 43.0839 19.7184 43.0361 19.9118C43.0122 20.0083 42.9941 20.0844 42.9824 20.1364C42.9766 20.1622 42.9726 20.1824 42.9697 20.196C42.9682 20.2026 42.9665 20.2081 42.9658 20.2116C42.9655 20.2131 42.9659 20.2146 42.9658 20.2155L42.9648 20.2175V20.2204C42.9644 20.2222 42.9635 20.225 42.9628 20.2282C42.9615 20.235 42.9594 20.2456 42.957 20.2585C42.9521 20.2845 42.9449 20.3228 42.9365 20.3718C42.9195 20.4703 42.897 20.6133 42.873 20.7917C42.8249 21.1489 42.7722 21.6499 42.7538 22.2233C42.7173 23.3659 42.8163 24.8146 43.372 25.9968V25.9977C44.3961 28.3034 46.8851 28.3103 47.3281 28.364L47.3535 28.3669L47.3779 28.36C48.7645 27.9585 49.2713 27.2949 49.3271 26.6794C49.3543 26.3788 49.2706 26.1041 49.1484 25.9001C49.0873 25.7983 49.0149 25.711 48.9384 25.6462C48.8635 25.5829 48.7749 25.5333 48.6835 25.5222L48.6747 25.5212C48.3603 25.5057 48.0338 25.5226 47.6816 25.4792C47.3387 25.4369 46.9991 25.3384 46.6982 25.1022L46.6972 25.1013C46.1896 24.7071 45.9671 23.9967 45.9091 23.2116C45.8519 22.4361 45.9575 21.6185 46.0751 21.0417C46.3571 20.0593 46.8043 18.6065 47.4238 17.5202C47.734 16.9763 48.0806 16.5376 48.4589 16.2917C48.8236 16.0549 49.2188 15.9961 49.662 16.2028C50.2579 16.9257 50.7938 17.1584 51.2363 17.0905C51.6788 17.0222 51.9693 16.6625 52.0849 16.3405C52.2987 15.7599 52.1797 14.8429 51.6445 14.1257ZM90.5253 16.0837C90.2446 16.0193 89.9725 16.0871 89.7607 16.3015C89.5544 16.5105 89.4156 16.8483 89.3603 17.3063H89.3593V17.3181C89.3518 17.6016 89.4231 17.9294 89.5224 18.2936C89.6236 18.6651 89.7509 19.0649 89.873 19.5349V19.5358C90.0459 20.5218 90.233 21.6231 90.3066 22.5993C90.3433 23.0871 90.3509 23.5405 90.3163 23.9304C90.2821 24.3169 90.2057 24.6306 90.082 24.8532C89.8751 25.1352 89.5538 25.2515 89.2216 25.2165C88.8893 25.1813 88.5517 24.9946 88.3281 24.6745C87.8921 23.814 87.515 22.3558 87.1767 20.9753C87.008 20.2871 86.8488 19.6195 86.6982 19.0651C86.5488 18.5152 86.4033 18.0591 86.2578 17.8034L86.2568 17.8024C86.0672 17.4762 85.8378 17.2657 85.5937 17.1628C85.3483 17.0593 85.0967 17.0688 84.8769 17.1647C84.4394 17.3558 84.1471 17.8779 84.2167 18.4977C84.3485 19.6644 84.6986 20.7084 85.789 24.2682L85.79 24.2712C86.3721 26.0147 87.497 26.781 88.5292 27.0944C89.5537 27.4055 90.4811 27.27 90.6874 27.2263H90.6894C91.4763 27.0456 91.9515 26.5827 92.2626 26.027C92.5698 25.4783 92.7206 24.8322 92.8622 24.2839C92.9421 23.9741 92.9595 23.5352 92.9365 23.03C92.9133 22.5219 92.8482 21.9352 92.7558 21.3239C92.6171 20.4069 92.4165 19.4292 92.2031 18.5681L91.9872 17.7516L91.9833 17.7419L91.8417 17.4079C91.6909 17.0908 91.5151 16.8235 91.3271 16.613C91.0775 16.3336 90.7999 16.1468 90.5253 16.0837ZM39.5058 9.5993C39.0678 9.55453 38.5519 9.61568 38.0204 9.93231C37.4906 10.248 36.954 10.8128 36.4599 11.7595C35.473 13.6204 33.6474 16.8553 32.2411 19.3054L31.0214 21.4138C30.7027 21.9127 30.5947 22.4188 30.665 22.8298C30.736 23.244 30.9924 23.5669 31.3906 23.655C31.7816 23.7412 32.2715 23.5927 32.8017 23.1599C33.322 22.735 33.8946 22.0247 34.4794 20.947L37.2646 21.2458C37.2576 21.2657 37.2504 21.2878 37.2421 21.3112C37.1939 21.4486 37.1254 21.6467 37.0439 21.8864C36.8816 22.3636 36.6677 23.0097 36.4609 23.6872C36.2327 24.2625 36.203 24.7404 36.332 25.0983C36.4632 25.4621 36.7524 25.6847 37.1122 25.7516C37.8204 25.8831 38.7815 25.4188 39.4628 24.3591L39.4619 24.3581C39.4942 24.3107 39.5305 24.2375 39.5663 24.1491C39.6047 24.0547 39.6485 23.9334 39.6962 23.7897C39.7917 23.502 39.9047 23.1176 40.0253 22.6599C40.2667 21.7437 40.5387 20.5282 40.7607 19.1911C41.2037 16.5226 41.4502 13.3458 40.832 11.0964L40.8281 11.0817L40.8212 11.069L40.6747 10.8132C40.5235 10.5583 40.3591 10.3097 40.1943 10.1061C40.0845 9.97061 39.9712 9.85061 39.8593 9.76239C39.7502 9.67642 39.6294 9.61091 39.5048 9.60028L39.5058 9.5993ZM98.915 13.3464C97.7347 13.0479 96.2709 13.4877 94.4072 14.572C93.8015 14.9005 93.5289 15.2005 93.4345 15.4987C93.3431 15.7881 93.4334 16.0602 93.4648 16.2487L93.4667 16.2585L93.4697 16.2673V16.2682C93.4699 16.2691 93.4702 16.2707 93.4706 16.2722C93.4717 16.2755 93.4735 16.2806 93.4755 16.2868C93.4799 16.3002 93.4868 16.3206 93.4951 16.3464C93.5118 16.3983 93.5361 16.4749 93.5673 16.572C93.6299 16.7668 93.7197 17.0469 93.8271 17.3835C94.042 18.057 94.3295 18.961 94.6171 19.8835C94.9049 20.8063 95.1928 21.7479 95.4111 22.4948C95.5201 22.8681 95.6119 23.1923 95.6767 23.4411C95.7091 23.5655 95.7351 23.6705 95.7529 23.7526C95.771 23.8362 95.7788 23.8897 95.7802 23.9157V23.9167L95.7822 23.9284C95.8034 24.0766 95.932 24.1578 96.0536 24.2009C96.1822 24.2464 96.3503 24.268 96.5361 24.2722C96.9102 24.2804 97.3912 24.2181 97.8544 24.0925L97.8593 24.0905C99.2173 23.6556 100.273 23.0837 100.963 22.4245C101.654 21.7637 101.986 21.0058 101.866 20.2136C101.649 18.7758 100.831 17.6175 99.664 17.4059C99.6995 17.3307 99.7463 17.2307 99.7968 17.111C99.9135 16.8346 100.058 16.4521 100.166 16.03L100.167 16.0222C100.264 15.5197 100.196 14.9806 100.017 14.5153C99.8375 14.0514 99.5415 13.6474 99.1699 13.4274L99.1591 13.4206L99.1474 13.4167L98.915 13.3464ZM21.7285 6.19989C20.7619 5.9052 19.8031 6.63156 19.5937 7.77216C19.2966 9.38966 18.7258 12.1679 17.5273 15.7585C16.9033 17.196 16.6925 18.2354 16.7626 18.9479C16.798 19.3064 16.9054 19.5886 17.0732 19.7956C17.2421 20.0037 17.4663 20.1278 17.7177 20.1794C18.2141 20.2811 18.8162 20.1024 19.3613 19.7604C19.9087 19.4168 20.4183 18.8958 20.7343 18.279L20.7353 18.28C21.0969 17.6208 21.463 16.933 21.7392 16.4108C21.8772 16.1499 21.9932 15.9297 22.0742 15.7751C22.105 15.7163 22.1302 15.6662 22.1503 15.6276L25.7734 16.9655C25.7648 17.0117 25.754 17.073 25.7402 17.1462C25.7064 17.3248 25.6576 17.5779 25.5995 17.8737C25.4839 18.4625 25.3299 19.2221 25.1738 19.9108C24.8696 20.8224 24.8538 21.5051 25.0449 21.9694C25.2408 22.4452 25.6454 22.671 26.1122 22.6765C27.0257 22.6867 28.1833 21.8662 28.6806 20.5016L28.6826 20.4958C29.1103 19.1399 31.1184 13.4295 31.6777 10.3972C32.1137 9.3679 31.5738 8.3781 30.7421 8.06317C30.3223 7.90432 29.8308 7.91881 29.3613 8.18036C28.8965 8.4394 28.4628 8.93569 28.1328 9.7243C27.7835 10.3048 27.3278 11.2264 26.9609 11.9987C26.777 12.3857 26.6142 12.7376 26.498 12.9919C26.44 13.1186 26.3933 13.2215 26.3613 13.2927C26.3605 13.2942 26.359 13.296 26.3583 13.2975C26.3501 13.2946 26.3411 13.292 26.332 13.2888C26.2457 13.2578 26.1216 13.2134 25.9736 13.1599C25.6773 13.0527 25.2819 12.9082 24.8857 12.7604C24.4891 12.6126 24.0924 12.4612 23.7929 12.3395C23.6429 12.2786 23.5183 12.2261 23.4316 12.1852C23.3902 12.1657 23.3599 12.1491 23.3398 12.1374C23.3291 12.0904 23.3282 12.018 23.3437 11.9128C23.3618 11.79 23.3974 11.6432 23.4394 11.4763C23.5218 11.1484 23.6268 10.7472 23.6357 10.3571H23.6367L23.6357 10.3503C23.5392 7.75565 22.685 6.49168 21.7285 6.19989ZM98.0878 19.3718C98.4587 19.2637 98.8386 19.2138 99.164 19.2897C99.4812 19.3639 99.7572 19.559 99.9296 19.9645C100.099 20.364 100.028 20.694 99.8261 20.9772C99.6183 21.2686 99.2691 21.514 98.8818 21.7175C98.4964 21.9199 98.0865 22.0747 97.7695 22.1911C97.6132 22.2485 97.4758 22.298 97.3788 22.3386C97.3723 22.3413 97.3657 22.3446 97.3593 22.3474C97.346 22.294 97.3305 22.2294 97.3124 22.1569C97.2525 21.9164 97.1694 21.584 97.0859 21.2477C97.0024 20.9114 96.918 20.5703 96.8544 20.3141C96.8228 20.1865 96.7959 20.0796 96.7773 20.0046C96.7746 19.9937 96.7718 19.9828 96.7695 19.9733C96.7809 19.9663 96.7937 19.9583 96.8076 19.9499C96.8801 19.9059 96.985 19.8449 97.1132 19.777C97.3704 19.6409 97.719 19.4793 98.0878 19.3718ZM97.2578 15.4675C97.5379 15.4266 97.7658 15.4406 97.9355 15.5231C98.0975 15.602 98.2265 15.7536 98.291 16.0358C98.3514 16.3015 98.2714 16.5576 98.0986 16.8015C97.9246 17.047 97.6626 17.2701 97.3847 17.4606C97.108 17.6504 96.8216 17.8036 96.6035 17.9089C96.5004 17.9586 96.4128 17.9969 96.3495 18.0241L95.4599 16.0163C95.5839 15.9738 95.7095 15.9307 95.8339 15.8864C96.0024 15.8265 96.1701 15.7671 96.3349 15.7116C96.6657 15.6003 96.9794 15.5081 97.2578 15.4675ZM38.582 13.5866C38.5878 13.5876 38.6016 13.5915 38.621 13.6169C38.6661 13.676 38.707 13.8016 38.7333 13.9987C38.7847 14.3835 38.7698 14.9539 38.7245 15.5515C38.6795 16.1465 38.6058 16.76 38.5429 17.2243C38.5115 17.4558 38.4826 17.6503 38.4619 17.7868C38.4567 17.8209 38.4513 17.852 38.4472 17.8786L35.788 17.4411L38.5312 13.5993C38.56 13.5859 38.5756 13.5856 38.582 13.5866Z" fill="#07010F"/>
<path d="M13.5752 2.15199C13.5752 2.15199 13.8075 1.89465 14.2466 1.94827C14.6856 2.00189 14.5773 2.4897 14.4119 2.80753C14.2466 3.12536 10.0811 11.3493 7.06651 20.6257C4.05191 29.9021 4.28241 39.8144 4.28241 40.3538H0.966011C0.920808 39.3828 1.5491 30.0503 4.86807 20.6257C8.18704 11.2011 13.1354 2.47955 13.5752 2.15199Z" fill="#07010F"/>
</svg>
