<svg width="1293" height="615" viewBox="0 0 1293 615" fill="none" xmlns="http://www.w3.org/2000/svg">
<path d="M52.7449 599.724C32.8627 599.724 16.7449 583.606 16.7449 563.724V424.2L18.3472 426.718C24.9552 437.102 36.4105 443.39 48.7189 443.39H811.441C818.462 443.39 825.271 445.802 830.726 450.223C836.181 454.644 842.99 457.056 850.011 457.056H911.985L1046.27 452.401C1055.54 452.079 1064.33 448.191 1070.81 441.546L1277.06 229.874V318.279C1277.06 324.188 1275.61 330.006 1272.82 335.22L1265.01 349.868C1262.23 355.082 1260.78 360.9 1260.78 366.81V486.566C1260.78 492.885 1262.44 499.093 1265.6 504.566L1272.24 516.062C1275.4 521.535 1277.06 527.743 1277.06 534.062V563.724C1277.06 583.606 1260.94 599.724 1241.06 599.724H52.7449Z" fill="#DDDDDD"/>
<path d="M16.7449 424.2L60.442 356.341C64.1844 350.529 66.1744 343.763 66.1744 336.85V167.792C66.1744 160.685 64.0707 153.736 60.1283 147.823L21.0464 89.2001C17.104 83.2865 15.0002 76.3382 15.0002 69.2309V51C15.0002 31.1178 31.118 15 51.0003 15H1241.06C1260.94 15 1277.06 31.1178 1277.06 51V229.874M16.7449 424.2V563.724C16.7449 583.606 32.8626 599.724 52.7449 599.724H1241.06C1260.94 599.724 1277.06 583.606 1277.06 563.724V534.062C1277.06 527.743 1275.4 521.535 1272.24 516.062L1265.6 504.566C1262.44 499.093 1260.78 492.885 1260.78 486.566V366.81C1260.78 360.9 1262.23 355.082 1265.01 349.868L1272.82 335.22C1275.61 330.006 1277.06 324.188 1277.06 318.279V229.874M16.7449 424.2L18.3471 426.718C24.9552 437.102 36.4105 443.39 48.7189 443.39H811.441C818.463 443.39 825.271 445.802 830.726 450.223V450.223C836.181 454.644 842.99 457.056 850.011 457.056H911.985L1046.27 452.401C1055.54 452.079 1064.33 448.191 1070.81 441.546L1277.06 229.874" stroke="#DDDDDD" stroke-width="30"/>
</svg>
